<svg width="102" height="100" viewBox="0 0 102 100" fill="none" xmlns="http://www.w3.org/2000/svg">
<g filter="url(#filter0_d)">
<path d="M92.1875 10.9375H7.8125C6.08661 10.9375 4.6875 12.3366 4.6875 14.0625V85.9375C4.6875 87.6634 6.08661 89.0625 7.8125 89.0625H92.1875C93.9134 89.0625 95.3125 87.6634 95.3125 85.9375V14.0625C95.3125 12.3366 93.9134 10.9375 92.1875 10.9375Z" fill="#7876F2"/>
<path d="M12.5 21.875H87.5V73.4375H12.5V21.875Z" fill="white"/>
<path d="M18.75 57.8125L25 62.5L18.75 67.1875V57.8125Z" fill="rgb(108, 117, 125)"/>
<path d="M29.6875 60.9375H60.9375V64.0625H29.6875V60.9375Z" fill="#7FCCC6"/>
<path d="M68 61H83V64H68V61Z" fill="#7FCCC6"/>
<path d="M64.0625 65.625C65.7884 65.625 67.1875 64.2259 67.1875 62.5C67.1875 60.7741 65.7884 59.375 64.0625 59.375C62.3366 59.375 60.9375 60.7741 60.9375 62.5C60.9375 64.2259 62.3366 65.625 64.0625 65.625Z" fill="white"/>
<path d="M64.0625 67.1875C63.1354 67.1875 62.2291 66.9126 61.4583 66.3975C60.6874 65.8825 60.0866 65.1504 59.7318 64.2938C59.377 63.4373 59.2842 62.4948 59.4651 61.5855C59.6459 60.6762 60.0924 59.841 60.7479 59.1854C61.4035 58.5299 62.2387 58.0834 63.148 57.9026C64.0573 57.7217 64.9998 57.8145 65.8563 58.1693C66.7129 58.5241 67.445 59.1249 67.96 59.8958C68.4751 60.6666 68.75 61.5729 68.75 62.5C68.7486 63.7428 68.2543 64.9343 67.3755 65.813C66.4968 66.6918 65.3053 67.1861 64.0625 67.1875ZM64.0625 60.9375C63.7535 60.9375 63.4514 61.0291 63.1944 61.2008C62.9375 61.3725 62.7372 61.6166 62.6189 61.9021C62.5007 62.1876 62.4697 62.5017 62.53 62.8048C62.5903 63.1079 62.7391 63.3863 62.9576 63.6049C63.1762 63.8234 63.4546 63.9722 63.7577 64.0325C64.0608 64.0928 64.3749 64.0618 64.6604 63.9436C64.946 63.8253 65.19 63.625 65.3617 63.3681C65.5334 63.1111 65.625 62.809 65.625 62.5C65.6245 62.0857 65.4598 61.6886 65.1668 61.3957C64.8739 61.1028 64.4768 60.938 64.0625 60.9375Z" fill="rgb(108, 117, 125)"/>
<path d="M12.5 78.125H28.125V81.25H12.5V78.125Z" fill="white"/>
<path d="M31.25 78.125H37.5V81.25H31.25V78.125Z" fill="white"/>
<path d="M71.875 78.125H78.125V81.25H71.875V78.125Z" fill="white"/>
<path d="M81.25 78.125H87.5V81.25H81.25V78.125Z" fill="white"/>
</g>
<defs>
<filter id="filter0_d" x="-2" y="-2" width="108" height="108" filterUnits="userSpaceOnUse" color-interpolation-filters="sRGB">
<feFlood flood-opacity="0" result="BackgroundImageFix"/>
<feColorMatrix in="SourceAlpha" type="matrix" values="0 0 0 0 0 0 0 0 0 0 0 0 0 0 0 0 0 0 127 0"/>
<feOffset dx="2" dy="2"/>
<feGaussianBlur stdDeviation="2"/>
<feColorMatrix type="matrix" values="0 0 0 0 0 0 0 0 0 0 0 0 0 0 0 0 0 0 0.25 0"/>
<feBlend mode="normal" in2="BackgroundImageFix" result="effect1_dropShadow"/>
<feBlend mode="normal" in="SourceGraphic" in2="effect1_dropShadow" result="shape"/>
</filter>
</defs>
</svg>
