<svg width="108" height="108" viewBox="0 0 108 108" fill="none" xmlns="http://www.w3.org/2000/svg">
<g clip-path="url(#clip0)" filter="url(#filter0_d)">
<path d="M75.0469 45.3333H72V35.3333C72 33.4925 70.5075 32 68.6667 32H58.6667V35.0469C58.7253 38.5511 56.1325 41.5361 52.6551 41.9691C50.7817 42.153 48.9181 41.5378 47.5233 40.2739C46.1292 39.0101 45.3333 37.2157 45.3333 35.3333V32H35.3333C33.4925 32 32 33.4925 32 35.3333V45.3333H28.9531C25.4489 45.2747 22.4647 47.8675 22.0317 51.3449C21.847 53.2183 22.4622 55.0819 23.7261 56.4767C24.9899 57.8708 26.7843 58.6667 28.6667 58.6667H32V68.6667C32 70.5075 33.4925 72 35.3333 72H45.3333V68.9531C45.2747 65.4489 47.8675 62.4639 51.3449 62.0309C53.2183 61.847 55.0819 62.4622 56.4767 63.7261C57.8708 64.9899 58.6667 66.7843 58.6667 68.6667V72H68.6667C70.5075 72 72 70.5075 72 68.6667V58.6667H75.3333C77.2157 58.6667 79.0101 57.8708 80.2739 56.4767C81.5378 55.0819 82.153 53.2183 81.9683 51.3449C81.5353 47.8675 78.5511 45.2747 75.0469 45.3333Z" fill="#7876F2"/>
<path d="M2 32H13.6667C15.5075 32 17 33.4925 17 35.3333V45.3333H13.9531C10.4489 45.2747 7.46468 47.8675 7.03174 51.3449C6.84701 53.2183 7.46224 55.0819 8.72607 56.4767C9.98991 57.8708 11.7843 58.6667 13.6667 58.6667H17V68.6667C17 70.5075 15.5075 72 13.6667 72H2V32Z" fill="rgb(108, 117, 125)"/>
<path d="M32.0002 2V13.6667C32.0002 15.5075 33.4928 17 35.3336 17H45.3336V20.0469C45.275 23.5511 47.8678 26.5361 51.3451 26.9691C53.2185 27.153 55.0821 26.5378 56.477 25.2739C57.871 24.0101 58.6669 22.2157 58.6669 20.3333V17H68.6669C70.5077 17 72.0002 15.5075 72.0002 13.6667V2H32.0002Z" fill="#7FCCC6"/>
<path d="M102 72H90.3335C88.4927 72 87.0002 70.5075 87.0002 68.6667V58.6667H90.0471C93.5513 58.7253 96.5355 56.1325 96.9685 52.6551C97.1532 50.7817 96.538 48.9181 95.2741 47.5233C94.0103 46.1292 92.2159 45.3333 90.3335 45.3333H87.0002V35.3333C87.0002 33.4925 88.4927 32 90.3335 32H102V72Z" fill="rgb(108, 117, 125)"/>
<path d="M72.0002 101.999V90.3324C72.0002 88.4916 70.5077 86.9991 68.6669 86.9991H58.6669V83.9522C58.7255 80.448 56.1327 77.463 52.6553 77.03C50.782 76.8461 48.9184 77.4613 47.5235 78.7252C46.1295 79.989 45.3336 81.7834 45.3336 83.6658V86.9991H35.3336C33.4928 86.9991 32.0002 88.4916 32.0002 90.3324V101.999H72.0002Z" fill="#7FCCC6"/>
</g>
<defs>
<filter id="filter0_d" x="0" y="0" width="108" height="108" filterUnits="userSpaceOnUse" color-interpolation-filters="sRGB">
<feFlood flood-opacity="0" result="BackgroundImageFix"/>
<feColorMatrix in="SourceAlpha" type="matrix" values="0 0 0 0 0 0 0 0 0 0 0 0 0 0 0 0 0 0 127 0"/>
<feOffset dx="2" dy="2"/>
<feGaussianBlur stdDeviation="2"/>
<feColorMatrix type="matrix" values="0 0 0 0 0 0 0 0 0 0 0 0 0 0 0 0 0 0 0.25 0"/>
<feBlend mode="normal" in2="BackgroundImageFix" result="effect1_dropShadow"/>
<feBlend mode="normal" in="SourceGraphic" in2="effect1_dropShadow" result="shape"/>
</filter>
<clipPath id="clip0">
<rect width="100" height="100" fill="white" transform="translate(2 2)"/>
</clipPath>
</defs>
</svg>
