<svg width="102" height="100" viewBox="0 0 102 100" fill="none" xmlns="http://www.w3.org/2000/svg">
<g filter="url(#filter0_d)">
<path d="M70.3125 89.0625H12.5C10.428 89.0625 8.44086 88.2394 6.97573 86.7743C5.5106 85.3091 4.6875 83.322 4.6875 81.25C4.6875 79.178 5.5106 77.1909 6.97573 75.7257C8.44086 74.2606 10.428 73.4375 12.5 73.4375H70.3125V89.0625Z" fill="white"/>
<path d="M70.3125 73.4375H87.5C89.572 73.4375 91.5591 74.2606 93.0243 75.7257C94.4894 77.1909 95.3125 79.178 95.3125 81.25C95.3125 83.322 94.4894 85.3091 93.0243 86.7743C91.5591 88.2394 89.572 89.0625 87.5 89.0625H70.3125V73.4375Z" fill="#7FCCC6"/>
<path d="M12.5 73.4375V14.0625C12.5 13.2337 12.8292 12.4388 13.4153 11.8528C14.0013 11.2667 14.7962 10.9375 15.625 10.9375H84.375C85.2038 10.9375 85.9987 11.2667 86.5847 11.8528C87.1708 12.4388 87.5 13.2337 87.5 14.0625V73.4375H12.5Z" fill="#7876F2"/>
<path d="M50 64.0625C61.2183 64.0625 70.3125 54.9683 70.3125 43.75C70.3125 32.5317 61.2183 23.4375 50 23.4375C38.7817 23.4375 29.6875 32.5317 29.6875 43.75C29.6875 54.9683 38.7817 64.0625 50 64.0625Z" fill="white"/>
<path d="M12.5 81.25H15.625V84.375H12.5V81.25Z" fill="rgb(108, 117, 125)"/>
<path d="M18.75 81.25H21.875V84.375H18.75V81.25Z" fill="rgb(108, 117, 125)"/>
<path d="M25 81.25H28.125V84.375H25V81.25Z" fill="rgb(108, 117, 125)"/>
<path d="M31.25 81.25H34.375V84.375H31.25V81.25Z" fill="rgb(108, 117, 125)"/>
<path d="M37.5 76.5625H40.625V84.375H37.5V76.5625Z" fill="rgb(108, 117, 125)"/>
<path d="M49.2394 46.0566H51.0704V50.6341H49.2394V46.0566Z" fill="rgb(108, 117, 125)"/>
<path d="M58.3943 38.7336C58.3943 43.2842 54.7055 46.973 50.1549 46.973C45.6043 46.973 41.9155 43.2842 41.9155 38.7336C41.9155 34.1829 45.6043 30.4941 50.1549 30.4941C54.7055 30.4941 58.3943 34.1829 58.3943 38.7336Z" fill="white"/>
<path d="M50.1549 47.888C45.0987 47.888 41 43.7893 41 38.7331C41 33.6768 45.0987 29.5781 50.1549 29.5781C55.2111 29.5781 59.3099 33.6768 59.3099 38.7331C59.304 43.7866 55.2085 47.8822 50.1549 47.888ZM50.1549 31.4091C46.1099 31.4091 42.831 34.688 42.831 38.7331C42.831 42.7781 46.1099 46.057 50.1549 46.057C54.2 46.057 57.4789 42.7781 57.4789 38.7331C57.4744 34.6902 54.1978 31.4136 50.1549 31.4091Z" fill="rgb(108, 117, 125)"/>
<path d="M49.2394 50.6348H51.0704C52.0815 50.6348 52.9014 51.4546 52.9014 52.4658V66.1981C52.9014 67.2093 52.0815 68.0291 51.0704 68.0291H49.2394C48.2282 68.0291 47.4084 67.2093 47.4084 66.1981V52.4658C47.4084 51.4546 48.2282 50.6348 49.2394 50.6348Z" fill="#7FCCC6"/>
<path d="M49.2394 68.0293H51.0704V70.7758H49.2394V68.0293Z" fill="rgb(108, 117, 125)"/>
</g>
<defs>
<filter id="filter0_d" x="-2" y="-2" width="108" height="108" filterUnits="userSpaceOnUse" color-interpolation-filters="sRGB">
<feFlood flood-opacity="0" result="BackgroundImageFix"/>
<feColorMatrix in="SourceAlpha" type="matrix" values="0 0 0 0 0 0 0 0 0 0 0 0 0 0 0 0 0 0 127 0"/>
<feOffset dx="2" dy="2"/>
<feGaussianBlur stdDeviation="2"/>
<feColorMatrix type="matrix" values="0 0 0 0 0 0 0 0 0 0 0 0 0 0 0 0 0 0 0.25 0"/>
<feBlend mode="normal" in2="BackgroundImageFix" result="effect1_dropShadow"/>
<feBlend mode="normal" in="SourceGraphic" in2="effect1_dropShadow" result="shape"/>
</filter>
</defs>
</svg>
