<svg width="106" height="106" viewBox="0 0 106 106" fill="none" xmlns="http://www.w3.org/2000/svg">
<g clip-path="url(#clip0)" filter="url(#filter0_d)">
<path d="M10.9375 14.9375C10.9375 12.7284 12.7284 10.9375 14.9375 10.9375H85.0625C87.2716 10.9375 89.0625 12.7284 89.0625 14.9375V64.75C89.0625 66.9591 87.2716 68.75 85.0625 68.75H14.9375C12.7284 68.75 10.9375 66.9591 10.9375 64.75V14.9375Z" fill="#7876F2"/>
<path d="M45.3125 57.8125H26.5625C26.1481 57.8125 25.7507 57.6479 25.4577 57.3548C25.1646 57.0618 25 56.6644 25 56.25V39.0625C25 38.6481 25.1646 38.2507 25.4577 37.9577C25.7507 37.6646 26.1481 37.5 26.5625 37.5H73.4375V25C73.437 24.5857 73.2723 24.1886 72.9793 23.8957C72.6864 23.6027 72.2893 23.438 71.875 23.4375H54.6875V20.3125H71.875C73.1178 20.3139 74.3092 20.8082 75.188 21.687C76.0668 22.5658 76.5611 23.7572 76.5625 25V39.0625C76.5625 39.4769 76.3979 39.8743 76.1048 40.1673C75.8118 40.4604 75.4144 40.625 75 40.625H28.125V54.6875H45.3125V57.8125Z" fill="white"/>
<path d="M34.375 42.5C34.375 43.0523 33.9273 43.5 33.375 43.5H22.875C22.3227 43.5 21.875 43.0523 21.875 42.5V35.375C21.875 34.8227 22.3227 34.375 22.875 34.375H33.375C33.9273 34.375 34.375 34.8227 34.375 35.375V42.5Z" fill="rgb(108, 117, 125)"/>
<path d="M34.5 60.125C34.5 60.6773 34.0523 61.125 33.5 61.125H23C22.4477 61.125 22 60.6773 22 60.125V53C22 52.4477 22.4477 52 23 52H33.5C34.0523 52 34.5 52.4477 34.5 53V60.125Z" fill="rgb(108, 117, 125)"/>
<path d="M81.25 39.0625C81.25 41.6513 79.1513 43.75 76.5625 43.75H70.3125C67.7237 43.75 65.625 41.6513 65.625 39.0625C65.625 36.4737 67.7237 34.375 70.3125 34.375H76.5625C79.1513 34.375 81.25 36.4737 81.25 39.0625Z" fill="#7FCCC6"/>
<path d="M53.125 17.1875H46.875C44.2862 17.1875 42.1875 19.2862 42.1875 21.875C42.1875 24.4638 44.2862 26.5625 46.875 26.5625H53.125C55.7138 26.5625 57.8125 24.4638 57.8125 21.875C57.8125 19.2862 55.7138 17.1875 53.125 17.1875Z" fill="#7FCCC6"/>
<path d="M53.125 34H46.875C44.2862 34 42.1875 36.0987 42.1875 38.6875C42.1875 41.2763 44.2862 43.375 46.875 43.375H53.125C55.7138 43.375 57.8125 41.2763 57.8125 38.6875C57.8125 36.0987 55.7138 34 53.125 34Z" fill="#7FCCC6"/>
<path d="M53.125 51.5625H46.875C44.2862 51.5625 42.1875 53.6612 42.1875 56.25C42.1875 58.8388 44.2862 60.9375 46.875 60.9375H53.125C55.7138 60.9375 57.8125 58.8388 57.8125 56.25C57.8125 53.6612 55.7138 51.5625 53.125 51.5625Z" fill="#7FCCC6"/>
<path d="M46.875 68.75H53.125V78.125H46.875V68.75Z" fill="rgb(108, 117, 125)"/>
<path d="M53.125 72L53.125 84.5L46.875 84.5L46.875 72L53.125 72Z" fill="rgb(108, 117, 125)"/>
<path d="M46.6875 84.375L42 95.3125H45.125L52.9375 84.375H46.6875Z" fill="rgb(108, 117, 125)"/>
<path d="M53.25 84.375L57.9375 95.3125H54.8125L47 84.375H53.25Z" fill="rgb(108, 117, 125)"/>
</g>
<defs>
<filter id="filter0_d" x="-2" y="-2" width="108" height="108" filterUnits="userSpaceOnUse" color-interpolation-filters="sRGB">
<feFlood flood-opacity="0" result="BackgroundImageFix"/>
<feColorMatrix in="SourceAlpha" type="matrix" values="0 0 0 0 0 0 0 0 0 0 0 0 0 0 0 0 0 0 127 0"/>
<feOffset dx="2" dy="2"/>
<feGaussianBlur stdDeviation="2"/>
<feColorMatrix type="matrix" values="0 0 0 0 0 0 0 0 0 0 0 0 0 0 0 0 0 0 0.25 0"/>
<feBlend mode="normal" in2="BackgroundImageFix" result="effect1_dropShadow"/>
<feBlend mode="normal" in="SourceGraphic" in2="effect1_dropShadow" result="shape"/>
</filter>
<clipPath id="clip0">
<rect width="100" height="100" fill="white"/>
</clipPath>
</defs>
</svg>
