<svg width="108" height="100" viewBox="0 0 108 100" fill="none" xmlns="http://www.w3.org/2000/svg">
<g clip-path="url(#clip0)" filter="url(#filter0_d)">
<path d="M83.6667 41.666H87V49.9993H83.6667V41.666Z" fill="#7876F2"/>
<path d="M100.333 28.334C100.333 36.6185 93.6178 43.334 85.3333 43.334C77.0488 43.334 70.3333 36.6185 70.3333 28.334C70.3333 20.0495 77.0488 13.334 85.3333 13.334C93.6178 13.334 100.333 20.0495 100.333 28.334Z" fill="#EEF2F7"/>
<path d="M85.3334 44.9994C76.1284 44.9994 68.6667 37.5376 68.6667 28.3327C68.6667 19.1278 76.1284 11.666 85.3334 11.666C94.5383 11.666 102 19.1278 102 28.3327C101.989 37.5327 94.5334 44.9888 85.3334 44.9994ZM85.3334 14.9993C77.9693 14.9993 72 20.9686 72 28.3327C72 35.6968 77.9693 41.666 85.3334 41.666C92.6975 41.666 98.6667 35.6968 98.6667 28.3327C98.6586 20.9727 92.6934 15.0075 85.3334 14.9993Z" fill="#7876F2"/>
<path d="M83.6666 50H87C88.8408 50 90.3333 51.4925 90.3333 53.3333V78.3333C90.3333 80.1742 88.8408 81.6667 87 81.6667H83.6666C81.8258 81.6667 80.3333 80.1742 80.3333 78.3333V53.3333C80.3333 51.4925 81.8258 50 83.6666 50Z" fill="#7FCCC6"/>
<path d="M83.6667 81.666H87V86.666H83.6667V81.666Z" fill="#7876F2"/>
<path d="M2 10.666C2 8.45687 3.79086 6.66602 6 6.66602H58.6667C60.5075 6.66602 62 8.15853 62 9.99935V89.9993C62 91.8402 60.5075 93.3327 58.6667 93.3327H6C3.79086 93.3327 2 91.5418 2 89.3327V10.666Z" fill="#7876F2"/>
<path d="M10.3334 15H17C17.9204 15 18.6667 15.7463 18.6667 16.6667V23.3333C18.6667 24.2537 17.9204 25 17 25H10.3334C9.41294 25 8.66669 24.2537 8.66669 23.3333V16.6667C8.66669 15.7463 9.41294 15 10.3334 15Z" fill="rgb(108, 117, 125)"/>
<path d="M17 26.6673H10.3333C8.49333 26.6649 7.00244 25.174 7 23.334V16.6673C7.00244 14.8273 8.49333 13.3364 10.3333 13.334H17C18.84 13.3364 20.3309 14.8273 20.3333 16.6673V23.334C20.3309 25.174 18.84 26.6649 17 26.6673ZM10.3333 16.6673V23.334H17.0016L17 16.6673H10.3333Z" fill="white"/>
<path d="M23.6667 15H27V18.3333H23.6667V15Z" fill="#EEF2F7"/>
<path d="M30.3333 15H48.6666V18.3333H30.3333V15Z" fill="#EEF2F7"/>
<path d="M52 15H55.3333V18.3333H52V15Z" fill="#EEF2F7"/>
<path d="M23.6667 21.666H27V24.9993H23.6667V21.666Z" fill="#EEF2F7"/>
<path d="M30.3333 21.666H48.6666V24.9993H30.3333V21.666Z" fill="#EEF2F7"/>
<path d="M52 21.666H55.3333V24.9993H52V21.666Z" fill="#EEF2F7"/>
<path d="M52 85H45.3334C44.4129 85 43.6667 84.2537 43.6667 83.3333V76.6667C43.6667 75.7463 44.4129 75 45.3334 75H52C52.9204 75 53.6667 75.7463 53.6667 76.6667V83.3333C53.6667 84.2537 52.9204 85 52 85Z" fill="rgb(108, 117, 125)"/>
<path d="M52 86.6673H45.3333C43.4933 86.6649 42.0024 85.174 42 83.334V76.6673C42.0024 74.8273 43.4933 73.3364 45.3333 73.334H52C53.84 73.3364 55.3309 74.8273 55.3333 76.6673V83.334C55.3309 85.174 53.84 86.6649 52 86.6673ZM45.3333 76.6673V83.334H52V76.6673H45.3333Z" fill="white"/>
<path d="M35.3333 75H38.6666V78.3333H35.3333V75Z" fill="#EEF2F7"/>
<path d="M13.6667 75H32V78.3333H13.6667V75Z" fill="#EEF2F7"/>
<path d="M7 75H10.3333V78.3333H7V75Z" fill="#EEF2F7"/>
<path d="M35.3333 81.666H38.6666V84.9993H35.3333V81.666Z" fill="#EEF2F7"/>
<path d="M13.6667 81.666H32V84.9993H13.6667V81.666Z" fill="#EEF2F7"/>
<path d="M7 36.666H28.6667V39.9993H7V36.666Z" fill="#EEF2F7"/>
<path d="M7 81.666H10.3333V84.9993H7V81.666Z" fill="#EEF2F7"/>
<path d="M32 36.666H55.3333V39.9993H32V36.666Z" fill="#EEF2F7"/>
<path d="M7 48.332H42V51.6654H7V48.332Z" fill="#EEF2F7"/>
<path d="M33.6667 38.3333C33.6667 40.1742 32.1742 41.6667 30.3333 41.6667C28.4925 41.6667 27 40.1742 27 38.3333C27 36.4925 28.4925 35 30.3333 35C32.1742 35 33.6667 36.4925 33.6667 38.3333Z" fill="rgb(108, 117, 125)"/>
<path d="M30.3333 43.334C27.5721 43.334 25.3333 41.0952 25.3333 38.334C25.3333 35.5728 27.5721 33.334 30.3333 33.334C33.0945 33.334 35.3333 35.5728 35.3333 38.334C35.3301 41.0944 33.0937 43.3307 30.3333 43.334ZM30.3333 36.6673C29.4129 36.6673 28.6666 37.4136 28.6666 38.334C28.6666 39.2544 29.4129 40.0007 30.3333 40.0007C31.2537 40.0007 32 39.2544 32 38.334C31.9992 37.4136 31.2537 36.6681 30.3333 36.6673Z" fill="#7FCCC6"/>
<path d="M45.3333 48.334H55.3333V51.6673H45.3333V48.334Z" fill="#EEF2F7"/>
<path d="M7 60H18.6667V63.3333H7V60Z" fill="#EEF2F7"/>
<path d="M47 49.9994C47 51.8402 45.5075 53.3327 43.6666 53.3327C41.8258 53.3327 40.3333 51.8402 40.3333 49.9994C40.3333 48.1585 41.8258 46.666 43.6666 46.666C45.5075 46.666 47 48.1585 47 49.9994Z" fill="rgb(108, 117, 125)"/>
<path d="M43.6667 55C40.9055 55 38.6667 52.7612 38.6667 50C38.6667 47.2388 40.9055 45 43.6667 45C46.4279 45 48.6667 47.2388 48.6667 50C48.6634 52.7604 46.4271 54.9967 43.6667 55ZM43.6667 48.3333C42.7463 48.3333 42 49.0796 42 50C42 50.9204 42.7463 51.6667 43.6667 51.6667C44.5871 51.6667 45.3334 50.9204 45.3334 50C45.3325 49.0796 44.5871 48.3341 43.6667 48.3333Z" fill="#7FCCC6"/>
<path d="M22 60H55.3333V63.3333H22V60Z" fill="#EEF2F7"/>
<path d="M23.6667 61.6673C23.6667 63.5081 22.1742 65.0007 20.3333 65.0007C18.4925 65.0007 17 63.5081 17 61.6673C17 59.8265 18.4925 58.334 20.3333 58.334C22.1742 58.334 23.6667 59.8265 23.6667 61.6673Z" fill="rgb(108, 117, 125)"/>
<path d="M20.3333 66.666C17.5721 66.666 15.3333 64.4272 15.3333 61.666C15.3333 58.9048 17.5721 56.666 20.3333 56.666C23.0945 56.666 25.3333 58.9048 25.3333 61.666C25.3301 64.4264 23.0937 66.6628 20.3333 66.666ZM20.3333 59.9994C19.4129 59.9994 18.6666 60.7456 18.6666 61.666C18.6666 62.5864 19.4129 63.3327 20.3333 63.3327C21.2537 63.3327 22 62.5864 22 61.666C21.9992 60.7456 21.2537 60.0002 20.3333 59.9994Z" fill="#7FCCC6"/>
</g>
<defs>
<filter id="filter0_d" x="0" y="-2" width="108" height="108" filterUnits="userSpaceOnUse" color-interpolation-filters="sRGB">
<feFlood flood-opacity="0" result="BackgroundImageFix"/>
<feColorMatrix in="SourceAlpha" type="matrix" values="0 0 0 0 0 0 0 0 0 0 0 0 0 0 0 0 0 0 127 0"/>
<feOffset dx="2" dy="2"/>
<feGaussianBlur stdDeviation="2"/>
<feColorMatrix type="matrix" values="0 0 0 0 0 0 0 0 0 0 0 0 0 0 0 0 0 0 0.25 0"/>
<feBlend mode="normal" in2="BackgroundImageFix" result="effect1_dropShadow"/>
<feBlend mode="normal" in="SourceGraphic" in2="effect1_dropShadow" result="shape"/>
</filter>
<clipPath id="clip0">
<rect width="100" height="100" fill="white" transform="translate(2)"/>
</clipPath>
</defs>
</svg>
