<svg width="100" height="102" viewBox="0 0 100 102" fill="none" xmlns="http://www.w3.org/2000/svg">
<g filter="url(#filter0_d)">
<path d="M84.375 24.7324V92.1875C84.3751 92.5979 84.2944 93.0043 84.1374 93.3835C83.9803 93.7627 83.7502 94.1073 83.46 94.3975C83.1698 94.6877 82.8252 94.9178 82.446 95.0749C82.0668 95.2319 81.6604 95.3126 81.25 95.3125H18.75C18.3396 95.3126 17.9332 95.2319 17.554 95.0749C17.1748 94.9178 16.8302 94.6877 16.54 94.3975C16.2498 94.1073 16.0197 93.7627 15.8627 93.3835C15.7056 93.0043 15.6249 92.5979 15.625 92.1875V7.8125C15.6249 7.40209 15.7056 6.99567 15.8626 6.61648C16.0196 6.23728 16.2498 5.89274 16.54 5.60253C16.8302 5.31233 17.1748 5.08215 17.554 4.92514C17.9332 4.76814 18.3396 4.68739 18.75 4.6875H64.3301C65.1588 4.69043 65.953 5.01949 66.541 5.6035L83.459 22.5215C84.043 23.1095 84.3721 23.9037 84.375 24.7324Z" fill="#7876F2"/>
<path d="M56.25 9.375H59.375V12.5H56.25V9.375Z" fill="#7FCCC6"/>
<path d="M45.2812 18.4889L42.6811 16.7555L47.1375 10.0708C47.2802 9.85677 47.4735 9.68127 47.7003 9.55989C47.9271 9.43851 48.1803 9.375 48.4376 9.375H53.1251V12.5H49.2737L45.2812 18.4889Z" fill="#7FCCC6"/>
<path d="M68.75 34.3753H57.8125C57.3982 34.3753 57.0007 34.2108 56.7077 33.9178L48.1345 25.3446L50.3441 23.1348L58.4597 31.2503H68.75V34.3753Z" fill="#7FCCC6"/>
<path d="M60.9375 46.8757H53.125C52.7107 46.8757 52.3132 46.7111 52.0202 46.4181L42.8763 37.2743L45.0859 35.0645L53.7722 43.7507H60.9375V46.8757Z" fill="#7FCCC6"/>
<path d="M71.875 31.25H75V34.375H71.875V31.25Z" fill="#7FCCC6"/>
<path d="M64.0625 43.75H67.1875V46.875H64.0625V43.75Z" fill="#7FCCC6"/>
<path d="M84.0918 23.4375H68.75C68.3396 23.4376 67.9332 23.3569 67.554 23.1998C67.1748 23.0428 66.8303 22.8127 66.54 22.5225C66.2498 22.2323 66.0197 21.8877 65.8626 21.5085C65.7056 21.1293 65.6249 20.7229 65.625 20.3125V4.9707C65.9661 5.12447 66.2765 5.33888 66.541 5.60352L83.459 22.5215C83.7236 22.786 83.938 23.0964 84.0918 23.4375Z" fill="rgb(108, 117, 125)"/>
<path d="M53.1249 28.125C53.1251 31.4251 51.9648 34.6202 49.8469 37.1511C47.7291 39.682 44.7887 41.3875 41.5402 41.9691C38.2918 42.5508 34.9423 41.9715 32.0779 40.3327C29.2134 38.6939 27.0165 36.1 25.8716 33.0049C24.7267 29.9098 24.7068 26.5106 25.8152 23.4022C26.9237 20.2939 29.0899 17.6743 31.9349 16.002C34.7799 14.3296 38.1224 13.7111 41.3774 14.2545C44.6324 14.798 47.5927 16.4688 49.7401 18.9746C51.9297 21.5199 53.1311 24.7676 53.1249 28.125Z" fill="#7FCCC6"/>
<path d="M53.125 28.125C53.1286 30.309 52.6209 32.4634 51.6426 34.416L39.0625 28.125V14.0625C42.792 14.0627 46.3688 15.5444 49.0059 18.1816C51.6431 20.8187 53.1248 24.3955 53.125 28.125Z" fill="white"/>
<path d="M53.125 28.125C53.1286 30.309 52.6209 32.4635 51.6426 34.416L39.0625 28.125L49.7402 18.9746C51.9286 21.5206 53.1297 24.7678 53.125 28.125Z" fill="white"/>
<path d="M26.5625 49H46.875V55.25H26.5625V49Z" fill="white"/>
<path d="M26.5625 56.25H57.8125V62.5H26.5625V56.25Z" fill="white"/>
<path d="M26.5625 63.5H73.4375V69.75H26.5625V63.5Z" fill="white"/>
<path d="M25 45.3125H28.125V73.4375H25V45.3125Z" fill="#7FCCC6"/>
<path d="M25 78.125H32.8125V81.25H25V78.125Z" fill="#7FCCC6"/>
<path d="M35.9375 78.125H56.25V81.25H35.9375V78.125Z" fill="#7FCCC6"/>
<path d="M25 84.375H37.5V87.5H25V84.375Z" fill="#7FCCC6"/>
<path d="M40.625 84.375H51.5625V87.5H40.625V84.375Z" fill="#7FCCC6"/>
<path d="M59.375 78.125H68.75V81.25H59.375V78.125Z" fill="#7FCCC6"/>
</g>
<defs>
<filter id="filter0_d" x="-2" y="-2" width="108" height="108" filterUnits="userSpaceOnUse" color-interpolation-filters="sRGB">
<feFlood flood-opacity="0" result="BackgroundImageFix"/>
<feColorMatrix in="SourceAlpha" type="matrix" values="0 0 0 0 0 0 0 0 0 0 0 0 0 0 0 0 0 0 127 0"/>
<feOffset dx="2" dy="2"/>
<feGaussianBlur stdDeviation="2"/>
<feColorMatrix type="matrix" values="0 0 0 0 0 0 0 0 0 0 0 0 0 0 0 0 0 0 0.25 0"/>
<feBlend mode="normal" in2="BackgroundImageFix" result="effect1_dropShadow"/>
<feBlend mode="normal" in="SourceGraphic" in2="effect1_dropShadow" result="shape"/>
</filter>
</defs>
</svg>
