<svg width="55" height="63" viewBox="0 0 55 63" fill="none" xmlns="http://www.w3.org/2000/svg">
<g clip-path="url(#clip0_1735_13632)">
<g clip-path="url(#clip1_1735_13632)">
<g clip-path="url(#clip2_1735_13632)">
<path d="M25.7454 28.2575C25.9598 27.8522 26.3162 27.5828 26.8146 27.4493C27.3131 27.3157 27.7375 27.3697 28.0879 27.6112C28.45 27.8496 28.7307 28.2714 28.9301 28.8764L25.5745 29.7755C25.4709 29.1572 25.5279 28.6513 25.7454 28.2575Z" fill="#6C757D"/>
<path fill-rule="evenodd" clip-rule="evenodd" d="M30.1994 1.14284C28.6442 -0.380947 26.1559 -0.380947 24.6006 1.14284L22.8562 2.85198C21.8563 3.83171 20.4169 4.21739 19.0611 3.86889L16.6958 3.26094C14.587 2.71891 12.4321 3.96308 11.8471 6.06033L11.191 8.4127C10.8148 9.76115 9.76115 10.8148 8.4127 11.191L6.06033 11.8471C3.96309 12.4321 2.71891 14.587 3.26094 16.6958L3.86889 19.0611C4.21739 20.4169 3.83171 21.8563 2.85198 22.8562L1.14284 24.6006C-0.380947 26.1559 -0.380947 28.6442 1.14284 30.1994L2.85198 31.9438C3.83171 32.9438 4.21739 34.3832 3.86889 35.739L3.26094 38.1043C2.71891 40.213 3.96308 42.368 6.06033 42.953L8.4127 43.6091C9.76115 43.9852 10.8148 45.0389 11.191 46.3874L11.8471 48.7397C12.4321 50.837 14.587 52.0812 16.6958 51.5391L19.0611 50.9312C20.4169 50.5827 21.8563 50.9684 22.8562 51.9481L24.6006 53.6572C26.1559 55.181 28.6442 55.181 30.1994 53.6572L31.9438 51.9481C32.9438 50.9684 34.3832 50.5827 35.739 50.9312L38.1043 51.5391C40.213 52.0812 42.368 50.837 42.953 48.7397L43.6091 46.3874C43.9852 45.0389 45.0389 43.9852 46.3874 43.6091L48.7397 42.953C50.837 42.368 52.0812 40.213 51.5391 38.1043L50.9312 35.739C50.5827 34.3832 50.9684 32.9438 51.9481 31.9438L53.6572 30.1994C55.181 28.6442 55.181 26.1559 53.6572 24.6006L51.9481 22.8562C50.9684 21.8563 50.5827 20.4169 50.9312 19.0611L51.5391 16.6958C52.0812 14.587 50.837 12.4321 48.7397 11.8471L46.3874 11.191C45.0389 10.8148 43.9852 9.76115 43.6091 8.4127L42.953 6.06033C42.368 3.96309 40.213 2.71891 38.1043 3.26094L35.739 3.86889C34.3832 4.21739 32.9438 3.83171 31.9438 2.85198L30.1994 1.14284ZM19.0187 24.1527C18.7186 23.9598 18.3772 23.9146 17.9947 24.0171C17.6238 24.1165 17.3566 24.3247 17.1931 24.6419C17.0265 24.9474 16.996 25.2972 17.1016 25.6913L18.8486 32.2113L11.0395 26.3653C10.7269 26.126 10.3562 26.0638 9.92732 26.1788C9.54481 26.2812 9.26602 26.4926 9.09093 26.8128C8.92433 27.1184 8.89383 27.4682 8.99943 27.8623L11.613 37.6162C11.7217 38.0219 11.9261 38.3212 12.2263 38.5141C12.5233 38.6954 12.8631 38.7348 13.2456 38.6323C13.6281 38.5298 13.8969 38.3273 14.0519 38.0249C14.2154 37.7078 14.2428 37.3464 14.1341 36.9407L12.3777 30.3859L20.2008 36.2841C20.5366 36.5171 20.9131 36.5778 21.3304 36.466C21.7129 36.3635 21.9875 36.1594 22.1541 35.8539C22.3291 35.5337 22.3623 35.1707 22.2536 34.765L19.6401 25.0111C19.5345 24.617 19.3274 24.3309 19.0187 24.1527ZM31.6148 31.1759C31.426 31.0277 31.2157 30.9847 30.9839 31.0468C30.868 31.0778 30.7425 31.1425 30.6073 31.2409C30.469 31.3276 30.3281 31.4275 30.1844 31.5405C29.8972 31.7666 29.6311 31.9559 29.3862 32.1085C29.1414 32.261 28.8509 32.3824 28.5147 32.4724C27.8888 32.6401 27.3674 32.6183 26.9505 32.407C26.5305 32.1842 26.1883 31.7416 25.924 31.0795L30.7922 29.7751C31.0125 29.7161 31.1634 29.6073 31.2452 29.4487C31.3354 29.2754 31.3464 29.0613 31.278 28.8063C31.0513 27.9602 30.6918 27.2676 30.1996 26.7287C29.7042 26.1781 29.1159 25.814 28.4347 25.6362C27.7619 25.4438 27.0373 25.4516 26.2607 25.6597C25.4493 25.8771 24.7761 26.2625 24.2411 26.8158C23.703 27.3575 23.3443 28.0127 23.1651 28.7812C22.9859 29.5498 23.0128 30.3688 23.2457 31.2381C23.488 32.1422 23.8847 32.8807 24.4357 33.4536C24.9837 34.0149 25.6477 34.3836 26.4279 34.5597C27.2196 34.7327 28.0791 34.6949 29.0064 34.4464C29.4469 34.3284 29.9108 34.1358 30.3983 33.8685C30.8826 33.5897 31.2939 33.2931 31.632 32.9789C31.8096 32.8071 31.9346 32.6245 32.0071 32.4311C32.0764 32.2262 32.0846 32.0252 32.0318 31.8282C31.9542 31.5384 31.8152 31.321 31.6148 31.1759ZM43.5463 21.2889C43.395 21.4661 43.2998 21.6904 43.2607 21.9617L42.6709 27.1326L39.4971 23.0075C39.3245 22.7804 39.1168 22.6311 38.8739 22.5595C38.6311 22.4879 38.388 22.4847 38.1446 22.5499C37.9012 22.6152 37.6938 22.7453 37.5224 22.9403C37.3596 23.1206 37.2586 23.3464 37.2195 23.6178L36.5682 28.7678L33.4546 24.5893C33.2851 24.3738 33.0847 24.2287 32.8535 24.154C32.6339 24.0762 32.4082 24.0684 32.1763 24.1305C31.8286 24.2237 31.5451 24.4176 31.326 24.7124C31.1184 25.0041 31.0581 25.3122 31.145 25.6367C31.1854 25.7874 31.2621 25.9346 31.3751 26.0782L35.9236 31.7171C36.0962 31.9442 36.3171 32.0962 36.5862 32.1732C36.8522 32.2386 37.1185 32.2355 37.3851 32.1641C37.6633 32.0896 37.8954 31.959 38.0815 31.7725C38.2644 31.5744 38.3739 31.3339 38.4099 31.0509L39.0407 26.2418L42.0611 30.0726C42.2337 30.2997 42.4488 30.4532 42.7063 30.5333C42.9723 30.5987 43.2386 30.5957 43.5052 30.5242C43.7602 30.4559 43.9865 30.3269 44.1842 30.1373C44.3787 29.9361 44.494 29.694 44.53 29.4111L45.667 22.2487C45.6899 22.0562 45.6828 21.8904 45.6455 21.7513C45.5586 21.4268 45.3581 21.1886 45.0441 21.0367C44.73 20.8848 44.4108 20.8523 44.0862 20.9393C43.8776 20.9952 43.6976 21.1117 43.5463 21.2889Z" fill="#6C757D"/>
<path d="M38.3984 62.3994C46.6827 62.3994 53.3984 55.6837 53.3984 47.3994C53.3984 39.1151 46.6827 32.3994 38.3984 32.3994C30.1142 32.3994 23.3984 39.1151 23.3984 47.3994C23.3984 55.6837 30.1142 62.3994 38.3984 62.3994Z" fill="#FAFBFE"/>
<path d="M31.6484 45.8217L36.958 51.5172L45.6333 42.8994" stroke="#7876F2" stroke-width="4" stroke-linecap="round" stroke-linejoin="round"/>
</g>
</g>
</g>
<defs>
<clipPath id="clip0_1735_13632">
<rect width="55" height="63" fill="white"/>
</clipPath>
<clipPath id="clip1_1735_13632">
<rect width="55" height="63" fill="white"/>
</clipPath>
<clipPath id="clip2_1735_13632">
<rect width="55" height="63" fill="white"/>
</clipPath>
</defs>
</svg>
