<svg width="386" height="310" viewBox="0 0 386 310" fill="none" xmlns="http://www.w3.org/2000/svg">
<path d="M0 5.99999C0 2.68628 2.68629 0 6 0H380C383.314 0 386 2.68629 386 6V300.709C236.5 312.757 152 313.259 0 301.211V5.99999Z" fill="white"/>
<g clip-path="url(#clip0)">
<path d="M312.18 306L306.388 277.524C303.328 265.008 294.05 254.943 281.824 250.875L234.524 235.115C222.989 230.31 217.711 211.734 216.571 204.682C225.36 197.373 231.016 186.975 232.374 175.625C232.18 173.686 232.637 171.738 233.674 170.088C235.35 169.669 236.722 168.468 237.361 166.863C240.456 159.369 242.399 151.45 243.124 143.375C243.125 142.936 243.071 142.499 242.962 142.074C242.192 138.936 240.347 136.167 237.748 134.248V105.75C237.748 88.4314 232.459 81.3258 226.891 77.2084C225.827 68.8667 216.894 52 183.999 52C154.814 53.1751 131.424 76.5654 130.249 105.75V134.249C127.65 136.168 125.805 138.937 125.035 142.075C124.926 142.5 124.872 142.937 124.874 143.375C125.598 151.454 127.54 159.377 130.636 166.875C131.102 168.394 132.323 169.563 133.861 169.96C134.463 170.261 135.592 171.82 135.592 175.626C136.958 187.008 142.646 197.43 151.481 204.737C150.352 211.778 145.106 230.344 133.894 235.03L86.1744 250.876C73.9582 254.943 64.6863 264.998 61.6216 277.504L55.5587 305.232C55.1152 305.231 55.9885 305.341 55.5587 305.232C55.5587 305.232 135.655 312.5 184 312.5C232.345 312.5 312.18 306 312.18 306Z" fill="#EEF2F7"/>
<path d="M256 242.5L228.5 232C228.5 232 213.396 261.366 200 280C197.838 283.007 195.73 285.735 193.753 288.014L173.5 314V349L243 319.5C235.4 302.3 245.833 257.667 256 242.5Z" fill="#B3B4F5"/>
<path d="M184.5 295C170.899 295 139 232 139 232L114.5 242.5C124.833 260.667 135.7 309.5 130.5 319.5L173.5 349V314L193.753 288.014C190.038 292.299 186.784 295 184.5 295Z" fill="#B3B4F5"/>
<path d="M200 280C213.396 261.366 228.5 232 228.5 232L256 242.5C245.833 257.667 235.4 302.3 243 319.5L173.5 349M200 280C197.838 283.007 195.73 285.735 193.753 288.014M200 280L193.753 288.014M173.5 349V314L193.753 288.014M173.5 349L130.5 319.5C135.7 309.5 124.833 260.667 114.5 242.5L139 232C139 232 170.899 295 184.5 295C186.784 295 190.038 292.299 193.753 288.014" stroke="#B3B4F5" stroke-width="2"/>
<circle r="1.5" transform="matrix(-1 0 0 1 184.5 260.5)" fill="#B3B4F5"/>
<circle r="1.5" transform="matrix(-1 0 0 1 184.5 273.5)" fill="#B3B4F5"/>
<circle r="1.5" transform="matrix(-1 0 0 1 184.5 286.5)" fill="#B3B4F5"/>
<g clip-path="url(#clip1)">
<path d="M162 247.5V227L184.5 238L162 247.5Z" fill="#B3B4F5"/>
<path d="M207 247.5V227L184.5 238L207 247.5Z" fill="#B3B4F5"/>
<rect x="180.5" y="235" width="7" height="6" fill="#B3B4F5" stroke="#EEF2F7"/>
</g>
</g>
<defs>
<clipPath id="clip0">
<rect width="258" height="258" fill="white" transform="translate(55 52)"/>
</clipPath>
<clipPath id="clip1">
<rect width="83" height="21" fill="white" transform="translate(143 226)"/>
</clipPath>
</defs>
</svg>
