<svg width="70" height="70" viewBox="0 0 70 70" fill="none" xmlns="http://www.w3.org/2000/svg">
<g clip-path="url(#clip0_329_16826)">
<g clip-path="url(#clip1_329_16826)">
<mask id="mask0_329_16826" style="mask-type:luminance" maskUnits="userSpaceOnUse" x="0" y="0" width="70" height="70">
<path d="M70 0H0V70H70V0Z" fill="white"/>
</mask>
<g mask="url(#mask0_329_16826)">
<path d="M54.05 37.0977H49.2551C49.7439 38.4358 50.0109 39.8798 50.0109 41.3849V59.5068C50.0109 60.1343 49.9017 60.7366 49.7029 61.2968H57.6299C60.5911 61.2968 63 58.8877 63 55.9267V46.0477C63.0001 41.1127 58.9851 37.0977 54.05 37.0977Z" fill="#6C757D"/>
<path d="M13.9891 41.3849C13.9891 39.8797 14.2561 38.4358 14.7448 37.0977H9.94989C5.01478 37.0977 0.999756 41.1127 0.999756 46.0478V55.9268C0.999756 58.8879 3.4087 61.2969 6.36984 61.2969H14.297C14.0983 60.7365 13.9891 60.1343 13.9891 59.5068V41.3849Z" fill="#6C757D"/>
<path d="M37.481 32.4336H26.5192C21.5841 32.4336 17.5691 36.4486 17.5691 41.3837V59.5056C17.5691 60.4941 18.3705 61.2956 19.3591 61.2956H44.6411C45.6297 61.2956 46.4311 60.4942 46.4311 59.5056V41.3837C46.4311 36.4486 42.4161 32.4336 37.481 32.4336Z" fill="#6C757D"/>
<path d="M32.0005 8.70312C26.0654 8.70312 21.2368 13.5317 21.2368 19.4669C21.2368 23.4927 23.4588 27.0087 26.7402 28.8547C28.2967 29.7302 30.091 30.2306 32.0005 30.2306C33.9099 30.2306 35.7043 29.7302 37.2607 28.8547C40.5423 27.0087 42.7641 23.4926 42.7641 19.4669C42.7641 13.5318 37.9356 8.70312 32.0005 8.70312Z" fill="#6C757D"/>
<path d="M13.0993 18.7344C8.66061 18.7344 5.04956 22.3454 5.04956 26.7842C5.04956 31.2229 8.66061 34.834 13.0993 34.834C14.2253 34.834 15.2974 34.6007 16.2714 34.1815C17.9554 33.4565 19.3438 32.1731 20.203 30.5656C20.8061 29.4374 21.1491 28.1502 21.1491 26.7842C21.1491 22.3456 17.5381 18.7344 13.0993 18.7344Z" fill="#6C757D"/>
<path d="M50.9008 18.7344C46.4621 18.7344 42.8511 22.3454 42.8511 26.7842C42.8511 28.1504 43.1941 29.4375 43.7972 30.5656C44.6563 32.1733 46.0448 33.4566 47.7288 34.1815C48.7027 34.6007 49.7749 34.834 50.9008 34.834C55.3396 34.834 58.9506 31.2229 58.9506 26.7842C58.9506 22.3454 55.3396 18.7344 50.9008 18.7344Z" fill="#6C757D"/>
<path d="M55 67C63.2843 67 70 60.2843 70 52C70 43.7157 63.2843 37 55 37C46.7157 37 40 43.7157 40 52C40 60.2843 46.7157 67 55 67Z" fill="#FAFBFE"/>
<path d="M48.2498 50.4223L53.5594 56.1178L62.2347 47.5" stroke="#7876F2" stroke-width="4" stroke-linecap="round" stroke-linejoin="round"/>
</g>
</g>
</g>
<defs>
<clipPath id="clip0_329_16826">
<rect width="70" height="70" fill="white"/>
</clipPath>
<clipPath id="clip1_329_16826">
<rect width="70" height="70" fill="white"/>
</clipPath>
</defs>
</svg>
