<svg width="393" height="377" viewBox="0 0 393 377" fill="none" xmlns="http://www.w3.org/2000/svg">
<g clip-path="url(#clip0_329_16246)">
<g clip-path="url(#clip1_329_16246)">
<path d="M59.9752 125.179H11.9877C5.37868 125.179 0.00183105 120.005 0.00183105 113.645C0.00183105 111.528 0.606738 109.453 1.7512 107.645L25.6348 69.9113C27.8186 66.4611 31.7832 64.3176 35.9814 64.3176C40.1797 64.3176 44.1443 66.4611 46.3281 69.9113L70.2116 107.645C71.3561 109.453 71.961 111.528 71.961 113.645C71.961 120.005 66.5841 125.179 59.9752 125.179Z" fill="#4A5EA3"/>
<path d="M70.2109 107.645L46.3273 69.9113C44.1435 66.4611 40.1789 64.3176 35.9807 64.3176V125.179H59.9744C66.5835 125.179 71.9603 120.005 71.9603 113.645C71.9603 111.528 71.3554 109.453 70.2109 107.645Z" fill="#4A5EA3"/>
<path d="M35.9825 68.375C33.2453 68.375 30.6606 69.7724 29.2367 72.0219L5.35316 109.756C4.61136 110.928 4.21924 112.272 4.21924 113.645C4.21924 117.767 7.70462 121.121 11.9888 121.121H59.9762C64.2603 121.121 67.7457 117.767 67.7457 113.645C67.7457 112.273 67.3536 110.928 66.6118 109.756L42.7282 72.0219C41.3044 69.7724 38.7198 68.375 35.9825 68.375Z" fill="#2C4A73"/>
<path d="M16.3015 120.804C19.4064 120.804 21.9233 118.382 21.9233 115.394C21.9233 112.406 19.4064 109.984 16.3015 109.984C13.1967 109.984 10.6797 112.406 10.6797 115.394C10.6797 118.382 13.1967 120.804 16.3015 120.804Z" fill="#7876F2"/>
<path d="M38.6241 120.804C41.7289 120.804 44.2459 118.382 44.2459 115.394C44.2459 112.406 41.7289 109.984 38.6241 109.984C35.5193 109.984 33.0023 112.406 33.0023 115.394C33.0023 118.382 35.5193 120.804 38.6241 120.804Z" fill="#6C757D"/>
<path d="M49.8671 120.804C52.9719 120.804 55.4889 118.382 55.4889 115.394C55.4889 112.406 52.9719 109.984 49.8671 109.984C46.7622 109.984 44.2452 112.406 44.2452 115.394C44.2452 118.382 46.7622 120.804 49.8671 120.804Z" fill="#7FCCC6"/>
<path d="M61.1099 120.804C64.2148 120.804 66.7318 118.382 66.7318 115.394C66.7318 112.406 64.2148 109.984 61.1099 109.984C58.0051 109.984 55.4882 112.406 55.4882 115.394C55.4882 118.382 58.0051 120.804 61.1099 120.804Z" fill="#FA5C7C"/>
<path d="M27.4424 121.01C30.5473 121.01 33.0643 118.587 33.0643 115.599C33.0643 112.612 30.5473 110.19 27.4424 110.19C24.3376 110.19 21.8207 112.612 21.8207 115.599C21.8207 118.587 24.3376 121.01 27.4424 121.01Z" fill="#7FCCC6"/>
<path d="M44.2439 111.431C47.3488 111.431 49.8657 109.009 49.8657 106.021C49.8657 103.034 47.3488 100.611 44.2439 100.611C41.1391 100.611 38.6221 103.034 38.6221 106.021C38.6221 109.009 41.1391 111.431 44.2439 111.431Z" fill="#FA5C7C"/>
<path d="M44.2452 100.611C47.3501 100.611 49.8671 103.034 49.8671 106.021C49.8671 109.009 47.3501 111.431 44.2452 111.431V100.611Z" fill="#FA5C7C"/>
<path d="M55.4869 111.431C58.5917 111.431 61.1087 109.009 61.1087 106.021C61.1087 103.034 58.5917 100.611 55.4869 100.611C52.382 100.611 49.8651 103.034 49.8651 106.021C49.8651 109.009 52.382 111.431 55.4869 111.431Z" fill="#7876F2"/>
<path d="M21.8737 111.627C24.9785 111.627 27.4955 109.205 27.4955 106.217C27.4955 103.229 24.9785 100.807 21.8737 100.807C18.7688 100.807 16.2518 103.229 16.2518 106.217C16.2518 109.205 18.7688 111.627 21.8737 111.627Z" fill="#FA5C7C"/>
<path d="M49.8671 102.059C52.9719 102.059 55.4889 99.6363 55.4889 96.6484C55.4889 93.6612 52.9719 91.2388 49.8671 91.2388C46.7622 91.2388 44.2452 93.6612 44.2452 96.6484C44.2452 99.6363 46.7622 102.059 49.8671 102.059Z" fill="#7FCCC6"/>
<path d="M33.0145 111.627C36.1193 111.627 38.6363 109.205 38.6363 106.217C38.6363 103.229 36.1193 100.807 33.0145 100.807C29.9097 100.807 27.3927 103.229 27.3927 106.217C27.3927 109.205 29.9097 111.627 33.0145 111.627Z" fill="#7876F2"/>
<path d="M33.0159 100.807C36.1207 100.807 38.6377 103.229 38.6377 106.217C38.6377 109.205 36.1207 111.627 33.0159 111.627V100.807Z" fill="#7876F2"/>
<path d="M159.25 62.9375H293.066C297.885 62.9375 302.505 64.8519 305.913 68.2593C309.322 71.6666 311.235 76.2882 311.235 81.1069V329.462C311.235 334.282 309.322 338.901 305.913 342.31C302.505 345.719 297.885 347.631 293.066 347.631H156.475C153.975 347.631 151.577 346.639 149.809 344.87C148.042 343.101 147.049 340.706 147.049 338.204V75.1249C147.05 73.5233 147.366 71.9377 147.978 70.4585C148.593 68.9794 149.491 67.6355 150.625 66.5039C151.758 65.3718 153.102 64.4743 154.583 63.8627C156.062 63.2507 157.648 62.9361 159.25 62.9375Z" fill="#3F4249"/>
<path opacity="0.3" d="M159.25 62.9375H293.066C297.885 62.9375 302.505 64.8519 305.913 68.2593C309.322 71.6666 311.235 76.2882 311.235 81.1069V329.462C311.235 334.282 309.322 338.901 305.913 342.31C302.505 345.719 297.885 347.631 293.066 347.631H158.7C155.61 347.631 152.647 346.402 150.461 344.218C148.276 342.033 147.049 339.071 147.049 335.98V75.1249C147.05 73.5233 147.366 71.9377 147.978 70.4585C148.593 68.9794 149.491 67.6355 150.625 66.5039C151.758 65.3718 153.102 64.4743 154.583 63.8627C156.062 63.2507 157.648 62.9361 159.25 62.9375Z" fill="black"/>
<path d="M298.183 67.6228H144.108V339.285H298.183V67.6228Z" fill="white"/>
<path d="M215.094 178.185C228.417 178.185 239.218 167.384 239.218 154.061C239.218 140.737 228.417 129.936 215.094 129.936C201.77 129.936 190.969 140.737 190.969 154.061C190.969 167.384 201.77 178.185 215.094 178.185Z" fill="#EEF2F7"/>
<path d="M196.554 169.25C200.658 161.793 208.171 159.645 215.095 159.645C222.02 159.645 229.531 161.793 233.635 169.25C233.635 169.25 228.721 178.407 215.095 178.407C201.469 178.407 196.554 169.25 196.554 169.25Z" fill="#6C757D"/>
<path d="M214.871 156.738C218.696 156.738 221.796 153.638 221.796 149.814C221.796 145.989 218.696 142.889 214.871 142.889C211.047 142.889 207.947 145.989 207.947 149.814C207.947 153.638 211.047 156.738 214.871 156.738Z" fill="#6C757D"/>
<path d="M193.292 190.247H161.842C159.917 190.247 158.357 191.807 158.357 193.732V196.143C158.357 198.068 159.917 199.629 161.842 199.629H193.292C195.217 199.629 196.777 198.068 196.777 196.143V193.732C196.777 191.807 195.217 190.247 193.292 190.247Z" fill="#B9B8F9"/>
<path d="M193.292 226.881H161.842C159.917 226.881 158.357 228.441 158.357 230.366V232.777C158.357 234.702 159.917 236.263 161.842 236.263H193.292C195.217 236.263 196.777 234.702 196.777 232.777V230.366C196.777 228.441 195.217 226.881 193.292 226.881Z" fill="#B9B8F9"/>
<path d="M266.56 206.33H161.842C159.917 206.33 158.357 207.891 158.357 209.816V212.226C158.357 214.151 159.917 215.712 161.842 215.712H266.56C268.485 215.712 270.045 214.151 270.045 212.226V209.816C270.045 207.891 268.485 206.33 266.56 206.33Z" fill="#7876F2"/>
<path d="M266.56 242.964H161.842C159.917 242.964 158.357 244.525 158.357 246.45V248.86C158.357 250.785 159.917 252.346 161.842 252.346H266.56C268.485 252.346 270.045 250.785 270.045 248.86V246.45C270.045 244.525 268.485 242.964 266.56 242.964Z" fill="#7876F2"/>
<path d="M204.461 263.515H161.842C159.917 263.515 158.357 265.075 158.357 267V277.453C158.357 279.378 159.917 280.938 161.842 280.938H204.461C206.386 280.938 207.946 279.378 207.946 277.453V267C207.946 265.075 206.386 263.515 204.461 263.515Z" fill="#7FCCC6"/>
<path d="M295.236 68.9094H146.021V106.884H295.236V68.9094Z" fill="#7876F2"/>
<path d="M228.887 323.255C227.261 323.27 225.675 323.768 224.33 324.683C222.985 325.599 221.941 326.892 221.329 328.399C220.718 329.907 220.567 331.562 220.894 333.155C221.221 334.749 222.013 336.211 223.17 337.356C224.326 338.5 225.795 339.276 227.392 339.587C228.989 339.898 230.642 339.73 232.143 339.104C233.645 338.476 234.927 337.419 235.829 336.065C236.73 334.711 237.211 333.12 237.21 331.493C237.205 330.405 236.986 329.33 236.565 328.327C236.144 327.324 235.529 326.414 234.756 325.649C233.983 324.884 233.067 324.28 232.06 323.868C231.053 323.457 229.975 323.249 228.887 323.255Z" fill="white"/>
<path d="M295.223 313.284H146.007V339.643H295.223V313.284Z" fill="#7876F2"/>
<path d="M283.676 337.891H157.58C151.227 337.891 146.081 332.977 146.081 326.932V82.8305C146.081 76.7815 151.231 71.8716 157.585 71.8716H180.283C181.611 71.8525 182.909 72.2518 183.996 73.0131C185.082 73.7739 185.902 74.8581 186.337 76.1113L187.378 79.2743C187.813 80.5279 188.633 81.6126 189.72 82.3744C190.805 83.1361 192.105 83.5364 193.432 83.5185H247.847C249.173 83.5377 250.471 83.1383 251.559 82.377C252.645 81.6162 253.464 80.5319 253.9 79.2788L254.941 76.1158C255.376 74.8627 256.195 73.7784 257.282 73.0176C258.369 72.2563 259.668 71.8569 260.994 71.8761H283.694C290.047 71.8761 295.197 76.7903 295.193 82.8349V326.936C295.179 332.986 290.029 337.891 283.676 337.891ZM138.553 78.2691V331.904C138.553 336.023 140.188 339.972 143.101 342.885C146.013 345.798 149.963 347.433 154.082 347.433H287.214C291.333 347.433 295.282 345.798 298.195 342.885C301.108 339.972 302.747 336.023 302.747 331.904V78.2691C302.747 74.1505 301.112 70.2007 298.199 67.2884C295.286 64.376 291.338 62.74 287.219 62.74H154.086C152.046 62.7396 150.026 63.1407 148.142 63.9207C146.257 64.7008 144.545 65.8445 143.102 67.2866C141.66 68.7287 140.516 70.4411 139.735 72.3255C138.954 74.2095 138.553 76.2293 138.553 78.2691Z" fill="#3F4249"/>
<path d="M281.612 94.8838H271.385C271.32 94.8838 271.258 94.8577 271.212 94.8123C271.166 94.7662 271.14 94.7034 271.14 94.6381C271.14 94.6058 271.145 94.5736 271.157 94.544C271.17 94.5135 271.188 94.4864 271.21 94.4629C271.234 94.4403 271.261 94.422 271.291 94.4098C271.321 94.3976 271.353 94.3923 271.385 94.3923H281.629C281.663 94.3923 281.694 94.3984 281.724 94.4115C281.754 94.4237 281.781 94.442 281.804 94.4647C281.826 94.4873 281.845 94.5143 281.857 94.5448C281.869 94.5736 281.875 94.6058 281.875 94.6381C281.875 94.6721 281.869 94.706 281.855 94.7365C281.842 94.7679 281.822 94.7958 281.798 94.8184C281.772 94.842 281.744 94.8594 281.711 94.8707C281.68 94.8821 281.646 94.8864 281.612 94.8838Z" fill="white"/>
<path d="M281.612 98.2465H271.386C271.353 98.2474 271.321 98.2412 271.291 98.229C271.262 98.2168 271.234 98.1986 271.211 98.1759C271.188 98.1532 271.169 98.1254 271.158 98.0957C271.146 98.0661 271.14 98.0339 271.141 98.0007C271.139 97.9676 271.143 97.9345 271.155 97.9031C271.167 97.8718 271.184 97.843 271.208 97.8186C271.23 97.7942 271.258 97.7751 271.289 97.762C271.319 97.7489 271.352 97.7419 271.386 97.7419H281.63C281.695 97.7419 281.758 97.7681 281.804 97.8143C281.85 97.8596 281.876 97.9223 281.876 97.9877C281.878 98.0225 281.873 98.0574 281.86 98.0905C281.847 98.1227 281.827 98.1524 281.803 98.1768C281.778 98.202 281.748 98.2203 281.715 98.2325C281.683 98.2447 281.647 98.2491 281.612 98.2465Z" fill="white"/>
<path d="M281.612 101.617H271.385C271.32 101.617 271.258 101.591 271.212 101.545C271.166 101.499 271.14 101.437 271.14 101.371C271.14 101.338 271.145 101.306 271.157 101.276C271.17 101.246 271.188 101.219 271.21 101.196C271.234 101.173 271.261 101.155 271.291 101.143C271.321 101.131 271.353 101.125 271.385 101.126H281.629C281.695 101.126 281.758 101.152 281.804 101.197C281.85 101.243 281.875 101.306 281.875 101.371C281.875 101.405 281.869 101.438 281.855 101.47C281.842 101.5 281.822 101.528 281.798 101.552C281.772 101.574 281.744 101.593 281.711 101.603C281.68 101.614 281.646 101.619 281.612 101.617Z" fill="white"/>
<path d="M163.293 93.1104L159.42 96.4879C159.358 96.5437 159.307 96.6125 159.274 96.6901C159.241 96.7667 159.225 96.8504 159.228 96.9349V102.657C159.229 102.757 159.269 102.852 159.34 102.921C159.409 102.992 159.504 103.031 159.604 103.033H161.931C162.03 103.033 162.126 102.994 162.198 102.923C162.268 102.853 162.309 102.758 162.31 102.657V99.6554C162.31 99.5552 162.35 99.4593 162.42 99.3879C162.491 99.3173 162.586 99.2772 162.686 99.2755H164.665C164.765 99.2772 164.86 99.3173 164.93 99.3879C165.001 99.4593 165.04 99.5552 165.04 99.6554V102.657C165.041 102.758 165.082 102.853 165.153 102.923C165.224 102.994 165.32 103.033 165.42 103.033H167.739C167.837 103.031 167.932 102.992 168.003 102.921C168.073 102.852 168.113 102.757 168.114 102.657V96.9166C168.114 96.8365 168.096 96.7572 168.063 96.684C168.03 96.6108 167.982 96.5454 167.922 96.4923L164.049 93.1104C163.943 93.0198 163.81 92.9692 163.671 92.9692C163.532 92.9692 163.398 93.0198 163.293 93.1104Z" stroke="white" stroke-width="1.60336" stroke-miterlimit="10"/>
<path d="M174.99 322.013H165.662C165.599 321.996 165.544 321.96 165.504 321.906C165.465 321.853 165.443 321.79 165.443 321.723C165.443 321.66 165.465 321.597 165.504 321.544C165.544 321.49 165.599 321.454 165.662 321.437H174.99C175.053 321.454 175.108 321.49 175.148 321.544C175.187 321.597 175.209 321.66 175.209 321.723C175.209 321.79 175.187 321.853 175.148 321.906C175.108 321.96 175.053 321.996 174.99 322.013Z" fill="white" stroke="white" stroke-width="0.392125" stroke-miterlimit="10"/>
<path d="M174.99 325.141H165.662C165.599 325.124 165.544 325.088 165.504 325.034C165.465 324.981 165.443 324.918 165.443 324.851C165.443 324.789 165.465 324.726 165.504 324.673C165.544 324.619 165.599 324.583 165.662 324.565H174.99C175.053 324.583 175.108 324.619 175.148 324.673C175.187 324.726 175.209 324.789 175.209 324.851C175.209 324.918 175.187 324.981 175.148 325.034C175.108 325.088 175.053 325.124 174.99 325.141Z" fill="white" stroke="white" stroke-width="0.392125" stroke-miterlimit="10"/>
<path d="M174.991 328.269H165.663C165.598 328.251 165.541 328.216 165.499 328.162C165.459 328.108 165.437 328.046 165.437 327.979C165.437 327.912 165.459 327.849 165.499 327.796C165.541 327.742 165.598 327.706 165.663 327.688H174.991C175.054 327.706 175.109 327.742 175.148 327.796C175.188 327.849 175.209 327.912 175.209 327.974C175.209 328.041 175.188 328.104 175.148 328.157C175.109 328.211 175.054 328.247 174.991 328.264V328.269Z" fill="white" stroke="white" stroke-width="0.392125" stroke-miterlimit="10"/>
<path d="M270.767 321.035L275.788 324.453L270.762 328.675" stroke="white" stroke-width="1.5685" stroke-miterlimit="10" stroke-linecap="round"/>
<path d="M224.236 323.241L224.232 329.273H216.195V323.241" stroke="white" stroke-width="1.5685" stroke-miterlimit="10" stroke-linecap="round"/>
<path d="M214.987 324.047L220.213 320.433L225.436 324.047" stroke="white" stroke-width="1.5685" stroke-miterlimit="10" stroke-linecap="round"/>
<path d="M267.605 78.1663C267.508 78.2691 267.405 78.3674 267.302 78.4701L267.128 78.6444C266.74 78.2557 266.28 77.947 265.773 77.7366C265.265 77.5257 264.721 77.4176 264.172 77.4176C263.623 77.4176 263.079 77.5257 262.572 77.7366C262.065 77.947 261.605 78.2557 261.217 78.6444L261.052 78.4701C260.949 78.3674 260.846 78.2691 260.748 78.1663H260.77C260.9 78.0546 261.025 77.934 261.159 77.8223C261.436 77.5998 261.735 77.4082 262.053 77.2505C262.429 77.0655 262.829 76.9319 263.241 76.8529C263.438 76.8172 263.639 76.7993 263.835 76.7725H264.358L264.759 76.8037C265.133 76.8466 265.498 76.9351 265.85 77.0673C266.107 77.1585 266.353 77.2732 266.587 77.4114C266.838 77.5525 267.074 77.7169 267.293 77.9027C267.405 77.9966 267.507 78.0993 267.615 78.1932L267.605 78.1663Z" fill="white"/>
<path d="M262.187 79.6102L261.704 79.1277C262.233 78.5889 262.926 78.2418 263.675 78.1404C264.211 78.059 264.76 78.106 265.276 78.2766C265.791 78.4473 266.259 78.7377 266.641 79.1233L266.155 79.6057C265.627 79.0808 264.914 78.7864 264.17 78.7864C263.427 78.7864 262.713 79.0808 262.187 79.6057V79.6102Z" fill="white"/>
<path d="M265.669 80.0915L265.186 80.574C265.053 80.4395 264.894 80.3331 264.719 80.2612C264.544 80.1892 264.357 80.1526 264.168 80.154C263.979 80.1526 263.791 80.1898 263.617 80.2625C263.443 80.3358 263.285 80.4431 263.153 80.5784L262.672 80.0959C262.867 79.8976 263.1 79.7399 263.357 79.6322C263.614 79.5246 263.891 79.4687 264.169 79.4683C264.447 79.4678 264.724 79.5227 264.982 79.6295C265.239 79.7367 265.472 79.8935 265.669 80.0915Z" fill="white"/>
<path d="M264.609 81.0127C264.609 81.1311 264.562 81.245 264.479 81.3286C264.395 81.4126 264.281 81.4594 264.162 81.4594C264.045 81.4594 263.931 81.4126 263.847 81.3286C263.763 81.245 263.716 81.1311 263.716 81.0127C263.716 80.8943 263.763 80.7804 263.847 80.6968C263.931 80.6129 264.045 80.5659 264.162 80.5659C264.281 80.5659 264.395 80.6129 264.479 80.6968C264.562 80.7804 264.609 80.8943 264.609 81.0127Z" fill="white"/>
<path d="M157.287 79.0869C157.287 78.8367 157.362 78.5924 157.501 78.3847C157.64 78.1765 157.837 78.0148 158.068 77.9187C158.299 77.8231 158.554 77.7981 158.798 77.8468C159.043 77.8955 159.269 78.0161 159.446 78.1931C159.623 78.3699 159.743 78.5951 159.792 78.8403C159.841 79.0856 159.815 79.3398 159.72 79.5708C159.625 79.8018 159.462 79.9993 159.254 80.1382C159.046 80.2771 158.802 80.3513 158.552 80.3513C158.216 80.3513 157.895 80.2182 157.658 79.9809C157.421 79.7437 157.287 79.4221 157.287 79.0869Z" fill="white"/>
<path d="M161.27 79.0869C161.27 78.8367 161.344 78.592 161.483 78.3842C161.623 78.176 161.82 78.0138 162.051 77.9182C162.283 77.8226 162.537 77.798 162.783 77.8472C163.028 77.8963 163.253 78.0174 163.43 78.1943C163.607 78.3717 163.726 78.5973 163.774 78.843C163.823 79.0887 163.798 79.3429 163.701 79.5739C163.604 79.8048 163.442 80.0019 163.234 80.1403C163.025 80.2789 162.78 80.3522 162.53 80.3512C162.363 80.3512 162.2 80.3186 162.046 80.2547C161.894 80.1913 161.754 80.0979 161.638 79.9804C161.52 79.863 161.428 79.7235 161.365 79.5704C161.301 79.4171 161.269 79.2526 161.27 79.0869Z" fill="white"/>
<path d="M165.246 79.0869C165.246 78.8367 165.32 78.5924 165.458 78.3847C165.598 78.1765 165.795 78.0148 166.026 77.9187C166.258 77.8231 166.511 77.7981 166.757 77.8468C167.002 77.8955 167.227 78.0161 167.404 78.1931C167.581 78.3699 167.701 78.5951 167.75 78.8403C167.799 79.0856 167.774 79.3398 167.678 79.5708C167.582 79.8018 167.421 79.9993 167.213 80.1382C167.004 80.2771 166.76 80.3513 166.51 80.3513C166.175 80.3513 165.853 80.2182 165.616 79.9809C165.379 79.7437 165.246 79.4221 165.246 79.0869Z" fill="white"/>
<path d="M169.221 79.0869C169.221 78.8367 169.295 78.5924 169.435 78.3847C169.573 78.1765 169.771 78.0148 170.002 77.9187C170.233 77.8231 170.487 77.7981 170.732 77.8468C170.978 77.8955 171.204 78.0161 171.38 78.1931C171.557 78.3699 171.678 78.5951 171.726 78.8403C171.774 79.0856 171.75 79.3398 171.654 79.5708C171.558 79.8018 171.396 79.9993 171.189 80.1382C170.981 80.2771 170.736 80.3513 170.486 80.3513C170.151 80.3513 169.829 80.2182 169.592 79.9809C169.355 79.7437 169.221 79.4221 169.221 79.0869Z" fill="white"/>
<path d="M287.164 81.401H279.122V77.6794H287.164V81.401ZM279.529 80.9988H286.757V78.086H279.529V80.9988Z" fill="white"/>
<path d="M284.979 78.3093H279.793V80.7709H284.979V78.3093Z" fill="white"/>
<path d="M287.887 78.5459H287.172V80.5384H287.887V78.5459Z" fill="white"/>
<path d="M247.489 96.2727H193.763C192.808 96.2727 192.034 97.0474 192.034 98.0024V98.0068C192.034 98.9609 192.808 99.7356 193.763 99.7356H247.489C248.444 99.7356 249.218 98.9609 249.218 98.0068V98.0024C249.218 97.0474 248.444 96.2727 247.489 96.2727Z" fill="white"/>
<g opacity="0.15">
<path opacity="0.15" d="M140.486 251.038C140.415 251.105 141.318 252.141 142.492 253.352C143.668 254.562 144.686 255.487 144.758 255.42C144.829 255.354 143.931 254.317 142.748 253.102C141.563 251.886 140.563 250.979 140.486 251.038Z" fill="black"/>
</g>
<g opacity="0.15">
<path opacity="0.15" d="M141.634 248.921C141.567 249.002 142.375 249.765 143.229 250.82C144.082 251.874 144.68 252.817 144.774 252.763C144.869 252.71 144.394 251.678 143.506 250.597C142.617 249.515 141.691 248.85 141.634 248.921Z" fill="black"/>
</g>
<g opacity="0.15">
<path opacity="0.15" d="M142.608 246.741C142.541 246.817 143.158 247.451 143.859 248.268C144.561 249.086 145.11 249.783 145.2 249.73C145.289 249.676 144.86 248.876 144.137 248.037C143.412 247.197 142.671 246.669 142.608 246.741Z" fill="black"/>
</g>
<path d="M373.215 179.025L375.274 178.614L378.531 171.466L377.714 167.351C377.714 167.351 380.841 166.525 381.556 171.984C382.271 177.443 382.382 176.005 382.382 176.005C382.382 176.005 387.583 174.218 389.826 175.165C392.242 176.166 391.836 182.192 392.631 185.82C393.029 187.647 392.242 189.578 390.625 190.35C390.397 190.458 390.16 190.539 389.914 190.591C388.226 190.926 379.336 191.261 379.336 191.261L375.761 191.968L373.215 179.025Z" fill="#DADDDF"/>
<path d="M368.381 179.918L371.16 192.91L374.685 192.208L371.951 179.252L368.381 179.918Z" fill="#DADDDF"/>
<path d="M296.908 3.76978L297.945 5.65954L299.835 6.69601L297.945 7.72801L296.908 9.61778L295.877 7.72801L293.987 6.69601L295.877 5.65954L296.908 3.76978Z" fill="#7876F2"/>
<path d="M361.647 97.2939L362.679 99.184L364.569 100.22L362.679 101.253L361.647 103.147L360.611 101.253L358.721 100.22L360.611 99.184L361.647 97.2939Z" fill="#7876F2"/>
<path d="M346.664 174.332L347.696 176.222L349.586 177.259L347.696 178.291L346.664 180.181L345.627 178.291L343.738 177.259L345.627 176.222L346.664 174.332Z" fill="#7876F2"/>
<path d="M307.396 28.8103L308.433 30.7001L310.322 31.7365L308.433 32.7685L307.396 34.6583L306.364 32.7685L304.474 31.7365L306.364 30.7001L307.396 28.8103Z" fill="#7876F2"/>
<path d="M80.1588 17.29L81.4856 19.7203L83.916 21.0472L81.4856 22.3741L80.1588 24.8044L78.8275 22.3741L76.4016 21.0472L78.8275 19.7203L80.1588 17.29Z" fill="#DADDDF"/>
<path d="M277.955 12.853L280.345 17.2178L284.71 19.6035L280.345 21.9936L277.955 26.3583L275.569 21.9936L271.204 19.6035L275.569 17.2178L277.955 12.853Z" fill="#7876F2"/>
<path d="M62.3539 0L65.5304 5.81226L71.3471 8.99317L65.5304 12.174L62.3539 17.9862L59.1731 12.174L53.3608 8.99317L59.1731 5.81226L62.3539 0Z" fill="#DADDDF"/>
<path d="M330.913 188.763L333.299 193.128L337.668 195.514L333.299 197.904L330.913 202.269L328.523 197.904L324.158 195.514L328.528 193.128L330.913 188.763Z" fill="#7876F2"/>
<path d="M384.207 280.716L386.588 285.072L390.944 287.454L386.588 289.84L384.207 294.195L381.825 289.834L377.47 287.454L381.825 285.072L384.207 280.716Z" fill="#7876F2"/>
<path d="M114.413 145.522C116.463 151.521 119.454 152.926 123.307 170.792C124.014 174.092 122.767 179.246 119.802 180.835C116.836 182.425 111.551 180.679 109.784 177.836L101.086 149.879L114.413 145.522Z" fill="#FFBE9D"/>
<path d="M105.621 290.167C106.035 290.167 106.439 290.044 106.783 289.814C107.127 289.585 107.394 289.258 107.553 288.877C107.711 288.494 107.753 288.074 107.671 287.668C107.591 287.263 107.392 286.89 107.1 286.598C106.807 286.305 106.435 286.107 106.029 286.026C105.624 285.945 105.204 285.986 104.821 286.145C104.439 286.303 104.113 286.571 103.883 286.915C103.654 287.259 103.531 287.663 103.531 288.077C103.531 288.631 103.75 289.163 104.142 289.555C104.535 289.947 105.067 290.167 105.621 290.167Z" fill="#B2B6BB"/>
<path opacity="0.15" d="M104.839 288.077C104.841 287.643 104.977 287.22 105.229 286.867C105.482 286.514 105.837 286.249 106.247 286.107C106.029 286.025 105.797 285.983 105.564 285.985C105.009 285.985 104.477 286.207 104.085 286.598C103.693 286.991 103.472 287.523 103.472 288.077C103.472 288.632 103.693 289.163 104.085 289.556C104.477 289.948 105.009 290.167 105.564 290.167C105.796 290.166 106.028 290.126 106.247 290.047C105.84 289.901 105.488 289.633 105.236 289.281C104.985 288.93 104.846 288.509 104.839 288.077Z" fill="black"/>
<path d="M105.621 322.507C106.035 322.507 106.439 322.384 106.783 322.155C107.127 321.925 107.394 321.599 107.553 321.217C107.711 320.835 107.753 320.415 107.671 320.009C107.591 319.603 107.392 319.231 107.1 318.938C106.807 318.646 106.435 318.446 106.029 318.366C105.624 318.285 105.204 318.327 104.821 318.485C104.439 318.643 104.113 318.911 103.883 319.255C103.654 319.598 103.531 320.003 103.531 320.417C103.532 320.971 103.752 321.502 104.144 321.894C104.536 322.286 105.067 322.506 105.621 322.507Z" fill="#B2B6BB"/>
<path opacity="0.15" d="M104.839 320.417C104.841 319.983 104.977 319.56 105.229 319.207C105.482 318.854 105.837 318.589 106.247 318.447C106.029 318.365 105.797 318.324 105.564 318.326C105.009 318.326 104.477 318.546 104.085 318.939C103.693 319.33 103.472 319.863 103.472 320.417C103.472 320.971 103.693 321.503 104.085 321.896C104.477 322.288 105.009 322.508 105.564 322.508C105.796 322.506 106.028 322.466 106.247 322.387C105.834 322.25 105.476 321.985 105.222 321.631C104.969 321.278 104.835 320.852 104.839 320.417Z" fill="black"/>
<path d="M96.4219 367.88L122.526 368.523L112.108 361.081C111.249 360.464 110.542 359.665 110.04 358.735C109.539 357.806 109.256 356.774 109.213 355.72L108.85 347.553L94.653 347.594L96.4219 367.88Z" fill="#FFBE9D"/>
<path opacity="0.15" d="M99.3175 358.348V358.187C99.2739 357.75 99.4002 357.316 99.6695 356.971C99.9396 356.628 100.332 356.4 100.765 356.337L109.092 355.131L109.012 353.482H95.0956L96.3417 367.332L107.725 366.085L103.981 364.594C102.702 364.084 101.588 363.235 100.765 362.132C99.9414 361.029 99.4403 359.719 99.3175 358.348Z" fill="black"/>
<path d="M49.4021 367.398H61.1473L63.3184 347.526L49.4423 347.567L49.4021 367.398Z" fill="#FFBE9D"/>
<path opacity="0.15" d="M52.3345 364.056L52.616 357.945C52.6374 357.556 52.7938 357.185 53.0578 356.899C53.3219 356.613 53.6775 356.43 54.0634 356.376L62.5115 355.09L62.7126 353.401L49.4797 353.441L49.4396 367.519L52.3345 364.056Z" fill="black"/>
<path d="M48.6362 191.02V353.482H63.8794L77.1525 221.028C77.19 220.611 77.3821 220.224 77.6909 219.941C77.9995 219.659 78.403 219.502 78.8211 219.502C79.2397 219.502 79.6427 219.659 79.9519 219.941C80.2605 220.224 80.4526 220.611 80.4898 221.028L94.612 353.482H109.855L104.342 191.02H48.6362Z" fill="#2C4A73"/>
<path d="M50.2856 360.399L50.6475 360.037C52.0033 358.714 53.8279 357.987 55.7203 358.008C57.6132 358.031 59.4199 358.804 60.7441 360.157L60.9451 360.399C61.6094 361.091 61.9834 362.011 61.9905 362.972V364.5C61.9825 365.389 62.1182 366.273 62.3926 367.118L63.6256 371.246C63.9455 372.247 64.1081 373.292 64.1081 374.342V374.864C64.088 375.262 63.9129 375.637 63.6198 375.91C63.3263 376.178 62.9385 376.326 62.54 376.312H48.1143C47.9156 376.321 47.7176 376.29 47.5308 376.223C47.3441 376.156 47.1726 376.053 47.0269 375.919C46.8809 375.78 46.7633 375.62 46.6807 375.44C46.598 375.257 46.5525 375.061 46.5463 374.864V374.663C46.5476 373.448 46.7513 372.237 47.1494 371.09L48.5968 367.028C48.9323 366.099 49.1093 365.116 49.1196 364.129L49.1597 362.963C49.2179 362.003 49.6168 361.091 50.2856 360.399Z" fill="#3F4249"/>
<path d="M48.2346 353.481H64.483L64.8047 350.14H48.2748L48.2346 353.481Z" fill="#2C4A73"/>
<path opacity="0.15" d="M48.2346 353.481H55.0297L55.1906 350.14H48.2748L48.2346 353.481Z" fill="black"/>
<path opacity="0.5" d="M46.5463 374.675V374.876C46.5659 375.273 46.741 375.649 47.0341 375.922C47.3276 376.189 47.7154 376.337 48.1143 376.323H62.5534C62.7517 376.332 62.9502 376.301 63.1365 376.234C63.3232 376.167 63.4947 376.064 63.6404 375.926C63.7864 375.792 63.9044 375.631 63.9866 375.447C64.0692 375.269 64.1148 375.073 64.1215 374.876V374.371C64.1278 374.17 64.1143 373.964 64.0813 373.768H46.5463V374.675Z" fill="black"/>
<path d="M94.6121 363.252V373.428C94.6112 373.817 94.687 374.206 94.8369 374.567C94.9859 374.929 95.2046 375.26 95.4808 375.533C95.7579 375.809 96.0865 376.029 96.4481 376.18C96.8097 376.328 97.1966 376.403 97.5879 376.403H132.179C132.511 376.403 132.827 376.27 133.059 376.037C133.294 375.805 133.425 375.488 133.426 375.157C133.425 373.973 133.05 372.816 132.357 371.856C131.664 370.891 130.686 370.171 129.562 369.797L121.761 367.223L111.875 359.552C111.378 359.164 110.762 358.958 110.132 358.976C109.501 358.99 108.895 359.221 108.417 359.633L104.03 363.372C103.714 363.645 103.334 363.828 102.926 363.912C102.518 363.997 102.096 363.979 101.697 363.855L96.1492 362.126C95.9723 362.072 95.7858 362.059 95.6037 362.09C95.4216 362.121 95.2491 362.197 95.1001 362.304C94.951 362.416 94.8299 362.554 94.7445 362.72C94.6609 362.885 94.6147 363.068 94.6121 363.252Z" fill="#3F4249"/>
<path d="M97.5791 376.404H132.171C132.502 376.404 132.818 376.27 133.052 376.037C133.285 375.805 133.417 375.487 133.418 375.157C133.426 374.737 133.372 374.317 133.257 373.911H94.653C94.7688 374.603 95.1261 375.233 95.6611 375.689C96.1962 376.145 96.8759 376.399 97.5791 376.404Z" fill="black"/>
<path d="M58.3291 363.814C58.2724 363.823 58.2157 363.805 58.1684 363.774C57.3387 363.38 56.4314 363.176 55.5124 363.176C54.5939 363.176 53.6866 363.38 52.8565 363.774C52.7712 363.819 52.6724 363.823 52.5822 363.796C52.4915 363.765 52.4169 363.698 52.374 363.613C52.3316 363.529 52.3244 363.43 52.3547 363.34C52.3847 363.247 52.4495 363.176 52.5348 363.13C53.4681 362.675 54.4934 362.438 55.5325 362.438C56.5721 362.438 57.5974 362.675 58.5303 363.13C58.6106 363.18 58.671 363.256 58.7009 363.34C58.7303 363.43 58.7269 363.529 58.691 363.613C58.6517 363.676 58.5982 363.725 58.5351 363.76C58.4721 363.792 58.4016 363.814 58.3291 363.814Z" fill="white"/>
<path d="M58.3301 365.67C58.2734 365.674 58.2167 365.661 58.1693 365.629C57.3401 365.232 56.4328 365.026 55.5134 365.026C54.594 365.026 53.6866 365.232 52.8574 365.629C52.8154 365.652 52.7693 365.665 52.722 365.67C52.6742 365.674 52.6264 365.67 52.5813 365.652C52.5362 365.638 52.4946 365.611 52.4589 365.581C52.4236 365.549 52.395 365.514 52.3749 365.468C52.3521 365.424 52.3383 365.379 52.3343 365.33C52.3297 365.285 52.3356 365.236 52.3503 365.191C52.3655 365.142 52.3897 365.102 52.4218 365.067C52.4536 365.031 52.4924 364.999 52.5357 364.982C53.469 364.521 54.4943 364.285 55.5335 364.285C56.5726 364.285 57.5983 364.521 58.5311 364.982C58.6124 365.031 58.6737 365.107 58.7032 365.196C58.7331 365.285 58.729 365.379 58.692 365.468C58.6523 365.527 58.5986 365.575 58.5356 365.611C58.4727 365.647 58.402 365.665 58.3301 365.67Z" fill="white"/>
<path d="M58.3294 367.478C58.2726 367.486 58.2158 367.469 58.1685 367.438C57.3389 367.045 56.4315 366.839 55.5125 366.839C54.594 366.839 53.6867 367.045 52.8566 367.438C52.8146 367.46 52.7686 367.473 52.7213 367.473C52.6743 367.478 52.627 367.473 52.5823 367.46C52.5376 367.442 52.4961 367.419 52.4603 367.389C52.4246 367.357 52.3956 367.322 52.3741 367.276C52.3531 367.236 52.3406 367.188 52.337 367.143C52.3339 367.093 52.3397 367.049 52.3549 367.005C52.3697 366.959 52.3933 366.915 52.4241 366.879C52.4554 366.843 52.493 366.816 52.535 366.795C53.4678 366.334 54.4935 366.097 55.5326 366.097C56.5723 366.097 57.598 366.334 58.5304 366.795C58.6108 366.843 58.6711 366.919 58.701 367.005C58.7306 367.093 58.727 367.192 58.6912 367.276C58.6519 367.339 58.5983 367.389 58.5353 367.425C58.4723 367.455 58.4017 367.478 58.3294 367.478Z" fill="white"/>
<path opacity="0.15" d="M103.699 351.63L88.6439 226.578C88.4104 224.64 87.4762 222.855 86.0168 221.559C84.5577 220.263 82.6746 219.545 80.7227 219.542H78.8285C79.2449 219.544 79.6452 219.702 79.9503 219.985C80.2555 220.268 80.4435 220.655 80.4771 221.07L94.5188 352.796L103.699 351.63Z" fill="black"/>
<path d="M94.2085 353.481H110.417L110.176 350.14H93.887L94.2085 353.481Z" fill="#2C4A73"/>
<path d="M63.7596 115.766H86.8568V200.711H64.8765L63.7596 115.766Z" fill="white"/>
<path opacity="0.15" d="M94.2085 353.481H103.858L103.497 350.14H93.887L94.2085 353.481Z" fill="black"/>
<path d="M68.2291 118.002C70.4428 119.488 73.0657 120.244 75.7305 120.164C78.3954 120.084 80.9683 119.172 83.0881 117.555C83.307 117.371 83.4763 117.134 83.5809 116.867C83.6855 116.6 83.722 116.312 83.6868 116.027L82.7173 106.972C82.9224 106.093 83.0228 105.193 83.0167 104.291C83.164 99.7077 83.575 95.5747 83.575 95.5747C83.575 95.5747 68.3854 86.0366 67.7779 97.6965L67.5545 100.712L66.5136 115.987C66.5059 116.409 66.6503 116.82 66.9201 117.144L68.2291 118.002Z" fill="#FFBE9D"/>
<path d="M84.9169 96.2624C85.9346 96.2624 86.9291 95.9609 87.7751 95.3954C88.6203 94.8299 89.28 94.0264 89.6686 93.0862C90.0573 92.146 90.1583 91.1117 89.9597 90.1139C89.761 89.1162 89.2704 88.2003 88.5498 87.4814C87.83 86.7625 86.9129 86.2733 85.9149 86.0758C84.9169 85.8788 83.8827 85.9815 82.9432 86.3724C82.0036 86.7629 81.2013 87.4231 80.637 88.2701C80.0732 89.117 79.773 90.1122 79.7748 91.1291C79.7775 92.4919 80.3203 93.7973 81.2844 94.7602C82.2484 95.7222 83.5547 96.2624 84.9169 96.2624Z" fill="#21252B"/>
<path d="M86.3374 88.1017C86.3374 88.1017 89.6748 111.145 77.9564 111.619C67.8195 112.065 68.1278 96.3259 68.1278 96.3259L69.5262 86.2385L86.3374 88.1017Z" fill="#FFBE9D"/>
<path d="M84.6218 88.7396L74.3465 89.4811C73.7336 89.5378 73.1661 89.8297 72.7632 90.295C72.3602 90.7603 72.1525 91.3633 72.1843 91.9785C72.2066 92.2853 72.1686 92.592 72.0721 92.8839C71.9751 93.175 71.8224 93.4442 71.6213 93.676C71.4203 93.9078 71.1759 94.0986 70.9011 94.2354C70.6268 94.3722 70.3279 94.4542 70.0219 94.4759C69.8584 94.4977 69.7083 94.5779 69.5997 94.7025C69.4911 94.8262 69.4318 94.9857 69.4322 95.1504L69.5797 97.4247C69.59 97.4936 69.585 97.5641 69.5654 97.6312C69.5461 97.6992 69.5122 97.7611 69.4662 97.8142C69.4206 97.8674 69.3639 97.9101 69.3 97.9388C69.2365 97.9676 69.1672 97.9833 69.0972 97.9824C68.9698 97.9937 68.8434 97.958 68.7406 97.8822C68.6379 97.8064 68.5664 97.6966 68.5387 97.572L68.092 95.4092L67.6452 94.7034L65.2238 96.1908C65.2238 96.1908 61.3103 90.1556 63.1732 84.6427C64.2544 81.5154 67.3459 80.3986 68.838 80.2109C69.0726 80.1778 69.2973 80.0938 69.4965 79.9647C69.6954 79.8361 69.8637 79.6654 69.9906 79.4648C70.5848 78.4596 72.0413 76.7083 75.2802 76.82C76.1952 76.8245 77.0945 77.0586 77.8955 77.5014C78.6966 77.944 79.3734 78.5807 79.8639 79.3532C80.0716 79.6676 80.3852 79.8964 80.7476 79.9991C81.1099 80.1014 81.4968 80.0706 81.8385 79.9115C82.5328 79.589 83.299 79.4505 84.0625 79.5095C84.826 79.568 85.5618 79.8218 86.1989 80.2466C89.5362 82.3687 88.196 88.1767 84.6218 88.7396Z" fill="#21252B"/>
<path opacity="0.15" d="M67.556 101.442C68.076 101.486 68.5964 101.369 69.0481 101.106L67.4086 103.64L67.556 101.442Z" fill="black"/>
<path d="M68.1177 95.4057C68.0189 95.1173 67.8585 94.8541 67.6476 94.6345C67.4368 94.4149 67.1803 94.2441 66.8962 94.1344C66.6121 94.0246 66.3078 93.9784 66.004 93.9993C65.7002 94.0193 65.4045 94.1056 65.1378 94.2529C62.6046 95.37 63.1274 101.106 67.4117 101.441C69.6455 101.628 69.1987 100.324 68.8279 98.5732L68.1177 95.4057Z" fill="#FFBE9D"/>
<path opacity="0.15" d="M65.0221 95.7395C65.3714 95.4702 65.8132 95.35 66.2506 95.4049C66.4592 95.4571 66.654 95.5539 66.8211 95.6889C66.9886 95.824 67.1249 95.9939 67.22 96.1865C67.4948 96.6631 67.6368 97.2043 67.6311 97.7541L67.6668 98.2369C67.6587 98.3005 67.6275 98.3589 67.5797 98.4007C67.5314 98.4425 67.4698 98.466 67.4059 98.466C67.3415 98.466 67.2799 98.4425 67.2316 98.4007C67.1839 98.3589 67.1526 98.3005 67.1441 98.2369L67.1083 97.7541C67.0918 97.3001 66.9775 96.8557 66.7733 96.4496C66.6334 96.1961 66.4092 95.9983 66.1389 95.8911C65.8485 95.8658 65.5586 95.9442 65.3213 96.115C65.2624 96.1447 65.1954 96.1542 65.1305 96.1412C65.0658 96.1281 65.0072 96.0941 64.9639 96.0436C64.8746 96.0035 64.9103 95.851 65.0221 95.7395Z" fill="black"/>
<path opacity="0.15" d="M83.4653 113.323L83.09 109.673C82.1251 110.678 79.3284 112.135 76.1609 111.389C74.5745 110.991 73.1538 110.105 72.0999 108.856C72.0807 108.831 72.0566 108.809 72.0293 108.795C72.0021 108.779 71.9717 108.769 71.9404 108.765C71.9096 108.761 71.8779 108.764 71.8476 108.773C71.8176 108.781 71.7894 108.796 71.7649 108.815C71.7398 108.835 71.7188 108.858 71.7032 108.886C71.688 108.913 71.6782 108.944 71.675 108.975C71.6714 109.006 71.6746 109.038 71.684 109.068C71.6934 109.099 71.7086 109.127 71.7291 109.15C73.0944 110.743 75.0069 111.767 77.0902 112.019C78.0105 112.653 79.0496 113.096 80.1446 113.32C81.2401 113.544 82.3694 113.544 83.4653 113.323Z" fill="black"/>
<g opacity="0.15">
<path opacity="0.15" d="M79.9279 106.883C79.8877 106.919 79.9279 106.919 79.9279 106.883C78.9585 106.954 78.5117 106.994 78.5117 106.994C78.4281 106.997 78.3468 106.967 78.2843 106.912C78.2221 106.856 78.1833 106.778 78.1766 106.695C78.1721 106.654 78.1766 106.611 78.1895 106.571C78.2021 106.531 78.2231 106.494 78.2508 106.463C78.2785 106.432 78.3124 106.406 78.3504 106.388C78.3884 106.371 78.4294 106.361 78.4714 106.36L79.852 106.249C80.0396 106.249 80.187 106.36 80.187 106.507C80.187 106.73 80.0753 106.883 79.9279 106.883Z" fill="black"/>
</g>
<g opacity="0.15">
<path opacity="0.15" d="M80.445 105.539C77.912 105.915 76.7593 104.533 76.3483 103.863C76.3291 103.829 76.3165 103.791 76.3117 103.753C76.3072 103.713 76.3104 103.673 76.3205 103.635C76.3421 103.559 76.393 103.494 76.4622 103.455C76.5314 103.415 76.6137 103.406 76.6905 103.427C76.7669 103.449 76.8321 103.499 76.871 103.569C77.2418 104.239 78.5106 105.691 81.5664 104.686C81.6401 104.668 81.7174 104.676 81.7853 104.709C81.8532 104.743 81.9068 104.799 81.9372 104.869C81.9542 104.944 81.9448 105.021 81.9109 105.09C81.8764 105.158 81.8197 105.213 81.7496 105.245C81.3251 105.384 80.8886 105.482 80.445 105.539Z" fill="black"/>
</g>
<path d="M80.445 105.539C77.912 105.915 76.7593 104.533 76.3483 103.863C76.3291 103.829 76.3165 103.791 76.3117 103.753C76.3072 103.713 76.3104 103.673 76.3205 103.635C76.3421 103.559 76.393 103.494 76.4622 103.455C76.5314 103.415 76.6137 103.406 76.6905 103.427C76.7669 103.449 76.8321 103.499 76.871 103.569C77.2418 104.239 78.5106 105.691 81.5664 104.686C81.6401 104.668 81.7174 104.676 81.7853 104.709C81.8532 104.743 81.9068 104.799 81.9372 104.869C81.9542 104.944 81.9448 105.021 81.9109 105.09C81.8764 105.158 81.8197 105.213 81.7496 105.245C81.3251 105.384 80.8886 105.482 80.445 105.539Z" fill="#D9A286"/>
<path d="M76.9432 99.5789C77.1281 99.5798 77.3091 99.5258 77.4633 99.423C77.6178 99.321 77.738 99.1755 77.8091 99.0047C77.8805 98.8339 77.8992 98.6457 77.8635 98.4636C77.8273 98.2823 77.7385 98.1159 77.6075 97.9852C77.4766 97.8545 77.31 97.7647 77.1287 97.729C76.9468 97.6933 76.7587 97.7124 76.5881 97.783C76.4174 97.8545 76.2713 97.9747 76.1694 98.129C76.0671 98.2832 76.0131 98.4644 76.0136 98.6492C76.0136 98.8958 76.1118 99.1319 76.286 99.3062C76.4603 99.4805 76.6966 99.5789 76.9432 99.5789Z" fill="#21252B"/>
<path d="M77.354 98.9078C77.404 98.9078 77.4518 98.8878 77.4867 98.8529C77.522 98.8172 77.5417 98.7702 77.5417 98.7196C77.5417 98.6961 77.5371 98.6708 77.5273 98.649C77.518 98.6264 77.5041 98.6063 77.4867 98.5889C77.4693 98.5723 77.4483 98.5584 77.4255 98.5497C77.4027 98.541 77.3785 98.5366 77.354 98.5366C77.3057 98.5366 77.2588 98.5558 77.2244 98.5906C77.1905 98.6246 77.1708 98.6717 77.1708 98.7196C77.1704 98.7449 77.1748 98.7684 77.1838 98.7911C77.1927 98.8137 77.2061 98.8355 77.2231 98.8529C77.2401 98.8704 77.2606 98.8834 77.283 98.893C77.3057 98.9026 77.3298 98.9078 77.354 98.9078Z" fill="white"/>
<path d="M84.3234 99.618C84.5083 99.618 84.6888 99.5631 84.8421 99.4603C84.9958 99.3574 85.1154 99.2119 85.186 99.0411C85.2566 98.8703 85.2754 98.683 85.2393 98.5017C85.203 98.3205 85.1141 98.1549 84.9837 98.0233C84.8532 97.8935 84.6865 97.8046 84.5056 97.768C84.3247 97.7323 84.1367 97.7506 83.966 97.8212C83.7958 97.8926 83.6497 98.012 83.5469 98.1654C83.4446 98.3187 83.3896 98.4991 83.3896 98.6839C83.3896 98.9322 83.4879 99.1692 83.6631 99.3444C83.8382 99.5195 84.0759 99.618 84.3234 99.618Z" fill="#21252B"/>
<path d="M84.7302 98.9437C84.7548 98.9437 84.7789 98.9402 84.8016 98.9306C84.8245 98.9219 84.845 98.9089 84.8628 98.8914C84.8803 98.874 84.8941 98.854 84.9035 98.8313C84.9129 98.8087 84.9178 98.7851 84.9178 98.7599C84.9178 98.7111 84.8981 98.6631 84.8628 98.6274C84.8275 98.5925 84.7802 98.5725 84.7302 98.5725C84.7056 98.5725 84.6815 98.5777 84.6591 98.5865C84.6368 98.5969 84.6162 98.6108 84.5993 98.6283C84.5819 98.6457 84.5685 98.6657 84.5595 98.6884C84.5506 98.7119 84.5466 98.7355 84.547 98.7599C84.547 98.8087 84.5662 98.8557 84.6006 98.8897C84.635 98.9245 84.6815 98.9437 84.7302 98.9437Z" fill="white"/>
<g opacity="0.15">
<path opacity="0.15" d="M81.1144 103.268L79.8858 103.34C79.8148 103.337 79.7465 103.309 79.6928 103.262C79.6392 103.215 79.6031 103.151 79.5909 103.08C79.5945 103.009 79.6222 102.941 79.6692 102.887C79.7161 102.832 79.7799 102.795 79.8501 102.781L81.0787 102.71C81.2261 102.696 81.3623 102.626 81.4597 102.514C81.5571 102.404 81.6076 102.258 81.6013 102.111C81.588 101.965 81.5178 101.828 81.4061 101.731C81.2949 101.635 81.1501 101.586 81.0028 101.593C80.9308 101.589 80.862 101.562 80.8084 101.513C80.7548 101.465 80.719 101.401 80.7079 101.329C80.6676 101.181 80.8195 101.07 80.967 101.03C81.257 101.016 81.5415 101.112 81.7626 101.299C81.9842 101.487 82.1263 101.751 82.1598 102.04C82.1777 102.339 82.0789 102.635 81.8842 102.864C81.6893 103.093 81.4137 103.238 81.1144 103.268Z" fill="black"/>
</g>
<path d="M81.1144 103.268L79.8858 103.34C79.8148 103.337 79.7465 103.309 79.6928 103.262C79.6392 103.215 79.6031 103.151 79.5909 103.08C79.5945 103.009 79.6222 102.941 79.6692 102.887C79.7161 102.832 79.7799 102.795 79.8501 102.781L81.0787 102.71C81.2261 102.696 81.3623 102.626 81.4597 102.514C81.5571 102.404 81.6076 102.258 81.6013 102.111C81.588 101.965 81.5178 101.828 81.4061 101.731C81.2949 101.635 81.1501 101.586 81.0028 101.593C80.9308 101.589 80.862 101.562 80.8084 101.513C80.7548 101.465 80.719 101.401 80.7079 101.329C80.6676 101.181 80.8195 101.07 80.967 101.03C81.257 101.016 81.5415 101.112 81.7626 101.299C81.9842 101.487 82.1263 101.751 82.1598 102.04C82.1777 102.339 82.0789 102.635 81.8842 102.864C81.6893 103.093 81.4137 103.238 81.1144 103.268Z" fill="#D9A286"/>
<path d="M87.0509 95.7082L82.9899 95.5879H82.4314L78.8976 95.4851H78.8574L74.2782 95.3466C74.1022 95.3413 73.927 95.3701 73.7622 95.4328C73.5973 95.4947 73.4468 95.5897 73.3185 95.7108C73.1904 95.831 73.0872 95.9757 73.0152 96.136C72.9429 96.2972 72.9031 96.4706 72.8977 96.6467L72.8665 97.6915C72.8379 98.6596 73.1952 99.5998 73.8596 100.304C74.5239 101.009 75.4411 101.42 76.4093 101.449C77.3774 101.478 78.3168 101.12 79.0213 100.456C79.7264 99.7906 80.1378 98.8739 80.1664 97.9058L80.1977 96.8654C80.2022 96.5656 80.1066 96.2728 79.9251 96.0341L81.3369 96.0794C81.151 96.3068 81.0501 96.5935 81.051 96.8872L81.0241 97.9328C81.001 98.4173 81.0742 98.9018 81.24 99.3576C81.4062 99.8142 81.6612 100.232 81.9905 100.588C82.3202 100.944 82.7173 101.231 83.1588 101.432C83.6006 101.633 84.0777 101.743 84.5625 101.757C85.0476 101.772 85.5306 101.689 85.9831 101.515C86.4357 101.34 86.8494 101.077 87.1991 100.741C87.5494 100.405 87.8282 100.002 88.0199 99.5571C88.2125 99.1118 88.3144 98.6326 88.3197 98.1472L88.351 97.1068C88.3589 96.929 88.331 96.7521 88.27 96.5848C88.2081 96.4184 88.1149 96.265 87.9938 96.1352C87.8726 96.0053 87.7271 95.8999 87.565 95.8267C87.403 95.7535 87.2287 95.7134 87.0509 95.7082ZM79.675 96.8297L79.6437 97.8753C79.545 98.6413 79.1656 99.3445 78.5795 99.8481C77.9929 100.352 77.2407 100.62 76.4677 100.602C75.6953 100.584 74.9564 100.279 74.3943 99.7488C73.8328 99.2181 73.487 98.4984 73.4249 97.7272L73.4561 96.6824C73.4642 96.4654 73.5576 96.2615 73.7157 96.1125C73.8739 95.9652 74.0839 95.8851 74.3005 95.8912L78.8797 96.0254H78.9155C79.1223 96.0323 79.3185 96.1203 79.4605 96.2711C79.6026 96.4218 79.6799 96.6223 79.675 96.8297ZM87.8012 98.1158C87.708 98.887 87.3306 99.5954 86.7431 100.104C86.1551 100.612 85.3997 100.883 84.6228 100.865C83.8463 100.847 83.1042 100.54 82.5413 100.005C81.9784 99.4691 81.6353 98.7432 81.5782 97.9686L81.6094 96.9281C81.6175 96.7103 81.7108 96.5064 81.8685 96.3574C82.0267 96.2084 82.2367 96.1273 82.4537 96.1325H83.0122L87.0732 96.2528C87.2897 96.2615 87.4953 96.3548 87.6435 96.5125C87.7925 96.6702 87.8735 96.8802 87.8683 97.0972L87.8012 98.1158Z" fill="#21252B"/>
<path opacity="0.4" d="M69.0662 127.294V149.632" stroke="white" stroke-width="0.871389" stroke-miterlimit="10" stroke-linecap="round"/>
<path opacity="0.4" d="M84.9248 125.507V149.408" stroke="white" stroke-width="0.897531" stroke-miterlimit="10" stroke-linecap="round"/>
<g opacity="0.3">
<path opacity="0.3" d="M42.9655 139.984C43.5534 140.37 44.0716 140.854 44.4978 141.413C44.9294 141.964 45.3091 142.553 45.6326 143.174C45.9538 143.792 46.2227 144.436 46.4367 145.099C46.6574 145.761 46.8075 146.443 46.8835 147.137C46.5171 146.534 46.2133 145.926 45.9051 145.318C45.7398 145.024 45.6058 144.711 45.4583 144.425C45.3109 144.139 45.1546 143.822 45.0116 143.531C44.7078 142.932 44.3861 142.343 44.0556 141.745C43.725 141.146 43.3452 140.569 42.9655 139.984Z" fill="black"/>
</g>
<path opacity="0.3" d="M101.958 152.057L101.522 140.294L103.701 148.136C104.275 151.019 113.071 163.292 115.463 165.002L123.164 170.501L123.794 173.95L109.945 169.755L104.136 159.029" fill="black"/>
<g opacity="0.3">
<path opacity="0.3" d="M109.955 128.433C109.646 129.312 109.384 130.207 109.168 131.113C108.94 132.007 108.766 132.901 108.583 133.821C108.239 135.634 107.939 137.466 107.689 139.289L107.014 139.182C107.257 138.194 107.587 137.229 108.002 136.3C108.203 135.833 108.445 135.385 108.726 134.96C108.988 134.521 109.344 134.144 109.766 133.857C109.426 134.217 109.153 134.636 108.962 135.094C108.76 135.543 108.583 136.002 108.43 136.47C108.283 136.943 108.136 137.413 108.02 137.895C107.903 138.377 107.774 138.856 107.68 139.329L107.006 139.222C107.086 138.284 107.22 137.359 107.367 136.434C107.515 135.51 107.703 134.594 107.935 133.687C108.042 133.24 108.167 132.794 108.306 132.347L108.512 131.672L108.748 131.011C109.058 130.111 109.462 129.247 109.955 128.433Z" fill="black"/>
</g>
<path d="M47.3972 183.356L49.2387 165.564V162.514L28.7611 158.885C28.7611 158.885 32.4308 146.85 35.7972 133.918C37.7409 126.45 44.2095 122.696 45.7723 121.891L46.1144 121.736L64.1052 114.152C67.736 118.022 73.0306 121.117 78.0998 119.623C80.997 118.686 83.5632 116.939 85.4936 114.593L97.6218 118.734C101.124 119.934 104.087 122.326 105.988 125.489C108.522 129.955 116.631 150.441 116.771 150.897L101.758 152.236C101.758 152.236 107.256 200.038 106.315 208.698C106.315 208.698 99.8299 211.889 90.6246 212.316C71.9654 213.197 44.2095 211.875 44.2095 211.875C44.645 209.081 45.0959 204.406 45.3524 202.038L47.3972 183.356Z" fill="#FF725E"/>
<path d="M113.493 166.994L122.625 171.881C123.452 172.328 123.783 173.222 123.907 174.146C124.287 176.947 122.429 185.615 114.079 183.313C113.47 183.138 112.932 182.771 112.546 182.268L106.788 174.816L113.493 166.994Z" fill="#FFBE9D"/>
<path opacity="0.15" d="M110.087 173.978C111.619 172.75 113.187 170.512 113.661 167.179L112.915 166.808L105.838 173.885L106.767 174.818L112.544 182.27C112.929 182.774 113.466 183.141 114.076 183.316C120.138 184.986 122.774 180.876 123.623 177.427C119.571 184.888 112.455 178.294 109.966 175.641C109.859 175.526 109.776 175.392 109.724 175.243C109.671 175.096 109.65 174.939 109.661 174.782C109.672 174.626 109.716 174.475 109.789 174.336C109.862 174.198 109.964 174.076 110.087 173.978Z" fill="black"/>
<path d="M28.9803 167.063C29.4497 163.567 30.9396 155.979 30.9396 155.979L46.1889 158.157L44.0104 162.514L46.6246 162.078L53.4509 172.535C54.4671 174.278 41.9319 182.619 35.5403 182.089C29.6302 181.595 28.1317 173.345 28.9803 167.063Z" fill="#FFBE9D"/>
<path d="M115.846 153.766H107.434C107.284 153.766 107.137 153.804 107.006 153.876C106.875 153.948 106.764 154.052 106.683 154.177L96.855 169.639C96.8218 169.692 96.8035 169.753 96.8009 169.814C96.7992 169.877 96.8131 169.938 96.8419 169.993C96.8706 170.048 96.9133 170.095 96.9656 170.128C97.0179 170.162 97.0789 170.181 97.1408 170.184L106.286 170.533L116.114 154.306C116.147 154.256 116.165 154.197 116.168 154.136C116.171 154.075 116.159 154.015 116.132 153.96C116.106 153.906 116.065 153.86 116.015 153.826C115.965 153.792 115.906 153.771 115.846 153.766Z" fill="#323B47"/>
<path opacity="0.15" d="M115.757 154.236H107.049C106.99 154.236 106.932 154.251 106.88 154.28C106.829 154.309 106.785 154.351 106.754 154.401L96.7827 170.109C96.7504 170.161 96.7321 170.222 96.7295 170.284C96.7278 170.347 96.7417 170.408 96.7705 170.463C96.7992 170.519 96.8419 170.565 96.8942 170.598C96.9465 170.632 97.0075 170.651 97.0694 170.654L106.215 171.002L116.043 154.776C116.075 154.724 116.094 154.664 116.096 154.602C116.099 154.54 116.085 154.478 116.056 154.423C116.026 154.369 115.984 154.322 115.931 154.29C115.879 154.257 115.818 154.238 115.757 154.236Z" fill="#323B47"/>
<path d="M116.1 154.323H107.715C107.602 154.324 107.49 154.353 107.392 154.408C107.293 154.462 107.208 154.54 107.148 154.635L97.2881 170.16L107.532 170.718L116.1 154.323Z" fill="#6C757D"/>
<path d="M109.829 166.069C109.916 166.015 109.98 165.932 110.01 165.834C110.039 165.736 110.032 165.63 109.989 165.538L109.396 162.893L107.113 158.523C107.025 158.292 107.026 158.037 107.115 157.806C107.204 157.575 107.375 157.385 107.595 157.273C107.785 157.184 108 157.165 108.203 157.219C108.405 157.273 108.583 157.395 108.703 157.567L112.005 162.165L113.492 167.007C112.005 171.474 106.791 174.83 106.791 174.83H105.451C104.621 174.829 103.811 174.577 103.128 174.106L100.259 172.096C99.6608 171.681 99.1833 171.114 98.8792 170.451L97.3647 167.168C97.2906 167.008 97.2671 166.828 97.2967 166.654C97.3272 166.481 97.41 166.319 97.5346 166.194C97.6209 166.108 97.7255 166.04 97.8405 165.997C97.9555 165.953 98.0775 165.935 98.2004 165.943C98.3232 165.95 98.4418 165.984 98.5507 166.04C98.6596 166.098 98.7546 166.177 98.8295 166.275L100.835 168.857L103.23 170.907C103.293 170.956 103.368 170.987 103.446 170.997C103.525 171.007 103.605 170.996 103.677 170.966L103.721 170.943C103.777 170.916 103.826 170.877 103.865 170.829C103.904 170.781 103.932 170.724 103.946 170.664C103.961 170.604 103.962 170.541 103.949 170.48C103.937 170.419 103.911 170.363 103.874 170.313L101.194 166.618L99.612 162.509C99.5353 162.308 99.5371 162.087 99.6138 161.887C99.6913 161.687 99.8403 161.524 100.032 161.427L100.125 161.379C100.318 161.283 100.537 161.263 100.744 161.32C100.95 161.378 101.127 161.51 101.242 161.691L103.431 165.131L106.197 167.548C106.26 167.604 106.338 167.64 106.422 167.652C106.506 167.663 106.59 167.648 106.666 167.611L106.76 167.565C106.859 167.509 106.933 167.416 106.967 167.307C107.001 167.197 106.99 167.078 106.939 166.976L105.294 164.014L102.815 160.6C102.68 160.418 102.624 160.189 102.658 159.965C102.691 159.74 102.812 159.539 102.994 159.403C103.221 159.233 103.502 159.147 103.786 159.159C104.07 159.173 104.342 159.285 104.553 159.475L107.529 162.522L109.217 165.904C109.276 166.006 109.372 166.081 109.487 166.111C109.6 166.142 109.722 166.127 109.825 166.069H109.829Z" fill="#FFBE9D"/>
<path d="M46.6229 162.078L74.9176 154.509L87.1184 149.653C87.6714 149.431 88.2831 149.4 88.8565 149.564L94.5789 151.177C95.0102 151.296 95.4023 151.526 95.7187 151.843L99.2922 155.417C99.3916 155.516 99.4674 155.635 99.5162 155.766C99.5658 155.898 99.585 156.039 99.5754 156.178C99.565 156.318 99.5249 156.454 99.4578 156.576C99.3907 156.699 99.2974 156.807 99.185 156.891C99.0151 157.016 98.8095 157.084 98.5977 157.084C98.386 157.084 98.1803 157.016 98.0104 156.891L94.1284 153.978L90.7997 152.978C90.6881 152.944 90.5687 152.952 90.4624 152.998C90.3561 153.045 90.2699 153.128 90.2193 153.232C90.1662 153.336 90.1522 153.455 90.1801 153.568C90.208 153.682 90.276 153.781 90.3709 153.848L94.5928 156.864C94.7819 156.999 94.9222 157.192 94.9937 157.413C95.0651 157.634 95.0642 157.872 94.9902 158.093C94.91 158.326 94.7523 158.524 94.5432 158.656L94.2129 158.874C94.0665 158.974 93.8992 159.035 93.724 159.054C93.548 159.072 93.3711 159.048 93.2073 158.981L91.8671 158.45L92.3899 158.798C92.5607 158.913 92.688 159.079 92.7542 159.272C92.8204 159.467 92.8213 159.677 92.7568 159.871C92.7106 160.008 92.6339 160.133 92.532 160.235C92.4292 160.338 92.3046 160.416 92.1669 160.46L91.7643 160.594C91.5857 160.65 91.394 160.65 91.2153 160.594L88.9053 159.929L90.9295 160.8C91.0036 160.831 91.0715 160.878 91.1273 160.937C91.1831 160.996 91.2266 161.066 91.2545 161.142C91.2824 161.217 91.2955 161.299 91.2903 161.38C91.2859 161.461 91.265 161.54 91.2284 161.613C91.1709 161.729 91.0759 161.823 90.9609 161.881L90.3753 162.172C89.9004 162.411 89.3662 162.508 88.8382 162.449L86.2964 162.167C86.2964 162.167 82.9413 162.909 77.7277 162.538L48.2956 177.442L42.7067 171.098L46.6229 162.078Z" fill="#FFBE9D"/>
<path opacity="0.15" d="M90.9531 161.216C90.9531 162.708 86.1099 161.216 86.1099 161.216C83.8761 161.216 77.1749 160.099 77.1749 160.099L36.6036 175.585C36.6036 175.585 32.7647 176.231 31.811 177.328C31.3117 177.902 30.9396 179.07 30.9396 179.07C30.9396 179.07 31.6451 180.212 32.2467 180.813C32.8483 181.414 33.1151 181.411 33.9894 181.685C34.6588 181.895 35.3172 182.12 36.1679 182.12C37.0186 182.12 37.7667 181.791 38.7821 181.685C41.7375 181.375 45.7532 179.07 45.7532 179.07L77.7422 162.52C82.9558 162.891 86.3109 162.15 86.3109 162.15L88.853 162.431C89.3811 162.49 89.9153 162.394 90.3902 162.154L90.9749 161.864C91.0916 161.806 91.1857 161.711 91.2433 161.596C91.2433 161.596 91.2433 161.596 91.2433 161.573L90.9531 161.216Z" fill="black"/>
<path opacity="0.15" d="M92.1913 158.546L89.0909 157.121" stroke="black" stroke-width="0.723253" stroke-miterlimit="10" stroke-linecap="round"/>
<path opacity="0.15" d="M90.0337 160.395L87.6034 159.354" stroke="black" stroke-width="0.723253" stroke-miterlimit="10" stroke-linecap="round"/>
<g filter="url(#filter0_d_329_16246)">
<path d="M297.145 124.609C321.689 124.609 341.586 104.712 341.586 80.1679C341.586 55.6239 321.689 35.7271 297.145 35.7271C272.601 35.7271 252.705 55.6239 252.705 80.1679C252.705 104.712 272.601 124.609 297.145 124.609Z" fill="url(#paint0_linear_329_16246)"/>
</g>
<path d="M303.627 94.11H281.08C276.48 94.1065 272.751 91.1604 272.747 87.5258V72.8095C272.751 69.1748 276.48 66.2293 281.08 66.2256H303.685C308.252 66.2299 311.954 69.1542 311.959 72.7629V87.5258C311.955 91.1604 308.226 94.1065 303.627 94.11Z" fill="url(#paint1_linear_329_16246)"/>
<path d="M322.803 92.3671C322.369 92.3671 321.941 92.2774 321.544 92.104C321.452 92.0639 321.364 92.0151 321.282 91.9576L313.274 86.4254C312.868 86.1448 312.536 85.7726 312.308 85.3399C312.078 84.9073 311.959 84.427 311.959 83.9396V76.3948C311.959 75.9074 312.078 75.4271 312.308 74.9945C312.536 74.5619 312.868 74.1896 313.274 73.909L321.282 68.3768C321.364 68.3197 321.452 68.2706 321.544 68.2305C322.016 68.0246 322.532 67.9378 323.047 67.9777C323.562 68.0177 324.058 68.1832 324.491 68.4593C324.923 68.7353 325.28 69.1131 325.526 69.5584C325.772 70.0036 325.901 70.5023 325.901 71.009V89.3251C325.901 90.132 325.574 90.9049 324.994 91.4757C324.413 92.0456 323.624 92.3671 322.803 92.3671Z" fill="url(#paint2_linear_329_16246)"/>
<g filter="url(#filter1_d_329_16246)">
<path d="M324.159 117.638C329.452 117.638 333.744 113.346 333.744 108.052C333.744 102.759 329.452 98.467 324.159 98.467C318.865 98.467 314.573 102.759 314.573 108.052C314.573 113.346 318.865 117.638 324.159 117.638Z" fill="url(#paint3_linear_329_16246)"/>
</g>
<path d="M323.505 101.952H325.792V114.152H323.505V101.952Z" fill="#7FCCC6"/>
<path d="M318.93 109.196V106.909L330.258 106.908V109.196H318.93Z" fill="#7FCCC6"/>
</g>
</g>
<defs>
<filter id="filter0_d_329_16246" x="229.003" y="23.8762" width="136.285" height="136.285" filterUnits="userSpaceOnUse" color-interpolation-filters="sRGB">
<feFlood flood-opacity="0" result="BackgroundImageFix"/>
<feColorMatrix in="SourceAlpha" type="matrix" values="0 0 0 0 0 0 0 0 0 0 0 0 0 0 0 0 0 0 127 0" result="hardAlpha"/>
<feOffset dy="11.8509"/>
<feGaussianBlur stdDeviation="11.8509"/>
<feColorMatrix type="matrix" values="0 0 0 0 0.0996078 0 0 0 0 0.16 0 0 0 0 0.155294 0 0 0 0.25 0"/>
<feBlend mode="normal" in2="BackgroundImageFix" result="effect1_dropShadow_329_16246"/>
<feBlend mode="normal" in="SourceGraphic" in2="effect1_dropShadow_329_16246" result="shape"/>
</filter>
<filter id="filter1_d_329_16246" x="305.627" y="93.9939" width="37.063" height="37.0632" filterUnits="userSpaceOnUse" color-interpolation-filters="sRGB">
<feFlood flood-opacity="0" result="BackgroundImageFix"/>
<feColorMatrix in="SourceAlpha" type="matrix" values="0 0 0 0 0 0 0 0 0 0 0 0 0 0 0 0 0 0 127 0" result="hardAlpha"/>
<feOffset dy="4.47313"/>
<feGaussianBlur stdDeviation="4.47313"/>
<feColorMatrix type="matrix" values="0 0 0 0 0.2 0 0 0 0 0.2 0 0 0 0 0.2 0 0 0 0.275 0"/>
<feBlend mode="normal" in2="BackgroundImageFix" result="effect1_dropShadow_329_16246"/>
<feBlend mode="normal" in="SourceGraphic" in2="effect1_dropShadow_329_16246" result="shape"/>
</filter>
<linearGradient id="paint0_linear_329_16246" x1="297.145" y1="35.7271" x2="297.145" y2="124.609" gradientUnits="userSpaceOnUse">
<stop stop-color="#8EE4DE"/>
<stop offset="1" stop-color="#6BABA6"/>
</linearGradient>
<linearGradient id="paint1_linear_329_16246" x1="292.353" y1="66.2256" x2="292.353" y2="94.11" gradientUnits="userSpaceOnUse">
<stop stop-color="white"/>
<stop offset="1" stop-color="#D1D1D1"/>
</linearGradient>
<linearGradient id="paint2_linear_329_16246" x1="318.93" y1="67.9683" x2="318.93" y2="92.3671" gradientUnits="userSpaceOnUse">
<stop stop-color="white"/>
<stop offset="1" stop-color="#BFC3C7"/>
</linearGradient>
<linearGradient id="paint3_linear_329_16246" x1="324.159" y1="98.467" x2="324.159" y2="117.638" gradientUnits="userSpaceOnUse">
<stop stop-color="white"/>
<stop offset="1" stop-color="#D1D1D1"/>
</linearGradient>
<clipPath id="clip0_329_16246">
<rect width="393" height="376.44" fill="white"/>
</clipPath>
<clipPath id="clip1_329_16246">
<rect width="392.996" height="376.44" fill="white" transform="translate(0.00183105)"/>
</clipPath>
</defs>
</svg>
