<svg width="624" height="553" viewBox="0 0 624 553" fill="none" xmlns="http://www.w3.org/2000/svg">
<path opacity="0.05" d="M571 170C590.056 260.938 655.584 440.553 589.264 495.682C524.766 533.448 187.2 558.951 69.044 523.247C-42.504 489.541 9.97433 168.893 36.9998 116C92.9998 6.4004 156.625 29.0055 290.676 6.40039C424.599 -16.1832 540.548 24.6862 571 170Z" fill="#323B47"/>
<path d="M537.008 161.014H165.323V361.554H537.008V161.014Z" fill="#A9A8EB"/>
<rect x="192.616" y="172.904" width="304.891" height="174.664" rx="50.0236" fill="#7876F2"/>
<path d="M468.205 172.87L468.205 184.829L221.831 184.829C218.529 184.829 215.852 182.152 215.852 178.85C215.852 175.547 218.529 172.87 221.831 172.87L468.205 172.87Z" fill="#7876F2"/>
<path d="M242.144 176.006L245.168 179.036L242.144 182.067L239.12 179.036L242.144 176.006Z" fill="white"/>
<path d="M279.682 176.006L282.706 179.036L279.682 182.067L276.658 179.036L279.682 176.006Z" fill="white"/>
<path d="M319.515 176.006L322.539 179.036L319.515 182.067L316.491 179.036L319.515 176.006Z" fill="white"/>
<path d="M374.363 176.006L377.387 179.036L374.363 182.067L371.339 179.036L374.363 176.006Z" fill="white"/>
<path d="M411.901 176.006L414.925 179.036L411.901 182.067L408.877 179.036L411.901 176.006Z" fill="white"/>
<path d="M451.734 176.006L454.758 179.036L451.734 182.067L448.71 179.036L451.734 176.006Z" fill="white"/>
<g filter="url(#filter0_d)">
<path d="M215.694 184.86L337.054 184.86C335.942 188.947 332.231 191.783 327.995 191.783L229.024 191.783C223.719 191.783 218.745 189.2 215.694 184.86Z" fill="#A9A8EB"/>
</g>
<path d="M215.694 184.86L337.054 184.86C335.942 188.947 332.231 191.783 327.995 191.783L229.024 191.783C223.719 191.783 218.745 189.2 215.694 184.86Z" fill="#A9A8EB"/>
<g filter="url(#filter1_d)">
<path d="M204.544 194.932L204.544 325.221C208.924 321.53 211.452 316.093 211.452 310.365L211.452 208.758C211.452 203.319 208.893 198.197 204.544 194.932Z" fill="#A9A8EB"/>
</g>
<path d="M204.544 194.932L204.544 325.221C208.924 321.525 211.452 316.085 211.452 310.354L211.452 208.768C211.452 203.326 208.893 198.202 204.544 194.932Z" fill="#A9A8EB"/>
<g filter="url(#filter2_d)">
<path d="M485.577 194.932L485.577 325.221C481.197 321.53 478.669 316.093 478.669 310.365L478.669 208.758C478.669 203.319 481.228 198.197 485.577 194.932Z" fill="#A9A8EB"/>
</g>
<path d="M485.577 194.932L485.577 325.221C481.197 321.525 478.669 316.085 478.669 310.354L478.669 208.768C478.669 203.326 481.228 198.202 485.577 194.932Z" fill="#A9A8EB"/>
<g filter="url(#filter3_d)">
<path d="M215.694 335.608H337.054C335.942 331.52 332.231 328.684 327.995 328.684H229.024C223.719 328.684 218.745 331.267 215.694 335.608Z" fill="#A9A8EB"/>
</g>
<path d="M215.694 335.608H337.054C335.942 331.52 332.231 328.684 327.995 328.684H229.024C223.719 328.684 218.745 331.267 215.694 335.608Z" fill="#A9A8EB"/>
<g filter="url(#filter4_d)">
<path d="M474.43 184.859L353.07 184.859C354.182 188.946 357.893 191.783 362.129 191.783L461.1 191.783C466.405 191.783 471.379 189.2 474.43 184.859Z" fill="#A9A8EB"/>
</g>
<path d="M474.43 184.859L353.07 184.859C354.182 188.946 357.893 191.783 362.129 191.783L461.1 191.783C466.405 191.783 471.379 189.2 474.43 184.859Z" fill="#A9A8EB"/>
<g filter="url(#filter5_d)">
<path d="M474.43 335.606H353.07C354.182 331.519 357.893 328.683 362.129 328.683H461.1C466.405 328.683 471.379 331.266 474.43 335.606Z" fill="#B0BFC6"/>
</g>
<path d="M474.43 335.606H353.07C354.182 331.519 357.893 328.683 362.129 328.683H461.1C466.405 328.683 471.379 331.266 474.43 335.606Z" fill="#A9A8EB"/>
<rect x="471.018" y="335.696" width="11.9142" height="252.341" rx="5.95708" transform="rotate(90 471.018 335.696)" fill="#7876F2"/>
<path d="M374.356 338.623L377.38 341.653L374.356 344.684L371.332 341.653L374.356 338.623Z" fill="white"/>
<path d="M411.894 338.623L414.918 341.653L411.894 344.684L408.87 341.653L411.894 338.623Z" fill="white"/>
<path d="M451.727 338.623L454.751 341.653L451.727 344.684L448.703 341.653L451.727 338.623Z" fill="white"/>
<path d="M242.138 338.623L245.162 341.653L242.138 344.684L239.114 341.653L242.138 338.623Z" fill="white"/>
<path d="M279.676 338.623L282.7 341.653L279.676 344.684L276.652 341.653L279.676 338.623Z" fill="white"/>
<path d="M319.509 338.623L322.533 341.653L319.509 344.684L316.485 341.653L319.509 338.623Z" fill="white"/>
<path d="M497.509 319.342C497.509 322.625 494.848 325.286 491.565 325.286C488.283 325.286 485.622 322.625 485.622 319.342L485.622 205.136C485.622 199.322 490.335 194.608 496.15 194.608C496.9 194.608 497.509 195.217 497.509 195.967L497.509 319.342Z" fill="#7876F2"/>
<path d="M494.798 220.004L491.774 223.035L488.75 220.004L491.774 216.973L494.798 220.004Z" fill="white"/>
<path d="M494.798 257.627L491.774 260.658L488.75 257.627L491.774 254.597L494.798 257.627Z" fill="white"/>
<path d="M494.798 297.55L491.774 300.581L488.75 297.55L491.774 294.52L494.798 297.55Z" fill="white"/>
<circle cx="507.001" cy="298" r="12" fill="white"/>
<rect x="204.545" y="318.97" width="11.9319" height="122.779" transform="rotate(-180 204.545 318.97)" fill="#7876F2"/>
<path d="M201.787 218.75L198.763 221.781L195.739 218.75L198.763 215.719L201.787 218.75Z" fill="white"/>
<path d="M201.787 256.374L198.763 259.404L195.739 256.374L198.763 253.343L201.787 256.374Z" fill="white"/>
<path d="M201.787 296.296L198.763 299.327L195.739 296.296L198.763 293.265L201.787 296.296Z" fill="white"/>
<g filter="url(#filter6_i)">
<path fill-rule="evenodd" clip-rule="evenodd" d="M345.061 176.175C349.483 176.175 353.068 179.768 353.068 184.2C353.068 184.466 353.055 184.728 353.03 184.987H366.57L354.324 172.87H335.485L323.553 184.987H337.092C337.067 184.728 337.054 184.466 337.054 184.2C337.054 179.768 340.639 176.175 345.061 176.175Z" fill="#EEF2F7"/>
</g>
<path d="M353.069 184.994C353.399 179.35 349.484 176.175 345.062 176.175C340.64 176.175 337.055 179.141 337.055 184.994L345.062 184.994L353.069 184.994Z" fill="black"/>
<path d="M353.069 184.994C353.399 179.35 349.484 176.175 345.062 176.175C340.64 176.175 337.055 179.141 337.055 184.994C337.055 184.994 337.663 177.155 345.062 177.155C352.46 177.155 353.069 184.994 353.069 184.994Z" fill="#323B47"/>
<g filter="url(#filter7_i)">
<path fill-rule="evenodd" clip-rule="evenodd" d="M345.061 344.509C349.483 344.509 353.068 340.916 353.068 336.484C353.068 336.218 353.055 335.956 353.03 335.697H366.57L354.324 347.813H335.485L323.553 335.697H337.092C337.067 335.956 337.054 336.218 337.054 336.484C337.054 340.916 340.639 344.509 345.061 344.509Z" fill="#EEF2F7"/>
</g>
<path d="M353.069 335.69C353.399 341.334 349.484 344.509 345.062 344.509C340.64 344.509 337.055 341.543 337.055 335.69L345.062 335.69L353.069 335.69Z" fill="black"/>
<path d="M353.069 335.69C353.399 341.334 349.484 344.509 345.062 344.509C340.64 344.509 337.055 341.543 337.055 335.69C337.055 335.69 337.663 343.528 345.062 343.528C352.46 343.528 353.069 335.69 353.069 335.69Z" fill="#323B47"/>
<ellipse cx="481.321" cy="331.808" rx="8.00695" ry="8.0251" transform="rotate(180 481.321 331.808)" fill="black"/>
<path d="M487.804 329.02C487.495 328.103 485.306 324.828 485.306 324.828C485.306 324.828 488.225 326.396 489.055 329.02C489.425 330.19 489.851 331.137 489.889 332.364C489.932 333.749 489.656 334.565 489.055 335.813C488.363 337.248 487.761 338.049 486.448 338.948C485.499 339.598 484.747 340.023 483.633 340.307C481.817 340.769 480.809 340.729 479.045 340.098C477.694 339.614 476.032 338.205 475.504 337.578C474.869 336.824 474.565 335.813 474.565 335.813C474.565 335.813 476.251 337.193 477.168 337.694C478.315 338.321 479.01 338.545 480.192 338.739C481.478 338.95 481.829 338.831 483.116 338.623C484.121 338.461 485.134 337.812 485.927 337.171C486.749 336.506 487.314 335.686 487.704 334.757C488.183 333.614 488.429 333.502 488.429 331.423C488.429 330.576 488.122 329.968 487.804 329.02Z" fill="black"/>
<g filter="url(#filter8_i)">
<path fill-rule="evenodd" clip-rule="evenodd" d="M478.521 347.639C489.014 347.639 497.521 339.133 497.521 328.639V315.521C497.521 315.521 493.808 314.396 491.398 314.419C488.727 314.445 485.32 315.521 485.32 315.521V324.81C485.32 324.81 485.682 325.086 486.177 325.526C488.286 326.972 489.669 329.403 489.669 332.158C489.669 336.593 486.085 340.188 481.662 340.188C478.495 340.188 475.757 338.343 474.458 335.666C474.447 335.671 474.442 335.674 474.442 335.674C474.442 335.674 471.972 335.658 470.203 335.674C468.493 335.689 465.807 335.674 465.807 335.674C465.807 335.674 464.812 339.149 464.865 341.657C464.913 343.924 465.807 347.639 465.807 347.639H478.521Z" fill="#EEF2F7"/>
</g>
<ellipse opacity="0.8" rx="8.44617" ry="8.4653" transform="matrix(-1 0 0 1 482.177 187.815)" fill="black"/>
<path d="M488.013 191.575C487.704 192.492 485.206 195.976 485.206 195.976C485.206 195.976 488.138 193.568 489.06 191.575C489.575 190.461 490.06 189.458 490.098 188.231C490.141 186.846 489.865 186.03 489.264 184.782C488.572 183.347 487.97 182.546 486.657 181.647C485.708 180.997 484.956 180.572 483.842 180.288C482.026 179.826 480.814 179.868 479.05 180.5C477.699 180.984 476.037 182.392 475.509 183.019C474.874 183.774 474.153 185.005 474.153 185.005C474.153 185.005 476.46 183.402 477.377 182.901C478.524 182.274 479.219 182.049 480.401 181.856C481.687 181.645 482.038 181.764 483.325 181.971C484.33 182.133 485.343 182.783 486.136 183.423C486.958 184.088 487.523 184.909 487.913 185.838C488.392 186.981 488.638 187.092 488.638 189.171C488.638 190.019 488.331 190.627 488.013 191.575Z" fill="black"/>
<g filter="url(#filter9_i)">
<path fill-rule="evenodd" clip-rule="evenodd" d="M478.521 172.904C489.014 172.904 497.521 181.41 497.521 191.904V205.004C497.521 205.004 493.808 206.129 491.398 206.106C488.727 206.08 485.32 205.004 485.32 205.004V195.72C485.32 195.72 487.211 194.282 488.258 192.731C488.29 192.682 488.32 192.636 488.346 192.59C489.184 191.322 489.671 189.802 489.671 188.167C489.671 183.735 486.086 180.142 481.664 180.142C478.417 180.142 475.622 182.079 474.365 184.863C473.935 184.866 471.788 184.877 470.203 184.863C468.493 184.848 465.807 184.863 465.807 184.863C465.807 184.863 464.812 181.389 464.865 178.883C464.913 176.618 465.807 172.904 465.807 172.904H478.521Z" fill="white"/>
</g>
<path fill-rule="evenodd" clip-rule="evenodd" d="M211.611 172.907C201.118 172.907 192.611 181.414 192.611 191.907V205.008C192.611 205.008 196.324 206.132 198.734 206.109C201.405 206.084 204.812 205.008 204.812 205.008V195.724C204.812 195.724 202.92 194.286 201.874 192.734C201.842 192.686 201.812 192.639 201.785 192.593C200.948 191.325 200.461 189.805 200.461 188.171C200.461 183.739 204.046 180.146 208.468 180.146C211.715 180.146 214.51 182.083 215.767 184.867C216.196 184.869 218.344 184.88 219.929 184.866C221.639 184.851 224.325 184.866 224.325 184.866C224.325 184.866 225.32 181.393 225.267 178.887C225.219 176.621 224.325 172.907 224.325 172.907H211.611Z" fill="white"/>
<ellipse cx="208.543" cy="188.171" rx="8.00692" ry="8.02509" fill="black"/>
<path d="M202.209 191.359C202.517 192.276 204.811 195.76 204.811 195.76C204.811 195.76 201.88 193.352 200.958 191.359C200.442 190.245 200.162 189.242 200.124 188.015C200.08 186.63 200.356 185.814 200.958 184.566C201.65 183.131 202.251 182.33 203.565 181.431C204.514 180.781 205.266 180.356 206.38 180.072C208.196 179.61 209.204 179.649 210.968 180.281C212.319 180.765 213.981 182.173 214.509 182.8C215.144 183.555 215.864 184.786 215.864 184.786C215.864 184.786 213.761 183.186 212.845 182.685C211.698 182.058 211.003 181.833 209.821 181.64C208.535 181.429 208.183 181.548 206.897 181.755C205.892 181.917 204.878 182.567 204.086 183.207C203.264 183.872 202.699 184.693 202.309 185.622C201.83 186.764 201.583 186.876 201.583 188.955C201.583 189.803 201.89 190.411 202.209 191.359Z" fill="black"/>
<g filter="url(#filter10_i)">
<path fill-rule="evenodd" clip-rule="evenodd" d="M211.611 347.621C201.118 347.621 192.611 339.114 192.611 328.621V315.52C192.611 315.52 196.324 314.396 198.734 314.419C201.405 314.444 204.812 315.52 204.812 315.52V324.804C204.812 324.804 202.92 326.242 201.874 327.794C201.842 327.842 201.812 327.889 201.785 327.934C200.948 329.202 200.461 330.723 200.461 332.357C200.461 336.789 204.046 340.382 208.468 340.382C211.715 340.382 214.51 338.445 215.767 335.661C216.196 335.659 218.344 335.648 219.929 335.662C221.639 335.677 224.325 335.662 224.325 335.662C224.325 335.662 225.32 339.135 225.267 341.641C225.219 343.907 224.325 347.621 224.325 347.621H211.611Z" fill="#EEF2F7"/>
</g>
<mask id="path-55-inside-1" fill="white">
<path d="M215.585 332.489C215.585 328.824 212.621 325.853 208.965 325.853C205.309 325.853 202.345 328.824 202.345 332.489C202.345 336.153 205.309 339.124 208.965 339.124C212.621 339.124 215.585 336.153 215.585 332.489Z"/>
</mask>
<path d="M213.971 332.489C213.971 329.712 211.726 327.467 208.965 327.467V324.24C213.515 324.24 217.198 327.936 217.198 332.489H213.971ZM208.965 327.467C206.203 327.467 203.958 329.712 203.958 332.489H200.731C200.731 327.936 204.414 324.24 208.965 324.24V327.467ZM203.958 332.489C203.958 335.265 206.203 337.51 208.965 337.51V340.737C204.414 340.737 200.731 337.041 200.731 332.489H203.958ZM208.965 337.51C211.726 337.51 213.971 335.265 213.971 332.489H217.198C217.198 337.041 213.515 340.737 208.965 340.737V337.51Z" fill="rgb(108, 117, 125)" mask="url(#path-55-inside-1)"/>
<ellipse rx="8.00692" ry="8.02511" transform="matrix(1 0 0 -1 208.469 332.226)" fill="black"/>
<path d="M202.413 328.799C202.973 327.134 204.811 324.723 204.811 324.723C204.811 324.723 202.084 326.807 201.162 328.799C200.646 329.913 200.366 330.916 200.328 332.143C200.284 333.529 200.56 334.344 201.162 335.592C201.854 337.027 202.455 337.829 203.769 338.727C204.718 339.377 205.47 339.803 206.584 340.086C208.4 340.548 209.408 340.509 211.172 339.877C212.523 339.393 213.772 338.414 214.3 337.787C214.935 337.032 215.76 335.592 215.76 335.592C215.76 335.592 213.965 336.972 213.049 337.473C211.902 338.1 211.207 338.325 210.025 338.518C208.739 338.729 208.392 338.517 207.105 338.309C206.1 338.147 205.082 337.592 204.29 336.951C203.468 336.286 203.031 335.523 202.622 334.547C202.142 333.405 201.813 332.442 201.788 331.203C201.767 330.202 202.094 329.747 202.413 328.799Z" fill="black"/>
<path d="M271.858 257.315L281.858 263.088L281.858 251.541L271.858 257.315ZM286.283 258.315L295.9 258.315L295.9 256.315L286.283 256.315L286.283 258.315ZM305.516 258.315L315.132 258.315L315.132 256.315L305.516 256.315L305.516 258.315ZM324.749 258.315L334.365 258.315L334.365 256.315L324.749 256.315L324.749 258.315ZM343.982 258.315L353.598 258.315L353.598 256.315L343.982 256.315L343.982 258.315ZM363.215 258.315L372.831 258.315L372.831 256.315L363.215 256.315L363.215 258.315ZM382.448 258.315L392.064 258.315L392.064 256.315L382.448 256.315L382.448 258.315ZM401.68 258.315L406.489 258.315L406.489 256.315L401.68 256.315L401.68 258.315Z" fill="white"/>
<path opacity="0.2" d="M213.547 323.947L221.702 315.781L210.551 312.788L213.547 323.947ZM218.264 310.155L220.765 300.787L218.834 300.269L216.333 309.636L218.264 310.155ZM223.266 291.419L224.517 286.736L222.585 286.217L221.335 290.901L223.266 291.419Z" fill="white"/>
<path opacity="0.2" d="M215.631 196.157L223.696 204.413L212.512 207.283L215.631 196.157ZM218.658 203.976L220.03 209.354L218.093 209.851L216.721 204.473L218.658 203.976ZM221.403 214.732L222.775 220.11L220.838 220.607L219.466 215.229L221.403 214.732ZM224.147 225.488L224.834 228.177L222.897 228.674L222.21 225.985L224.147 225.488Z" fill="white"/>
<path d="M546.376 257.872L545.904 256.926L544.487 261.816L545.589 261.343L546.376 257.872Z" fill="#FFBE9D"/>
<rect width="1.57559" height="5.57952" rx="0.787795" transform="matrix(0.764575 -0.644535 0.642826 0.766012 444.723 257.034)" fill="#222B4C"/>
<path d="M544.216 258.803L437.766 255.663V256.925L544.216 263.24C544.216 263.24 544.022 259.657 544.216 258.803Z" fill="#3E2622"/>
<path d="M546.063 257.714C546.174 257.436 546.086 257.083 545.889 256.797C545.429 256.128 544.617 256.747 544.288 257.49L543.055 260.269C542.706 261.057 543.321 261.932 544.18 261.871C544.651 261.838 545.054 261.519 545.182 261.065C545.647 259.417 545.843 258.265 546.063 257.714Z" fill="#FFBE9D"/>
<path d="M513.008 253.928L522.295 251.877H531.425L530.953 260.081L522.295 261.186L511.119 259.45L513.008 253.928Z" fill="#EEF2F7"/>
<path d="M519.012 310.608L519.215 310.35C520.727 308.426 520.048 305.992 517.729 305.139L517.538 305.077C517.271 304.971 516.963 304.91 516.631 304.899C516.3 304.888 515.954 304.927 515.616 305.012L514.557 305.296C513.942 305.464 513.314 305.558 512.699 305.573L509.664 305.697C508.936 305.716 508.188 305.828 507.458 306.025C507.458 306.025 507.194 306.024 507.08 306.127C506.709 306.464 500.413 310.905 501.042 312.727C501.609 314.37 508.804 315.425 509.651 315.197C510.498 314.969 511.313 314.636 512.044 314.219L514.648 312.727C515.236 312.383 515.889 312.109 516.575 311.919L517.375 311.681C517.714 311.572 518.034 311.421 518.314 311.237C518.596 311.052 518.835 310.838 519.012 310.608Z" fill="#25282F"/>
<path opacity="0.5" d="M505.294 307.569C505.295 307.569 505.292 307.57 505.294 307.569C505.293 307.569 505.293 307.569 505.293 307.569C505.293 307.569 500.453 311.198 501.043 312.776C501.574 314.196 507.182 314.984 507.182 314.984L505.293 307.569L505.294 307.569Z" fill="black"/>
<path d="M510.633 311.485C510.623 311.463 510.624 311.438 510.632 311.416C510.703 311.03 510.687 310.634 510.586 310.256C510.485 309.877 510.301 309.526 510.047 309.228C510.024 309.197 510.016 309.159 510.02 309.121C510.023 309.083 510.041 309.048 510.071 309.023C510.099 308.998 510.136 308.984 510.175 308.984C510.213 308.985 510.248 308.999 510.277 309.025C510.568 309.359 510.778 309.755 510.892 310.183C511.007 310.61 511.022 311.059 510.937 311.493C510.925 311.532 510.901 311.565 510.868 311.587C510.836 311.608 510.796 311.617 510.756 311.612C510.726 311.603 510.698 311.587 510.678 311.565C510.655 311.543 510.641 311.515 510.633 311.485Z" fill="white"/>
<path d="M509.869 311.69C509.859 311.667 509.86 311.642 509.868 311.62C509.939 311.235 509.925 310.838 509.824 310.46C509.723 310.081 509.537 309.73 509.284 309.432C509.264 309.419 509.246 309.402 509.235 309.381C509.222 309.361 509.214 309.338 509.214 309.314C509.211 309.29 509.215 309.266 509.224 309.244C509.233 309.222 509.248 309.202 509.266 309.187C509.283 309.171 509.304 309.16 509.328 309.153C509.35 309.147 509.374 309.147 509.397 309.152C509.422 309.156 509.443 309.167 509.462 309.181C509.481 309.196 509.497 309.215 509.506 309.237C509.797 309.57 510.007 309.967 510.121 310.394C510.236 310.822 510.251 311.27 510.166 311.705C510.154 311.744 510.13 311.777 510.097 311.798C510.065 311.82 510.025 311.829 509.985 311.823C509.955 311.814 509.93 311.795 509.909 311.772C509.888 311.749 509.875 311.72 509.869 311.69Z" fill="white"/>
<path d="M509.117 311.891C509.109 311.869 509.108 311.844 509.117 311.821C509.188 311.436 509.172 311.04 509.071 310.662C508.969 310.283 508.786 309.932 508.532 309.634C508.519 309.619 508.509 309.601 508.502 309.583C508.495 309.564 508.493 309.543 508.494 309.524C508.495 309.504 508.501 309.484 508.509 309.466C508.517 309.448 508.529 309.432 508.546 309.418C508.561 309.405 508.578 309.395 508.597 309.388C508.615 309.382 508.636 309.379 508.655 309.38C508.675 309.381 508.695 309.387 508.712 309.396C508.731 309.404 508.747 309.416 508.76 309.431C509.051 309.765 509.263 310.161 509.377 310.588C509.492 311.017 509.505 311.465 509.42 311.9C509.41 311.938 509.386 311.971 509.352 311.993C509.319 312.015 509.279 312.024 509.239 312.018C509.209 312.009 509.183 311.993 509.161 311.971C509.14 311.949 509.125 311.921 509.117 311.891Z" fill="white"/>
<path d="M514.109 302.363C515.788 299.839 519.682 294.601 521.822 293.843C523.963 293.086 533.313 285.745 537.721 282.169L541.656 271.756C544.28 272.913 547.225 275.782 546.47 281.336C545.714 286.889 545.539 290.372 544.49 291.004C542.391 293.423 537.689 298.671 535.675 300.312C533.66 301.953 523.816 308.463 519.146 311.513C519.146 311.513 515.297 310.597 514.109 308.674C512.815 306.578 514.109 302.363 514.109 302.363Z" fill="#323B47"/>
<path d="M487.666 270.494L490.972 281.537C490.972 281.537 495.093 281.707 497.583 282.484C503.25 284.251 523.083 293.528 523.083 293.528C523.083 293.528 533.974 288.902 537.88 283.115C540.445 279.315 541.658 271.756 541.658 271.756C541.658 271.756 531.402 266.949 525.287 263.394C519.989 260.313 512.38 254.875 512.38 254.875C512.38 254.875 509.107 257.047 506.713 257.557C504.548 258.017 501.046 257.557 501.046 257.557C501.046 257.557 501.793 263.801 499.472 266.707C496.568 270.342 487.666 270.494 487.666 270.494Z" fill="#323B47"/>
<path d="M490.972 281.537L487.666 270.494L492.861 268.895L530.482 290.036C526.576 295.823 523.083 293.528 523.083 293.528C523.083 293.528 503.25 284.251 497.583 282.484C495.093 281.708 490.972 281.537 490.972 281.537Z" fill="#2B333F"/>
<path d="M489.079 270.788V267.632C489.079 267.632 496.882 267.129 498.996 263.53C500.742 260.557 498.996 254.853 498.996 254.853L501.357 256.273C501.357 256.273 502.929 261.9 501.357 265.108C499.051 269.814 489.079 270.788 489.079 270.788Z" fill="white"/>
<path d="M487.821 267.969V265.283C487.821 265.283 494.447 264.854 496.242 261.79C497.725 259.258 496.242 254.401 496.242 254.401L498.247 255.61C498.247 255.61 499.581 260.402 498.247 263.133C496.289 267.14 487.821 267.969 487.821 267.969Z" fill="#DFC5A2"/>
<path d="M499.156 258.345C499.156 263.486 494.066 267.653 487.787 267.653C481.509 267.653 478.692 263.486 478.692 258.345C478.692 253.204 481.509 249.037 487.787 249.037C494.066 249.037 499.156 253.204 499.156 258.345Z" fill="#DFC5A2"/>
<path d="M482.246 250.564C482.246 250.564 483.872 250.314 484.426 250.773C484.868 251.539 483.256 251.719 482.536 251.965C481.833 252.206 481.162 252.622 480.624 253.139C479.768 253.961 479.921 254.505 479.597 255.748C479.338 256.739 479.35 257.568 479.347 258.615C479.343 260.09 479.845 260.919 480.447 262.302C481.008 263.591 482.246 265.424 482.246 265.424L480.624 265.402C480.624 265.402 483.29 267.14 485.361 267.785C487.473 268.444 491.108 268.623 491.108 268.623C491.108 268.623 494.518 268.317 496.297 267.222C497.913 266.228 498.84 265.443 499.663 263.673C500.409 262.07 500.377 260.925 500.387 259.09C500.398 257.244 499.867 256.938 499.154 255.19C498.348 253.216 497.858 252.644 496.162 251.404C494.459 250.159 493.487 249.413 491.44 249.317C490.181 249.259 488.292 249.038 487.19 249.038C486.228 249.038 485.363 249.137 484.426 249.259C483.324 249.402 482.246 250.564 482.246 250.564Z" fill="#531A09"/>
<path d="M492.159 251.523C489.294 249.965 484.156 250.389 484.156 250.389C484.156 250.389 489.066 251.022 491.855 252.659C494.747 254.357 498.826 257.272 498.826 257.272C498.826 257.272 495.354 253.26 492.159 251.523Z" fill="#7D3D29"/>
<path d="M455.449 260.709L471.133 269.232L466.883 276.962L451.614 265.761L455.449 260.709Z" fill="white"/>
<path d="M470.976 269.232L487.032 270.652L490.81 280.591L466.568 276.805L470.976 269.232Z" fill="#EEF2F7"/>
<path d="M530.952 253.208C530.952 252.542 531.591 252.062 532.23 252.247L538.036 253.928L544.817 256.148C545.335 256.317 545.622 256.869 545.463 257.39L544.265 261.318C544.122 261.787 543.66 262.083 543.174 262.017L537.091 261.186L531.775 260.229C531.299 260.143 530.952 259.729 530.952 259.245V253.208Z" fill="white"/>
<path d="M541.813 272.071L543.545 272.86C543.545 272.86 544.172 277.259 543.545 279.96C542.853 282.939 539.925 286.901 539.925 286.901C539.925 286.901 535.851 291.097 532.526 292.581C528.667 294.304 521.822 294.159 521.822 294.159C521.822 294.159 529.974 290.741 533.471 286.901C535.632 284.528 537.827 282.691 539.137 279.96C540.604 276.904 541.813 272.071 541.813 272.071Z" fill="white"/>
<rect width="1.57601" height="6.06252" rx="0.788003" transform="matrix(0.681789 -0.731549 0.729997 0.683451 443.114 258.709)" fill="#DFC5A2"/>
<rect width="1.57676" height="6.05977" rx="0.788382" transform="matrix(0.509515 -0.860462 0.859444 0.51123 442.803 261.438)" fill="#DFC5A2"/>
<path d="M450.67 258.661C452.018 258.648 452.03 258.759 453.188 259.449C454.171 260.035 456.022 261.185 456.022 261.185L451.615 265.445L450.67 265.445C450.67 265.445 446.105 264.397 446.105 263.236C446.106 262.762 448.125 258.685 450.67 258.661Z" fill="#222B4C"/>
<rect x="452.562" y="256.926" width="1.57413" height="3.47095" rx="0.787064" fill="#222B4C"/>
<rect width="1.57521" height="6.49834" rx="0.787604" transform="matrix(0.827621 -0.561288 0.559536 0.828806 446.577 255.285)" fill="#222B4C"/>
<path d="M438.079 256.926H437.766C437.417 256.926 437.135 256.643 437.135 256.294C437.135 255.946 437.417 255.663 437.766 255.663H438.079V256.926Z" fill="#323B47"/>
<ellipse rx="3.1282" ry="3.07382" transform="matrix(-1 0 0 1 232.024 249.851)" fill="#7876F2"/>
<path opacity="0.7" d="M233.796 249.895C233.796 250.835 233.462 251.462 233.692 251.462C233.923 251.462 234.526 250.529 234.526 249.895C234.526 249.26 234.027 248.536 233.796 248.536C233.566 248.536 233.796 248.954 233.796 249.895Z" fill="#FFF7F7"/>
<ellipse rx="3.1282" ry="3.07383" transform="matrix(-1 0 0 1 232.024 243.163)" fill="white"/>
<path d="M234.465 241.198L234.246 245.315C234.246 245.315 233.575 246.339 231.9 246.237C230.336 246.141 229.647 245.176 229.647 245.176V241.096C229.647 241.096 230.59 239.948 232.056 239.966C233.522 239.985 234.465 241.198 234.465 241.198Z" fill="#B72025"/>
<ellipse rx="3.12819" ry="3.07383" transform="matrix(-1 0 0 1 237.652 246.716)" fill="#B72025"/>
<path opacity="0.7" d="M239.424 246.759C239.424 247.699 239.09 248.326 239.32 248.326C239.55 248.326 240.154 247.394 240.154 246.759C240.154 246.124 239.655 245.4 239.424 245.4C239.194 245.4 239.424 245.818 239.424 246.759Z" fill="#FFF7F7"/>
<ellipse rx="3.1282" ry="3.07382" transform="matrix(-1 0 0 1 243.91 249.851)" fill="white"/>
<path d="M246.351 247.887L246.132 252.003C246.132 252.003 245.461 253.028 243.785 252.925C242.221 252.83 241.533 251.865 241.533 251.865V247.784C241.533 247.784 242.476 246.636 243.942 246.655C245.408 246.674 246.351 247.887 246.351 247.887Z" fill="#FA8FA4"/>
<ellipse rx="3.12821" ry="3.07383" transform="matrix(-1 0 0 1 249.541 253.196)" fill="#891951"/>
<path opacity="0.7" d="M251.313 253.239C251.313 254.18 250.978 254.807 251.209 254.807C251.439 254.807 252.043 253.874 252.043 253.239C252.043 252.604 251.543 251.88 251.313 251.88C251.083 251.88 251.313 252.298 251.313 253.239Z" fill="#FFF7F7"/>
<ellipse rx="3.1282" ry="3.07381" transform="matrix(-1 0 0 1 243.91 256.749)" fill="#323B47"/>
<path opacity="0.7" d="M245.682 256.792C245.682 257.733 245.348 258.36 245.578 258.36C245.808 258.36 246.412 257.427 246.412 256.792C246.412 256.157 245.913 255.433 245.682 255.433C245.452 255.433 245.682 255.851 245.682 256.792Z" fill="#FFF7F7"/>
<ellipse rx="3.1282" ry="3.07381" transform="matrix(-1 0 0 1 243.91 263.856)" fill="#7876F2"/>
<path opacity="0.7" d="M245.682 263.899C245.682 264.84 245.348 265.467 245.578 265.467C245.808 265.467 246.412 264.534 246.412 263.899C246.412 263.264 245.913 262.541 245.682 262.541C245.452 262.541 245.682 262.959 245.682 263.899Z" fill="#FFF7F7"/>
<ellipse rx="3.12821" ry="3.07381" transform="matrix(-1 0 0 1 249.541 260.72)" fill="white"/>
<path d="M251.981 258.756L251.762 262.872C251.762 262.872 251.092 263.897 249.416 263.794C247.852 263.698 247.164 262.734 247.164 262.734V258.653C247.164 258.653 248.107 257.505 249.573 257.524C251.039 257.542 251.981 258.756 251.981 258.756Z" fill="#891951"/>
<ellipse rx="3.12818" ry="3.07382" transform="matrix(-1 0 0 1 255.173 256.958)" fill="white"/>
<path d="M257.613 254.994L257.394 259.11C257.394 259.11 256.724 260.134 255.048 260.032C253.484 259.936 252.796 258.971 252.796 258.971V254.891C252.796 254.891 253.738 253.743 255.205 253.761C256.671 253.78 257.613 254.994 257.613 254.994Z" fill="#7876F2"/>
<ellipse rx="3.12816" ry="3.07385" transform="matrix(-1 0 0 1 415.127 257.376)" fill="white"/>
<ellipse rx="3.12819" ry="3.07379" transform="matrix(-1 0 0 1 237.652 253.614)" fill="white"/>
<path d="M240.093 251.649L239.874 255.765C239.874 255.765 239.203 256.79 237.528 256.688C235.964 256.592 235.275 255.627 235.275 255.627V251.547C235.275 251.547 236.218 250.398 237.684 250.417C239.15 250.436 240.093 251.649 240.093 251.649Z" fill="#0C4E42"/>
<ellipse rx="3.12819" ry="3.07383" transform="matrix(-1 0 0 1 237.652 260.302)" fill="#FA8FA4"/>
<path opacity="0.7" d="M239.424 260.345C239.424 261.286 239.09 261.913 239.32 261.913C239.55 261.913 240.154 260.98 240.154 260.345C240.154 259.71 239.655 258.986 239.424 258.986C239.194 258.986 239.424 259.404 239.424 260.345Z" fill="#FFF7F7"/>
<ellipse rx="3.12819" ry="3.07381" transform="matrix(-1 0 0 1 237.652 266.991)" fill="white"/>
<path d="M240.093 265.026L239.874 269.142C239.874 269.142 239.203 270.167 237.528 270.065C235.964 269.969 235.275 269.004 235.275 269.004V264.924C235.275 264.924 236.218 263.775 237.684 263.794C239.15 263.813 240.093 265.026 240.093 265.026Z" fill="#7876F2"/>
<ellipse rx="3.1282" ry="3.07381" transform="matrix(-1 0 0 1 232.024 257.167)" fill="#F58020"/>
<path opacity="0.7" d="M233.796 257.21C233.796 258.151 233.462 258.778 233.692 258.778C233.923 258.778 234.526 257.845 234.526 257.21C234.526 256.575 234.027 255.851 233.796 255.851C233.566 255.851 233.796 256.269 233.796 257.21Z" fill="#FFF7F7"/>
<ellipse rx="3.1282" ry="3.07382" transform="matrix(-1 0 0 1 232.024 264.064)" fill="white"/>
<path d="M234.465 262.1L234.246 266.216C234.246 266.216 233.575 267.241 231.9 267.138C230.336 267.042 229.647 266.078 229.647 266.078V261.997C229.647 261.997 230.59 260.849 232.056 260.868C233.522 260.886 234.465 262.1 234.465 262.1Z" fill="#F58020"/>
<ellipse rx="3.1282" ry="3.07382" transform="matrix(-1 0 0 1 232.024 270.962)" fill="#0D6064"/>
<path opacity="0.7" d="M233.796 271.005C233.796 271.946 233.462 272.573 233.692 272.573C233.923 272.573 234.526 271.64 234.526 271.005C234.526 270.37 234.027 269.647 233.796 269.647C233.566 269.647 233.796 270.065 233.796 271.005Z" fill="#FFF7F7"/>
<path d="M224.806 243.818L224.806 235.3L225.805 235.299L225.805 232.775L227.986 234.037L228.486 233.17L235.847 237.429L235.347 238.296L242.707 242.555L243.208 241.689L250.568 245.948L250.068 246.815L257.429 251.074L257.929 250.207L265.29 254.467L264.789 255.334L266.973 256.597L264.791 257.86L265.29 258.726L257.929 262.986L257.43 262.119L250.069 266.378L250.568 267.245L243.208 271.504L242.709 270.638L235.348 274.897L235.847 275.764L228.486 280.023L227.987 279.156L225.805 280.419L225.805 277.892L224.806 277.893L224.806 269.375L225.805 269.374L225.805 260.855L224.806 260.856L224.806 252.337L225.805 252.336L225.805 243.817L224.806 243.818Z" stroke="#6BAEA9" stroke-width="2" stroke-dasharray="10 10"/>
<path fill-rule="evenodd" clip-rule="evenodd" d="M152.599 160.933C152.599 155.963 156.628 151.933 161.599 151.933H537.818C542.789 151.933 546.818 155.963 546.818 160.933V386.893C546.818 391.864 542.789 395.893 537.818 395.893H161.599C156.628 395.893 152.599 391.864 152.599 386.893V160.933ZM529.006 161.014C533.425 161.014 537.006 164.596 537.006 169.014V353.554C537.006 357.972 533.425 361.554 529.006 361.554H173.321C168.903 361.554 165.321 357.972 165.321 353.554V169.014C165.321 164.596 168.903 161.014 173.321 161.014H529.006Z" fill="#EEF2F7"/>
<path d="M536.473 369.27H165.267V370.06H536.473V369.27Z" fill="#EEF2F7"/>
<path d="M528.069 380.47H527.346V384.095H528.069V380.47Z" fill="#7876F2"/>
<path d="M530.911 380.47H527.381V381.195H530.911V380.47Z" fill="#7876F2"/>
<path d="M536.946 380.499H533.33V381.224H536.946V380.499Z" fill="#7876F2"/>
<path d="M536.95 380.537H536.227V384.076H536.95V380.537Z" fill="#7876F2"/>
<path d="M536.95 386.166H536.227V389.792H536.95V386.166Z" fill="#7876F2"/>
<path d="M536.908 389.065H533.378V389.79H536.908V389.065Z" fill="#7876F2"/>
<path d="M530.962 389.037H527.346V389.762H530.962V389.037Z" fill="#7876F2"/>
<path d="M528.069 386.194H527.346V389.734H528.069V386.194Z" fill="#7876F2"/>
<path opacity="0.2" d="M485.746 383.761H186.384C185.632 383.761 185.023 384.372 185.023 385.125V385.135C185.023 385.889 185.632 386.499 186.384 386.499H485.746C486.498 386.499 487.107 385.889 487.107 385.135V385.125C487.107 384.372 486.498 383.761 485.746 383.761Z" fill="rgb(108, 117, 125)"/>
<path d="M347.879 383.761H186.384C185.632 383.761 185.023 384.372 185.023 385.125V385.135C185.023 385.889 185.632 386.499 186.384 386.499H347.879C348.631 386.499 349.24 385.889 349.24 385.135V385.125C349.24 384.372 348.631 383.761 347.879 383.761Z" fill="#7876F2"/>
<path opacity="0.1" d="M347.879 383.761H186.384C185.632 383.761 185.023 384.372 185.023 385.125V385.135C185.023 385.889 185.632 386.499 186.384 386.499H347.879C348.631 386.499 349.24 385.889 349.24 385.135V385.125C349.24 384.372 348.631 383.761 347.879 383.761Z" fill="#EEF2F7"/>
<path d="M500.38 385.336V386.032H497.763V385.336H500.38Z" fill="#7876F2"/>
<path d="M503.645 385.336V386.032H501.019V385.336H503.645Z" fill="#7876F2"/>
<path d="M503.947 388.989L506.907 381.271H507.63L504.661 388.989H503.947Z" fill="#7876F2"/>
<path d="M510.544 385.336V386.032H507.918V385.336H510.544Z" fill="#7876F2"/>
<path d="M513.765 385.336V386.032H511.148V385.336H513.765Z" fill="#7876F2"/>
<path d="M178.123 385.135L169.835 380.337V389.924L178.123 385.135Z" fill="#7876F2"/>
<g opacity="0.3">
<path opacity="0.3" d="M204.222 291.31C204.314 291.301 204.399 291.257 204.461 291.187C204.522 291.117 204.555 291.026 204.552 290.933V290.174C204.501 289.876 204.513 289.57 204.586 289.276C204.66 288.982 204.793 288.707 204.979 288.468C205.046 288.382 205.132 288.313 205.229 288.265C205.327 288.216 205.434 288.19 205.543 288.188C205.634 288.184 205.721 288.148 205.791 288.089C205.86 288.029 205.906 287.947 205.924 287.857C205.92 287.765 205.886 287.677 205.826 287.607C205.766 287.538 205.684 287.491 205.593 287.475C205.401 287.482 205.212 287.528 205.038 287.61C204.863 287.691 204.707 287.806 204.577 287.948C204.105 288.422 203.917 289.181 203.963 290.22V290.979C203.846 291.193 203.988 291.31 204.222 291.31Z" fill="black"/>
</g>
<path d="M544.93 240.22C545.171 243.547 545.333 246.896 545.414 250.264L544.915 250.276C544.955 251.949 544.975 253.626 544.975 255.308C544.975 256.99 544.955 258.667 544.915 260.34L545.414 260.352C545.333 263.721 545.171 267.069 544.93 270.396L544.431 270.36C544.188 273.711 543.864 277.04 543.462 280.345L543.958 280.405C543.552 283.747 543.065 287.064 542.499 290.355L542.007 290.27C541.438 293.579 540.791 296.86 540.066 300.112L540.554 300.221C539.822 303.505 539.012 306.758 538.125 309.98L537.643 309.847C536.753 313.081 535.786 316.283 534.743 319.451L535.218 319.607C534.167 322.8 533.041 325.958 531.84 329.08L531.373 328.9C530.17 332.029 528.892 335.12 527.541 338.172L527.999 338.374C526.639 341.446 525.207 344.478 523.704 347.468L523.258 347.244C521.753 350.237 520.178 353.188 518.533 356.094L518.968 356.34C517.315 359.262 515.593 362.139 513.803 364.969L513.38 364.702C511.591 367.532 509.734 370.314 507.812 373.048L508.221 373.335C506.291 376.08 504.296 378.775 502.237 381.418L501.842 381.111C499.786 383.751 497.667 386.339 495.486 388.874L495.865 389.2C493.678 391.742 491.429 394.23 489.122 396.661L488.759 396.317C486.456 398.743 484.095 401.112 481.677 403.423L482.022 403.784C479.599 406.1 477.118 408.357 474.584 410.553L474.256 410.175C471.729 412.364 469.148 414.492 466.515 416.557L466.824 416.951C464.187 419.018 461.499 421.022 458.76 422.961L458.471 422.553C455.744 424.484 452.967 426.349 450.143 428.147L450.412 428.569C447.587 430.368 444.715 432.099 441.798 433.76L441.551 433.326C438.649 434.979 435.703 436.563 432.714 438.075L432.94 438.521C429.954 440.033 426.925 441.473 423.857 442.839L423.654 442.383C420.605 443.741 417.517 445.026 414.391 446.237L414.572 446.703C411.453 447.911 408.297 449.045 405.107 450.102L404.95 449.627C401.784 450.676 398.584 451.65 395.352 452.545L395.485 453.027C392.265 453.92 389.012 454.735 385.73 455.472L385.621 454.984C382.37 455.713 379.089 456.365 375.781 456.937L375.866 457.43C372.577 457.999 369.26 458.489 365.918 458.899L365.857 458.402C362.553 458.807 359.224 459.133 355.873 459.378L355.91 459.877C352.583 460.119 349.234 460.283 345.866 460.364L345.854 459.865C344.181 459.905 342.504 459.925 340.822 459.925C339.14 459.925 337.463 459.905 335.79 459.865L335.778 460.364C332.409 460.283 329.061 460.119 325.734 459.876L325.771 459.378C322.419 459.133 319.091 458.807 315.787 458.402L315.726 458.899C312.384 458.489 309.067 457.999 305.778 457.43L305.863 456.937C302.555 456.365 299.274 455.713 296.023 454.984L295.914 455.472C292.632 454.735 289.379 453.92 286.159 453.027L286.292 452.545C283.06 451.65 279.86 450.676 276.694 449.627L276.537 450.102C273.347 449.045 270.191 447.911 267.072 446.703L267.253 446.237C264.127 445.026 261.039 443.741 257.99 442.383L257.787 442.839C254.719 441.473 251.69 440.033 248.704 438.521L248.93 438.075C245.941 436.563 242.995 434.979 240.093 433.326L239.846 433.76C236.929 432.099 234.057 430.368 231.232 428.569L231.5 428.147C228.677 426.349 225.9 424.484 223.173 422.553L222.884 422.961C220.145 421.022 217.457 419.018 214.82 416.95L215.129 416.557C212.496 414.492 209.915 412.364 207.387 410.175L207.06 410.553C204.526 408.357 202.045 406.1 199.622 403.784L199.967 403.423C197.549 401.112 195.188 398.743 192.885 396.317L192.522 396.661C190.215 394.23 187.966 391.742 185.779 389.2L186.158 388.874C183.977 386.339 181.858 383.751 179.802 381.111L179.407 381.418C177.348 378.775 175.353 376.08 173.423 373.335L173.832 373.048C171.91 370.314 170.053 367.532 168.264 364.702L167.841 364.969C166.051 362.139 164.329 359.262 162.676 356.34L163.111 356.094C161.466 353.188 159.891 350.237 158.386 347.244L157.94 347.468C156.437 344.478 155.004 341.446 153.645 338.374L154.103 338.172C152.752 335.12 151.474 332.029 150.271 328.9L149.804 329.08C148.603 325.958 147.477 322.8 146.426 319.607L146.901 319.451C145.858 316.283 144.891 313.081 144.001 309.847L143.519 309.98C142.632 306.758 141.822 303.504 141.09 300.221L141.578 300.112C140.853 296.86 140.206 293.579 139.637 290.27L139.144 290.355C138.579 287.064 138.092 283.747 137.685 280.405L138.182 280.345C137.78 277.04 137.456 273.711 137.213 270.36L136.714 270.396C136.473 267.069 136.311 263.721 136.23 260.352L136.729 260.34C136.689 258.667 136.669 256.99 136.669 255.308C136.669 253.626 136.689 251.949 136.729 250.276L136.23 250.264C136.311 246.895 136.473 243.547 136.714 240.22L137.213 240.256C137.456 236.905 137.78 233.576 138.182 230.271L137.686 230.211C138.092 226.869 138.579 223.552 139.144 220.261L139.637 220.346C140.206 217.037 140.853 213.756 141.578 210.504L141.09 210.395C141.822 207.112 142.632 203.858 143.519 200.636L144.001 200.769C144.891 197.535 145.858 194.333 146.901 191.165L146.426 191.009C147.477 187.816 148.603 184.658 149.804 181.536L150.271 181.716C151.474 178.588 152.752 175.496 154.103 172.444L153.645 172.242C155.005 169.17 156.437 166.138 157.94 163.148L158.386 163.372C159.891 160.379 161.466 157.429 163.111 154.522L162.676 154.276C164.329 151.354 166.051 148.477 167.841 145.647L168.264 145.914C170.053 143.084 171.91 140.302 173.832 137.568L173.423 137.281C175.353 134.536 177.348 131.841 179.407 129.198L179.802 129.505C181.858 126.865 183.977 124.277 186.158 121.743L185.779 121.417C187.966 118.874 190.215 116.386 192.522 113.955L192.885 114.3C195.188 111.873 197.549 109.504 199.967 107.193L199.622 106.832C202.045 104.516 204.526 102.259 207.06 100.063L207.388 100.441C209.915 98.2519 212.496 96.1238 215.129 94.0591L214.82 93.6657C217.457 91.598 220.145 89.5938 222.884 87.6553L223.173 88.0634C225.9 86.1325 228.677 84.2669 231.5 82.469L231.232 82.0472C234.057 80.2485 236.929 78.5173 239.846 76.8559L240.093 77.2903C242.995 75.6372 245.941 74.0533 248.93 72.5409L248.704 72.0948C251.69 70.5835 254.719 69.1434 257.787 67.7767L257.99 68.2334C261.039 66.8753 264.127 65.5899 267.253 64.3794L267.072 63.9131C270.191 62.7051 273.347 61.5714 276.537 60.5143L276.694 60.9889C279.86 59.94 283.06 58.9666 286.292 58.0709L286.159 57.589C289.379 56.6966 292.632 55.8811 295.914 55.1446L296.023 55.6324C299.274 54.9029 302.555 54.251 305.863 53.679L305.778 53.1863C309.067 52.6173 312.384 52.127 315.726 51.7175L315.787 52.2138C319.091 51.8089 322.42 51.4831 325.771 51.2383L325.734 50.7396C329.061 50.4967 332.41 50.3334 335.778 50.2517L335.79 50.7516C337.463 50.7111 339.14 50.6907 340.822 50.6907C342.504 50.6907 344.181 50.7111 345.854 50.7516L345.866 50.2517C349.235 50.3334 352.583 50.4967 355.91 50.7396L355.873 51.2383C359.225 51.4831 362.553 51.8089 365.857 52.2138L365.918 51.7175C369.26 52.1271 372.577 52.6173 375.866 53.1863L375.781 53.679C379.089 54.251 382.37 54.9029 385.621 55.6325L385.73 55.1446C389.012 55.8811 392.265 56.6966 395.485 57.5891L395.352 58.0709C398.584 58.9666 401.784 59.94 404.95 60.9889L405.107 60.5143C408.297 61.5714 411.453 62.7051 414.572 63.9131L414.391 64.3794C417.517 65.5899 420.605 66.8753 423.654 68.2334L423.857 67.7767C426.925 69.1434 429.954 70.5835 432.94 72.0948L432.714 72.5409C435.703 74.0533 438.649 75.6372 441.551 77.2903L441.798 76.8559C444.715 78.5173 447.587 80.2485 450.412 82.0472L450.144 82.469C452.967 84.2669 455.744 86.1325 458.471 88.0634L458.76 87.6553C461.499 89.5938 464.187 91.5981 466.824 93.6657L466.515 94.0591C469.148 96.1238 471.729 98.2519 474.257 100.441L474.584 100.063C477.118 102.259 479.599 104.516 482.022 106.832L481.677 107.193C484.095 109.504 486.456 111.873 488.759 114.3L489.122 113.955C491.429 116.386 493.678 118.874 495.865 121.417L495.486 121.743C497.667 124.277 499.786 126.865 501.842 129.505L502.237 129.198C504.296 131.841 506.291 134.536 508.221 137.281L507.812 137.568C509.734 140.302 511.591 143.084 513.38 145.914L513.803 145.647C515.593 148.477 517.315 151.354 518.968 154.276L518.533 154.522C520.178 157.429 521.753 160.379 523.258 163.372L523.704 163.148C525.207 166.138 526.639 169.17 527.999 172.242L527.541 172.444C528.892 175.496 530.17 178.588 531.373 181.716L531.84 181.536C533.041 184.658 534.167 187.816 535.218 191.009L534.743 191.165C535.786 194.333 536.753 197.535 537.643 200.769L538.125 200.636C539.012 203.858 539.822 207.112 540.554 210.395L540.066 210.504C540.791 213.756 541.438 217.037 542.007 220.346L542.5 220.261C543.065 223.552 543.552 226.869 543.958 230.211L543.462 230.272C543.864 233.576 544.188 236.905 544.431 240.256L544.93 240.22Z" stroke="#7FCCC6" stroke-dasharray="10 10"/>
<ellipse opacity="0.2" cx="549.888" cy="282.369" rx="50.2551" ry="50.3691" fill="#323B47"/>
<ellipse cx="546.255" cy="282.369" rx="50.255" ry="50.3691" fill="#7FCCC6"/>
<path d="M534.752 287.831H519.01V308.464H534.752V287.831Z" fill="white"/>
<path opacity="0.3" d="M556.551 257.488H540.809V308.464H556.551V257.488Z" fill="white"/>
<path opacity="0.3" d="M578.349 279.335H562.606V308.464H578.349V279.335Z" fill="white"/>
<ellipse opacity="0.2" cx="363.89" cy="439.369" rx="50.2551" ry="50.3691" fill="#323B47"/>
<ellipse cx="360.255" cy="439.369" rx="50.2551" ry="50.3691" fill="#7FCCC6"/>
<path d="M359.746 402.154C352.386 402.154 345.192 404.342 339.072 408.44C332.953 412.538 328.183 418.363 325.367 425.178C322.55 431.993 321.813 439.492 323.249 446.726C324.686 453.961 328.229 460.606 333.433 465.822C338.637 471.038 345.268 474.59 352.486 476.029C359.705 477.468 367.186 476.73 373.986 473.907C380.785 471.084 386.597 466.304 390.686 460.17C394.775 454.038 396.957 446.826 396.957 439.451C396.958 434.552 395.996 429.702 394.126 425.177C392.256 420.652 389.515 416.54 386.06 413.077C382.604 409.613 378.502 406.866 373.987 404.992C369.472 403.118 364.633 402.154 359.746 402.154ZM359.746 463.353C355.027 463.353 350.415 461.951 346.492 459.324C342.569 456.696 339.511 452.962 337.706 448.593C335.901 444.224 335.428 439.416 336.35 434.778C337.271 430.14 339.543 425.879 342.88 422.536C346.216 419.192 350.468 416.916 355.096 415.994C359.723 415.072 364.52 415.546 368.879 417.357C373.237 419.168 376.963 422.233 379.583 426.166C382.204 430.098 383.602 434.721 383.601 439.451C383.601 442.59 382.984 445.699 381.785 448.599C380.586 451.5 378.829 454.135 376.613 456.355C374.398 458.574 371.768 460.335 368.874 461.536C365.98 462.737 362.878 463.354 359.746 463.353Z" fill="white"/>
<path d="M396.955 439.419C396.955 434.524 395.99 429.676 394.115 425.154C392.241 420.632 389.493 416.523 386.029 413.063C382.566 409.602 378.454 406.858 373.929 404.986C369.404 403.114 364.554 402.153 359.657 402.154C359.279 402.154 358.901 402.154 358.523 402.154V415.559C358.901 415.559 359.279 415.53 359.657 415.53C364.252 415.527 368.751 416.849 372.614 419.338C376.477 421.828 379.539 425.378 381.434 429.562C383.328 433.748 383.975 438.39 383.296 442.934C382.618 447.477 380.642 451.728 377.606 455.177L388.266 463.295C393.884 456.607 396.961 448.152 396.955 439.419Z" fill="white"/>
<path d="M388.413 463.255L377.96 455.113H377.754C375.341 457.888 372.326 460.064 368.944 461.475C365.561 462.886 361.902 463.493 358.249 463.25C354.597 463.007 351.048 461.919 347.88 460.071C344.711 458.224 342.007 455.665 339.977 452.595L329.241 460.6C332.506 465.35 336.817 469.276 341.836 472.07C346.854 474.864 352.446 476.452 358.174 476.709C363.903 476.966 369.612 475.885 374.858 473.551C380.103 471.217 384.742 467.694 388.413 463.255Z" fill="#7FCCC6"/>
<path opacity="0.3" d="M388.413 463.255L377.96 455.113H377.754C375.341 457.888 372.326 460.064 368.944 461.475C365.561 462.886 361.902 463.493 358.249 463.25C354.597 463.007 351.048 461.919 347.88 460.071C344.711 458.224 342.007 455.665 339.977 452.595L329.241 460.6C332.506 465.35 336.817 469.276 341.836 472.07C346.854 474.864 352.446 476.452 358.174 476.709C363.903 476.966 369.612 475.885 374.858 473.551C380.103 471.217 384.742 467.694 388.413 463.255Z" fill="white"/>
<ellipse opacity="0.2" cx="386.89" cy="51.3691" rx="50.255" ry="50.3691" fill="#323B47"/>
<ellipse cx="383.255" cy="51.3691" rx="50.255" ry="50.3691" fill="#7FCCC6"/>
<g opacity="0.3">
<path d="M406.16 57.7651C406.16 64.9448 400.34 70.7651 393.16 70.7651C385.98 70.7651 380.16 64.9448 380.16 57.7651C380.16 50.5854 385.98 44.7651 393.16 44.7651C400.34 44.7651 406.16 50.5854 406.16 57.7651Z" fill="white"/>
<path d="M418.16 50.7651C418.16 57.9448 412.34 63.7651 405.16 63.7651C397.98 63.7651 392.16 57.9448 392.16 50.7651C392.16 43.5854 397.98 37.7651 405.16 37.7651C412.34 37.7651 418.16 43.5854 418.16 50.7651Z" fill="white"/>
</g>
<circle cx="364.16" cy="48.7651" r="13" fill="white"/>
<circle cx="380.16" cy="44.7651" r="13" fill="white"/>
<circle cx="393.16" cy="48.7651" r="13" fill="white"/>
<circle cx="377.16" cy="51.7651" r="13" fill="white"/>
<ellipse opacity="0.2" cx="152.89" cy="172.369" rx="50.255" ry="50.3691" fill="#323B47"/>
<ellipse cx="149.255" cy="172.369" rx="50.255" ry="50.3691" fill="#7FCCC6"/>
<path d="M121.383 162.032C121.383 156.51 125.86 152.032 131.383 152.032H158.681C164.204 152.032 168.681 156.51 168.681 162.032V182.386C168.681 187.909 164.204 192.386 158.681 192.386H131.383C125.86 192.386 121.383 187.909 121.383 182.386V162.032Z" fill="white"/>
<path opacity="0.3" d="M170.875 157.248L180.871 152.032V192.386L170.875 185.523V157.248Z" fill="white"/>
<path d="M236.12 352.988L241.038 357.917L236.12 362.845L231.203 357.917L236.12 352.988Z" fill="white"/>
<path d="M170.504 284.159L165.587 289.088L160.669 284.159L165.587 279.231L170.504 284.159Z" fill="white"/>
<path d="M132.015 428.625L118.537 420.821V436.413L132.015 428.625Z" fill="white"/>
<path d="M236.071 361.71L249.099 383.171C250.767 385.774 251.353 388.926 250.736 391.957C250.119 394.988 248.346 397.657 245.795 399.396L196.093 430.092L187.377 418.836L220.052 386.914L213.442 377.066L236.071 361.71Z" fill="#FFBE9D"/>
<path d="M76.218 361.71L63.1977 383.171C61.5289 385.773 60.9399 388.926 61.5578 391.958C62.175 394.989 63.9496 397.659 66.5024 399.396L117.609 430.092L126.325 418.836L92.2455 386.914L98.8961 377.066L76.218 361.71Z" fill="#FFBE9D"/>
<path d="M174.224 311.774L138.749 310.54L107.851 316.752C105.38 317.189 103.027 318.14 100.943 319.544C98.8603 320.948 97.0932 322.772 95.7556 324.902L74.5977 362.546L98.4985 378.706L110.065 361.818V433.098H202.595V361.818L213.013 377.886L237.401 362.53L216.747 324.744C215.381 322.498 213.541 320.579 211.356 319.122C209.17 317.665 206.693 316.706 204.098 316.313L174.167 311.774" fill="#323B47"/>
<path d="M137.525 276.125L137.187 310.688C137.181 311.461 137.421 312.216 137.872 312.842L138.186 313.38C146.374 326.102 166.391 322.027 172.844 315.468C173.372 315.024 173.778 314.45 174.019 313.803C174.261 313.155 174.332 312.456 174.223 311.773L168.44 273.59L137.525 276.125Z" fill="#FFBE9D"/>
<path d="M171.847 260.421C171.847 260.421 178.143 302.149 155.184 303.839C132.762 305.537 132.051 263.345 132.051 263.345L131.432 251.26L160.306 246.183L167.601 249.952L171.847 260.421Z" fill="#FFBE9D"/>
<path opacity="0.15" d="M172.382 300.377L170.729 288.905C168.656 296.293 164.351 302.455 156.825 303.69H156.908L155.297 303.922C149.307 304.377 144.309 301.611 140.55 295.639C140.477 295.528 140.364 295.449 140.234 295.419C140.104 295.39 139.969 295.413 139.856 295.481C139.8 295.517 139.752 295.563 139.714 295.617C139.676 295.672 139.649 295.733 139.635 295.798C139.621 295.862 139.62 295.93 139.633 295.995C139.645 296.06 139.67 296.122 139.707 296.177C143.697 302.489 148.993 305.412 155.404 304.957C156.735 304.858 158.05 304.6 159.32 304.187C164.001 304.651 168.681 303.287 172.382 300.377Z" fill="black"/>
<path d="M134.369 273.665C134.303 272.992 134.057 272.351 133.656 271.807C133.256 271.265 132.716 270.84 132.094 270.579C131.473 270.319 130.792 270.232 130.125 270.327C129.459 270.422 128.83 270.697 128.305 271.122L128.231 271.197C124.315 274.584 126.851 285.211 135.452 284.292L134.369 273.665Z" fill="#FFBE9D"/>
<path d="M177.145 268.041L177.071 267.966C176.492 267.628 175.834 267.452 175.165 267.457C174.496 267.461 173.84 267.647 173.267 267.994C172.694 268.34 172.224 268.835 171.908 269.427C171.592 270.018 171.44 270.683 171.469 271.354L171.924 281.517C180.607 281.21 181.449 270.816 177.145 268.041Z" fill="#FFBE9D"/>
<path d="M162.864 257.266C162.481 257.315 162.092 257.315 161.708 257.266C161.638 257.267 161.568 257.253 161.503 257.225C161.438 257.198 161.38 257.157 161.332 257.105C161.284 257.054 161.248 256.993 161.224 256.926C161.201 256.86 161.192 256.789 161.198 256.719C161.204 256.649 161.224 256.58 161.257 256.518C161.291 256.457 161.338 256.402 161.394 256.36C161.449 256.317 161.514 256.286 161.582 256.269C161.651 256.253 161.722 256.25 161.79 256.264C161.865 256.264 166.392 256.495 168.317 253.497C168.352 253.441 168.397 253.393 168.45 253.355C168.504 253.317 168.564 253.29 168.628 253.275C168.691 253.26 168.757 253.259 168.822 253.269C168.886 253.281 168.947 253.304 169.003 253.34C169.114 253.413 169.193 253.526 169.222 253.655C169.251 253.785 169.229 253.921 169.16 254.036C167.466 256.578 164.475 257.191 162.864 257.266Z" fill="#FFBE9D"/>
<path d="M145.814 281.658C146.211 281.659 146.598 281.543 146.928 281.324C147.258 281.104 147.515 280.792 147.667 280.426C147.82 280.06 147.861 279.657 147.785 279.267C147.709 278.878 147.519 278.52 147.239 278.239C146.96 277.958 146.604 277.767 146.216 277.688C145.828 277.61 145.425 277.65 145.06 277.8C144.694 277.952 144.381 278.209 144.161 278.539C143.941 278.869 143.823 279.257 143.823 279.653C143.823 280.183 144.033 280.692 144.407 281.068C144.779 281.443 145.286 281.655 145.814 281.658Z" fill="#21252B"/>
<path d="M145.909 280.879C145.969 280.881 146.03 280.869 146.086 280.847C146.142 280.825 146.192 280.791 146.236 280.749C146.279 280.706 146.313 280.656 146.336 280.6C146.36 280.545 146.372 280.484 146.372 280.424C146.372 280.301 146.323 280.183 146.236 280.096C146.149 280.009 146.032 279.96 145.909 279.96C145.787 279.96 145.669 280.009 145.582 280.096C145.495 280.183 145.446 280.301 145.446 280.424C145.446 280.484 145.459 280.545 145.482 280.6C145.505 280.656 145.54 280.706 145.583 280.749C145.626 280.791 145.677 280.825 145.733 280.847C145.789 280.869 145.849 280.881 145.909 280.879Z" fill="white"/>
<path d="M161.173 280.482C161.568 280.484 161.956 280.368 162.286 280.148C162.616 279.93 162.874 279.616 163.026 279.25C163.179 278.884 163.219 278.481 163.143 278.092C163.067 277.702 162.877 277.344 162.598 277.064C162.319 276.782 161.963 276.591 161.574 276.512C161.186 276.434 160.784 276.474 160.418 276.626C160.052 276.776 159.739 277.034 159.52 277.363C159.299 277.693 159.182 278.081 159.182 278.478C159.182 279.008 159.391 279.516 159.765 279.892C160.138 280.267 160.644 280.48 161.173 280.482Z" fill="#21252B"/>
<path d="M161.269 279.803C161.361 279.803 161.451 279.775 161.527 279.723C161.604 279.672 161.663 279.599 161.697 279.515C161.732 279.429 161.741 279.336 161.723 279.245C161.704 279.155 161.659 279.072 161.593 279.008C161.528 278.943 161.445 278.9 161.354 278.883C161.264 278.866 161.171 278.876 161.087 278.912C161.003 278.949 160.931 279.009 160.881 279.087C160.831 279.164 160.805 279.254 160.807 279.347C160.809 279.468 160.859 279.584 160.946 279.669C161.031 279.755 161.148 279.803 161.269 279.803Z" fill="white"/>
<g opacity="0.3">
<path opacity="0.3" d="M154.272 286.653L155.369 286.511C155.42 286.506 155.469 286.486 155.514 286.454C155.559 286.421 155.6 286.376 155.632 286.321C155.666 286.265 155.691 286.201 155.707 286.133C155.723 286.064 155.729 285.99 155.726 285.918C155.722 285.845 155.709 285.774 155.686 285.709C155.663 285.644 155.632 285.585 155.594 285.538C155.556 285.491 155.511 285.453 155.463 285.43C155.415 285.408 155.365 285.399 155.314 285.404L154.244 285.554C154.026 285.573 153.812 285.466 153.648 285.257C153.485 285.048 153.385 284.754 153.372 284.439C153.359 284.124 153.433 283.815 153.578 283.58C153.723 283.344 153.927 278.592 154.146 278.573C154.199 278.575 154.252 278.561 154.302 278.531C154.351 278.501 154.396 278.457 154.433 278.401C154.47 278.346 154.498 278.279 154.516 278.206C154.534 278.134 154.542 278.057 154.538 277.98C154.534 277.903 154.519 277.828 154.494 277.76C154.469 277.692 154.434 277.632 154.392 277.584C154.35 277.537 154.301 277.502 154.249 277.483C154.198 277.464 154.143 277.461 154.091 277.474C153.885 277.49 153.851 277.35 153.666 277.483C153.481 277.616 153.149 282.628 153.015 282.854C152.882 283.081 152.782 283.345 152.721 283.63C152.661 283.915 152.642 284.214 152.664 284.51C152.664 284.807 152.706 285.101 152.788 285.373C152.87 285.645 152.99 285.889 153.142 286.091C153.293 286.292 153.471 286.446 153.666 286.543C153.86 286.639 154.067 286.677 154.272 286.653Z" fill="black"/>
</g>
<path d="M211.79 479.705L193.615 476.392L191.202 493.786L209.022 495.724L211.79 479.705Z" fill="#FFBE9D"/>
<path opacity="0.15" d="M193.928 493.918L200.223 477.129L199.975 485.809C200.052 486.207 200.254 486.571 200.551 486.845C200.848 487.126 201.225 487.292 201.627 487.342L210.277 488.427L209.022 495.649L193.944 493.91L193.928 493.918Z" fill="black"/>
<path d="M223.75 507.286C220.56 506.831 217.633 505.249 215.489 502.838L213.01 499.997C211.502 498.275 209.567 496.974 207.401 496.237C205.627 495.616 204.123 494.398 203.149 492.783C202.176 491.176 201.792 489.271 202.064 487.408L202.113 487.043C202.435 484.782 203.634 482.745 205.45 481.37C207.266 479.995 209.549 479.398 211.804 479.705L227.311 481.867L223.75 507.286Z" fill="#323B47"/>
<path d="M209.314 494.647C209.182 494.647 208.943 494.647 208.901 494.465C208.278 492.924 208.07 491.243 208.3 489.594C208.529 487.946 209.186 486.389 210.207 485.08C210.235 485.047 210.269 485.031 210.307 485.014C210.344 484.998 210.384 484.989 210.426 484.989C210.466 484.989 210.507 484.998 210.544 485.014C210.582 485.031 210.616 485.047 210.645 485.08C210.674 485.105 210.699 485.138 210.716 485.18C210.732 485.221 210.74 485.263 210.74 485.304C210.74 485.337 210.732 485.379 210.716 485.42C210.699 485.461 210.674 485.495 210.645 485.519C209.685 486.729 209.067 488.178 208.854 489.71C208.641 491.243 208.839 492.8 209.43 494.233C209.451 494.258 209.466 494.291 209.473 494.324C209.48 494.357 209.48 494.39 209.471 494.423C209.44 494.514 209.386 494.589 209.314 494.647Z" fill="white"/>
<path d="M211.382 495.922C211.259 495.972 211.011 495.922 210.978 495.74C210.353 494.199 210.146 492.518 210.375 490.87C210.604 489.221 211.262 487.664 212.283 486.356C212.31 486.331 212.344 486.306 212.38 486.289C212.418 486.273 212.457 486.264 212.498 486.264C212.537 486.264 212.577 486.273 212.614 486.289C212.651 486.306 212.684 486.331 212.713 486.356C212.742 486.38 212.765 486.422 212.78 486.455C212.797 486.496 212.804 486.538 212.804 486.579C212.804 486.612 212.797 486.654 212.78 486.695C212.765 486.728 212.742 486.77 212.713 486.795C211.752 488.004 211.132 489.453 210.918 490.986C210.705 492.518 210.905 494.083 211.498 495.508C211.511 495.541 211.518 495.574 211.518 495.607C211.518 495.632 211.511 495.665 211.498 495.698C211.523 495.823 211.449 495.93 211.382 495.922Z" fill="white"/>
<path d="M213.541 497.405C213.409 497.405 213.161 497.405 213.128 497.223C212.503 495.682 212.295 494.001 212.524 492.353C212.753 490.705 213.412 489.147 214.434 487.839C214.462 487.806 214.495 487.789 214.532 487.772C214.569 487.756 214.609 487.748 214.649 487.748C214.69 487.748 214.729 487.756 214.766 487.772C214.804 487.781 214.838 487.806 214.867 487.83C214.895 487.864 214.918 487.897 214.934 487.93C214.95 487.971 214.958 488.013 214.959 488.054C214.959 488.087 214.952 488.129 214.937 488.17C214.922 488.203 214.899 488.236 214.871 488.269C213.911 489.479 213.291 490.928 213.078 492.46C212.864 494.001 213.064 495.558 213.657 496.991C213.67 497.024 213.677 497.049 213.677 497.082C213.677 497.115 213.67 497.148 213.657 497.182C213.654 497.223 213.641 497.264 213.621 497.306C213.602 497.347 213.574 497.38 213.541 497.405Z" fill="white"/>
<path d="M225.833 507.642L223.768 507.352L227.312 481.875L229.377 482.165C229.521 482.181 229.661 482.231 229.785 482.306C229.911 482.38 230.021 482.48 230.108 482.596C230.196 482.712 230.26 482.844 230.296 482.985C230.332 483.126 230.34 483.275 230.319 483.416L227.089 506.607C227.057 506.913 226.908 507.187 226.673 507.386C226.438 507.576 226.136 507.667 225.833 507.642Z" fill="#323B47"/>
<path opacity="0.3" d="M225.833 507.642L223.768 507.352L227.312 481.875L229.377 482.165C229.521 482.181 229.661 482.231 229.785 482.306C229.911 482.38 230.021 482.48 230.108 482.596C230.196 482.712 230.26 482.844 230.296 482.985C230.332 483.126 230.34 483.275 230.319 483.416L227.089 506.607C227.057 506.913 226.908 507.187 226.673 507.386C226.438 507.576 226.136 507.667 225.833 507.642Z" fill="black"/>
<path d="M102.459 493.818L120.172 491.044L116.942 473.816L98.9316 478.023L102.459 493.818Z" fill="#FFBE9D"/>
<path opacity="0.15" d="M115.188 491.789L102.457 493.819L100.862 486.671L109.454 485.171C109.852 485.105 110.218 484.915 110.5 484.625C110.782 484.335 110.965 483.962 111.024 483.565L113.304 474.652L115.254 491.781L115.188 491.789Z" fill="black"/>
<path d="M83.543 480.914L98.9261 478.015C101.164 477.601 103.477 478.089 105.357 479.373C107.236 480.665 108.53 482.645 108.956 484.89L109.03 485.254C109.393 487.118 109.096 489.039 108.191 490.704C107.286 492.369 105.829 493.661 104.073 494.365C101.945 495.21 100.074 496.601 98.6452 498.39L96.2659 501.347C94.2451 503.857 91.4031 505.571 88.2438 506.176L83.543 480.914Z" fill="#323B47"/>
<path d="M101.909 492.609C101.893 492.576 101.884 492.543 101.884 492.51C101.884 492.477 101.893 492.444 101.909 492.411C102.43 490.953 102.552 489.379 102.261 487.864C101.97 486.34 101.278 484.923 100.257 483.764C100.228 483.739 100.205 483.706 100.189 483.664C100.172 483.631 100.165 483.59 100.165 483.548C100.165 483.507 100.172 483.466 100.189 483.432C100.205 483.391 100.228 483.358 100.257 483.333C100.284 483.3 100.318 483.275 100.356 483.259C100.394 483.242 100.434 483.234 100.476 483.234C100.516 483.234 100.557 483.242 100.595 483.259C100.633 483.275 100.667 483.3 100.695 483.333C101.774 484.6 102.503 486.124 102.81 487.756C103.115 489.396 102.987 491.077 102.438 492.651C102.438 492.841 102.173 492.891 102.041 492.85C101.972 492.783 101.926 492.701 101.909 492.609Z" fill="white"/>
<path d="M99.9291 493.985C99.9134 493.952 99.9043 493.918 99.9043 493.885C99.9043 493.852 99.9134 493.819 99.9291 493.794C100.45 492.336 100.572 490.763 100.281 489.239C99.9902 487.715 99.2987 486.298 98.2768 485.139C98.247 485.114 98.2239 485.081 98.2074 485.039C98.1908 485.006 98.1817 484.965 98.1809 484.923C98.1793 484.882 98.1859 484.841 98.2008 484.807C98.2148 484.766 98.2363 484.733 98.2644 484.7C98.2916 484.675 98.3247 484.65 98.3619 484.634C98.3982 484.617 98.4379 484.609 98.4783 484.609C98.5188 484.609 98.5585 484.617 98.5965 484.625C98.6345 484.642 98.6684 484.667 98.6981 484.691C99.7787 485.95 100.51 487.474 100.816 489.114C101.122 490.746 100.992 492.436 100.441 494.001C100.441 494.192 100.177 494.241 100.045 494.2C99.9126 494.159 99.9456 494.101 99.9291 493.985Z" fill="white"/>
<path d="M97.8466 495.566C97.8218 495.508 97.8218 495.433 97.8466 495.375C98.3671 493.917 98.4877 492.344 98.1977 490.82C97.9069 489.296 97.2154 487.879 96.1942 486.72C96.1653 486.695 96.1422 486.662 96.1265 486.62C96.1108 486.587 96.1025 486.546 96.1025 486.504C96.1025 486.463 96.1108 486.422 96.1265 486.389C96.1422 486.347 96.1653 486.314 96.1942 486.289C96.2215 486.256 96.2546 486.231 96.2909 486.215C96.3281 486.198 96.3686 486.19 96.409 486.19C96.4495 486.19 96.4892 486.198 96.5264 486.215C96.5635 486.231 96.5966 486.256 96.6239 486.289C97.707 487.548 98.4398 489.072 98.7471 490.712C99.0544 492.344 98.9264 494.033 98.3753 495.599C98.3753 495.789 98.1027 495.839 97.9705 495.798C97.9003 495.74 97.8557 495.657 97.8466 495.566Z" fill="white"/>
<path d="M84.8738 505.646L80.5529 482.612C80.5257 482.471 80.5265 482.322 80.5563 482.181C80.586 482.032 80.643 481.9 80.7256 481.775C80.8074 481.659 80.9123 481.552 81.0346 481.477C81.1569 481.394 81.294 481.336 81.4369 481.311L83.4858 480.93L88.228 506.209L86.1791 506.59C85.8817 506.632 85.5793 506.557 85.3356 506.383C85.0919 506.209 84.9267 505.944 84.8738 505.646Z" fill="#323B47"/>
<path opacity="0.3" d="M84.8738 505.646L80.5529 482.612C80.5257 482.471 80.5265 482.322 80.5563 482.181C80.586 482.032 80.643 481.9 80.7256 481.775C80.8074 481.659 80.9123 481.552 81.0346 481.477C81.1569 481.394 81.294 481.336 81.4369 481.311L83.4858 480.93L88.228 506.209L86.1791 506.59C85.8817 506.632 85.5793 506.557 85.3356 506.383C85.0919 506.209 84.9267 505.944 84.8738 505.646Z" fill="black"/>
<path d="M149.579 290.214L159.327 289.527C159.385 289.525 159.442 289.536 159.494 289.558C159.547 289.581 159.594 289.616 159.632 289.66C159.669 289.704 159.696 289.756 159.711 289.811C159.725 289.868 159.727 289.926 159.715 289.982C159.413 291.08 158.781 292.057 157.905 292.782C157.029 293.506 155.953 293.944 154.82 294.034C153.688 294.124 152.556 293.863 151.577 293.287C150.598 292.71 149.819 291.846 149.348 290.81V290.769C149.308 290.722 149.282 290.664 149.273 290.602C149.264 290.541 149.272 290.479 149.296 290.422C149.32 290.365 149.358 290.315 149.408 290.279C149.458 290.242 149.517 290.22 149.579 290.214Z" fill="white"/>
<g opacity="0.3">
<path opacity="0.3" d="M132.225 279.173C132.077 279.167 131.936 279.11 131.825 279.012C131.715 278.913 131.64 278.781 131.614 278.635L131.457 277.401C131.434 276.404 131.053 275.447 130.383 274.709C130.258 274.599 130.113 274.515 129.955 274.462C129.798 274.41 129.631 274.389 129.466 274.402C129.313 274.43 129.155 274.397 129.026 274.311C128.897 274.224 128.806 274.091 128.772 273.939C128.746 273.785 128.78 273.629 128.866 273.5C128.952 273.37 129.083 273.279 129.235 273.243C129.884 273.173 130.537 273.338 131.077 273.707C131.555 274.148 131.939 274.682 132.203 275.278C132.467 275.873 132.607 276.517 132.614 277.169L132.762 278.403C132.771 278.573 132.723 278.742 132.626 278.881C132.529 279.021 132.387 279.124 132.225 279.173Z" fill="black"/>
</g>
<g opacity="0.3">
<path opacity="0.3" d="M174.457 276.051C174.607 276.036 174.746 275.965 174.846 275.851C174.946 275.737 174.999 275.589 174.994 275.438V274.204C174.911 273.718 174.93 273.221 175.05 272.743C175.169 272.266 175.386 271.818 175.688 271.429C175.798 271.29 175.937 271.177 176.095 271.099C176.254 271.02 176.428 270.977 176.605 270.973C176.754 270.967 176.896 270.91 177.008 270.813C177.12 270.715 177.196 270.582 177.225 270.435C177.219 270.286 177.163 270.143 177.065 270.029C176.968 269.917 176.835 269.84 176.688 269.814C176.375 269.826 176.068 269.901 175.785 270.033C175.5 270.165 175.246 270.353 175.035 270.584C174.267 271.355 173.961 272.589 174.036 274.278V275.512C173.846 275.86 174.077 276.051 174.457 276.051Z" fill="black"/>
</g>
<path opacity="0.15" d="M196.094 430.091L195.317 430.63L245.812 399.396C248.362 397.655 250.133 394.985 250.75 391.955C251.367 388.925 250.781 385.773 249.117 383.17L246.58 379.029C246.58 379.029 253.099 390.21 237.402 400.1L193.202 428.302L196.094 430.091Z" fill="black"/>
<path opacity="0.15" d="M71.9385 398.907C61.3141 393.764 64.1148 381.646 64.1148 381.646L63.1977 383.17C61.5289 385.772 60.9399 388.926 61.5578 391.956C62.175 394.988 63.9496 397.657 66.5024 399.396L117.848 430.091L116.683 429.487L120.203 427.002L71.9385 398.907Z" fill="black"/>
<path d="M68.2119 425.825L110.082 430.571H202.637L242.383 425.825L235.46 467.719H85.0821L69.666 427.018" fill="white"/>
<path opacity="0.3" d="M68.2119 425.825L110.082 430.571H202.637L242.383 425.825L235.46 467.719H85.0821L69.666 427.018" fill="black"/>
<path d="M155.465 458.982L223.359 431.757C230.315 428.971 237.503 426.807 244.839 425.288C248.814 424.466 252.949 425.009 256.579 426.829C261.653 429.364 265.516 433.814 267.319 439.203L267.674 440.271C269.201 444.818 268.866 449.788 266.741 454.087C265.565 456.472 263.882 458.559 261.811 460.216C259.739 461.881 257.33 463.057 254.753 463.678L116.446 496.668L110.729 474.545L155.465 458.982Z" fill="white"/>
<path opacity="0.2" d="M266.746 454.087C268.871 449.788 269.207 444.818 267.68 440.271L267.325 439.203C266.285 436.088 264.544 433.252 262.235 430.92C262.235 430.92 269.027 454.219 244.523 459.545L210.32 467.952C205.282 469.186 200.026 469.227 194.969 468.068L156.189 459.197L169.367 484.045L254.75 463.678C257.329 463.057 259.74 461.881 261.813 460.224C263.886 458.559 265.57 456.472 266.746 454.087Z" fill="black"/>
<path d="M156.189 459.205L88.2704 431.988C81.3158 429.199 74.1274 427.034 66.7902 425.519C62.8164 424.695 58.6814 425.235 55.0505 427.052C49.9778 429.589 46.1164 434.038 44.3104 439.426L43.9551 440.495C42.4309 445.042 42.7696 450.011 44.897 454.31C46.08 456.687 47.7704 458.783 49.8498 460.439C51.9284 462.087 54.3441 463.264 56.9259 463.877L196.977 496.866L200.95 474.743L156.189 459.205Z" fill="white"/>
<path opacity="0.2" d="M111.51 478.189L145.787 489.66L155.296 487.374L111.262 476.897L111.51 478.189Z" fill="black"/>
<path opacity="0.2" d="M197.944 493.512L77.5061 461.433C74.6145 460.605 71.7229 459.975 68.7735 459.329C44.5422 453.979 45.1453 437.339 45.1453 437.339C44.8397 438.018 44.5588 438.714 44.3192 439.426L43.9639 440.495C42.4397 445.042 42.7784 450.011 44.9058 454.31C46.088 456.687 47.7767 458.783 49.8545 460.431C51.9314 462.087 54.3463 463.264 56.9264 463.876L196.977 496.866L197.944 493.512Z" fill="black"/>
<path d="M201.655 452.281H111.554L107.192 392.737C107.174 392.418 107.222 392.098 107.331 391.799C107.44 391.498 107.609 391.223 107.828 390.991C108.047 390.758 108.311 390.573 108.603 390.446C108.896 390.319 109.211 390.253 109.53 390.252H203.671C203.99 390.253 204.306 390.319 204.598 390.446C204.891 390.573 205.155 390.758 205.374 390.991C205.592 391.223 205.761 391.498 205.871 391.799C205.98 392.098 206.027 392.418 206.009 392.737L201.655 452.281Z" fill="rgb(108, 117, 125)"/>
<path opacity="0.3" d="M201.655 452.281H111.554L107.192 392.737C107.174 392.418 107.222 392.098 107.331 391.799C107.44 391.498 107.609 391.223 107.828 390.991C108.047 390.758 108.311 390.573 108.603 390.446C108.896 390.319 109.211 390.253 109.53 390.252H203.671C203.99 390.253 204.306 390.319 204.598 390.446C204.891 390.573 205.155 390.758 205.374 390.991C205.592 391.223 205.761 391.498 205.871 391.799C205.98 392.098 206.027 392.418 206.009 392.737L201.655 452.281Z" fill="rgb(108, 117, 125)"/>
<path d="M201.655 453.996H111.554L107.192 394.451C107.174 394.132 107.222 393.813 107.331 393.512C107.44 393.211 107.609 392.937 107.828 392.705C108.047 392.472 108.311 392.286 108.603 392.16C108.896 392.033 109.211 391.967 109.53 391.967H203.671C203.99 391.967 204.306 392.033 204.598 392.16C204.891 392.286 205.155 392.472 205.374 392.705C205.592 392.937 205.761 393.211 205.871 393.512C205.98 393.813 206.027 394.132 206.009 394.451L201.655 453.996Z" fill="#EEF2F7"/>
<path opacity="0.4" d="M111.551 449.423H201.677C201.759 449.423 201.838 449.456 201.896 449.514C201.955 449.572 201.989 449.647 201.991 449.73V453.681C201.991 453.763 201.958 453.846 201.899 453.904C201.84 453.962 201.761 453.995 201.677 453.995H111.824C111.745 453.995 111.669 453.962 111.61 453.912C111.552 453.855 111.516 453.788 111.51 453.705L111.221 449.755C111.217 449.713 111.223 449.664 111.238 449.622C111.253 449.581 111.278 449.548 111.309 449.514C111.341 449.481 111.379 449.456 111.421 449.44C111.462 449.423 111.507 449.423 111.551 449.423Z" fill="black"/>
<path opacity="0.4" d="M161.891 422.96C161.195 422.962 160.512 422.765 159.924 422.389C159.337 422.014 158.868 421.477 158.575 420.844C158.282 420.21 158.177 419.505 158.271 418.813C158.365 418.121 158.655 417.47 159.107 416.939C157.818 416.4 156.389 416.292 155.033 416.63C153.677 416.968 152.466 417.734 151.578 418.816C150.689 419.898 150.172 421.237 150.102 422.637C150.032 424.036 150.413 425.421 151.188 426.586C151.964 427.752 153.093 428.635 154.409 429.108C155.724 429.58 157.156 429.616 158.493 429.21C159.831 428.803 161.002 427.976 161.834 426.85C162.666 425.726 163.115 424.361 163.114 422.96C163.118 422.891 163.118 422.823 163.114 422.753C162.722 422.893 162.308 422.963 161.891 422.96Z" fill="black"/>
<path d="M234.966 357.533L209.671 374.222L212.442 378.543L237.376 362.473L234.966 357.533Z" fill="white"/>
<path d="M74.2627 362.301L98.7377 379.139L101.641 374.898L77.1658 358.06L74.2627 362.301Z" fill="white"/>
<path d="M155.742 324.728C153.352 324.734 150.972 324.411 148.67 323.767C145.412 322.879 142.361 321.352 139.696 319.273C137.032 317.195 134.805 314.605 133.146 311.658L137.186 310.68C137.31 310.962 140.698 317.306 149.769 319.833C154.613 321.123 159.741 320.854 164.425 319.062C168.027 317.745 173.058 315.749 174.223 311.765L178.197 312.362C176.9 316.785 172.24 320.553 165.805 322.897C162.582 324.089 159.176 324.709 155.742 324.728Z" fill="white"/>
<path opacity="0.3" d="M202.638 361.817L197.78 356.044L196.979 390.21H202.869L202.638 361.817Z" fill="black"/>
<path d="M161.407 240.595C170.638 244.138 168.818 244.716 170.709 252.193C172.807 260.697 174.046 266.296 172.155 268.637C162.7 249.194 164.512 261.488 151.267 262.471C145.786 262.408 143.04 263.137 138.247 260.466C137.297 259.731 134.356 260.466 134.356 260.466L133.617 272.351C132.841 272.669 126.949 259.166 126.949 259.166C126.949 259.166 125.358 255.987 125.835 253.965C126.118 252.766 126.657 251.697 127.317 251.18C127.317 251.18 128.516 247.553 130.099 245.795C132.062 243.614 136.622 242.077 136.622 242.077C136.622 242.077 143.243 238.063 147.358 237.571C153.99 236.777 156.613 237.571 161.407 240.595Z" fill="#37474F"/>
<defs>
<filter id="filter0_d" x="209.24" y="180.019" width="134.269" height="19.8329" filterUnits="userSpaceOnUse" color-interpolation-filters="sRGB">
<feFlood flood-opacity="0" result="BackgroundImageFix"/>
<feColorMatrix in="SourceAlpha" type="matrix" values="0 0 0 0 0 0 0 0 0 0 0 0 0 0 0 0 0 0 127 0" result="hardAlpha"/>
<feOffset dy="1.61367"/>
<feGaussianBlur stdDeviation="3.22733"/>
<feColorMatrix type="matrix" values="0 0 0 0 0 0 0 0 0 0 0 0 0 0 0 0 0 0 0.1 0"/>
<feBlend mode="normal" in2="BackgroundImageFix" result="effect1_dropShadow"/>
<feBlend mode="normal" in="SourceGraphic" in2="effect1_dropShadow" result="shape"/>
</filter>
<filter id="filter1_d" x="198.089" y="190.091" width="19.8173" height="143.199" filterUnits="userSpaceOnUse" color-interpolation-filters="sRGB">
<feFlood flood-opacity="0" result="BackgroundImageFix"/>
<feColorMatrix in="SourceAlpha" type="matrix" values="0 0 0 0 0 0 0 0 0 0 0 0 0 0 0 0 0 0 127 0" result="hardAlpha"/>
<feOffset dy="1.61367"/>
<feGaussianBlur stdDeviation="3.22733"/>
<feColorMatrix type="matrix" values="0 0 0 0 0 0 0 0 0 0 0 0 0 0 0 0 0 0 0.1 0"/>
<feBlend mode="normal" in2="BackgroundImageFix" result="effect1_dropShadow"/>
<feBlend mode="normal" in="SourceGraphic" in2="effect1_dropShadow" result="shape"/>
</filter>
<filter id="filter2_d" x="472.214" y="190.091" width="19.8173" height="143.199" filterUnits="userSpaceOnUse" color-interpolation-filters="sRGB">
<feFlood flood-opacity="0" result="BackgroundImageFix"/>
<feColorMatrix in="SourceAlpha" type="matrix" values="0 0 0 0 0 0 0 0 0 0 0 0 0 0 0 0 0 0 127 0" result="hardAlpha"/>
<feOffset dy="1.61367"/>
<feGaussianBlur stdDeviation="3.22733"/>
<feColorMatrix type="matrix" values="0 0 0 0 0 0 0 0 0 0 0 0 0 0 0 0 0 0 0.1 0"/>
<feBlend mode="normal" in2="BackgroundImageFix" result="effect1_dropShadow"/>
<feBlend mode="normal" in="SourceGraphic" in2="effect1_dropShadow" result="shape"/>
</filter>
<filter id="filter3_d" x="209.24" y="323.843" width="134.269" height="19.8329" filterUnits="userSpaceOnUse" color-interpolation-filters="sRGB">
<feFlood flood-opacity="0" result="BackgroundImageFix"/>
<feColorMatrix in="SourceAlpha" type="matrix" values="0 0 0 0 0 0 0 0 0 0 0 0 0 0 0 0 0 0 127 0" result="hardAlpha"/>
<feOffset dy="1.61367"/>
<feGaussianBlur stdDeviation="3.22733"/>
<feColorMatrix type="matrix" values="0 0 0 0 0 0 0 0 0 0 0 0 0 0 0 0 0 0 0.1 0"/>
<feBlend mode="normal" in2="BackgroundImageFix" result="effect1_dropShadow"/>
<feBlend mode="normal" in="SourceGraphic" in2="effect1_dropShadow" result="shape"/>
</filter>
<filter id="filter4_d" x="346.616" y="180.018" width="134.269" height="19.833" filterUnits="userSpaceOnUse" color-interpolation-filters="sRGB">
<feFlood flood-opacity="0" result="BackgroundImageFix"/>
<feColorMatrix in="SourceAlpha" type="matrix" values="0 0 0 0 0 0 0 0 0 0 0 0 0 0 0 0 0 0 127 0" result="hardAlpha"/>
<feOffset dy="1.61367"/>
<feGaussianBlur stdDeviation="3.22733"/>
<feColorMatrix type="matrix" values="0 0 0 0 0 0 0 0 0 0 0 0 0 0 0 0 0 0 0.1 0"/>
<feBlend mode="normal" in2="BackgroundImageFix" result="effect1_dropShadow"/>
<feBlend mode="normal" in="SourceGraphic" in2="effect1_dropShadow" result="shape"/>
</filter>
<filter id="filter5_d" x="346.616" y="323.842" width="134.269" height="19.8329" filterUnits="userSpaceOnUse" color-interpolation-filters="sRGB">
<feFlood flood-opacity="0" result="BackgroundImageFix"/>
<feColorMatrix in="SourceAlpha" type="matrix" values="0 0 0 0 0 0 0 0 0 0 0 0 0 0 0 0 0 0 127 0" result="hardAlpha"/>
<feOffset dy="1.61367"/>
<feGaussianBlur stdDeviation="3.22733"/>
<feColorMatrix type="matrix" values="0 0 0 0 0 0 0 0 0 0 0 0 0 0 0 0 0 0 0.1 0"/>
<feBlend mode="normal" in2="BackgroundImageFix" result="effect1_dropShadow"/>
<feBlend mode="normal" in="SourceGraphic" in2="effect1_dropShadow" result="shape"/>
</filter>
<filter id="filter6_i" x="323.553" y="172.871" width="44.6313" height="12.1163" filterUnits="userSpaceOnUse" color-interpolation-filters="sRGB">
<feFlood flood-opacity="0" result="BackgroundImageFix"/>
<feBlend mode="normal" in="SourceGraphic" in2="BackgroundImageFix" result="shape"/>
<feColorMatrix in="SourceAlpha" type="matrix" values="0 0 0 0 0 0 0 0 0 0 0 0 0 0 0 0 0 0 127 0" result="hardAlpha"/>
<feOffset dx="1.61367"/>
<feGaussianBlur stdDeviation="0.806833"/>
<feComposite in2="hardAlpha" operator="arithmetic" k2="-1" k3="1"/>
<feColorMatrix type="matrix" values="0 0 0 0 0 0 0 0 0 0 0 0 0 0 0 0 0 0 0.2 0"/>
<feBlend mode="normal" in2="shape" result="effect1_innerShadow"/>
</filter>
<filter id="filter7_i" x="323.553" y="335.697" width="44.6313" height="12.1164" filterUnits="userSpaceOnUse" color-interpolation-filters="sRGB">
<feFlood flood-opacity="0" result="BackgroundImageFix"/>
<feBlend mode="normal" in="SourceGraphic" in2="BackgroundImageFix" result="shape"/>
<feColorMatrix in="SourceAlpha" type="matrix" values="0 0 0 0 0 0 0 0 0 0 0 0 0 0 0 0 0 0 127 0" result="hardAlpha"/>
<feOffset dx="1.61367"/>
<feGaussianBlur stdDeviation="0.806833"/>
<feComposite in2="hardAlpha" operator="arithmetic" k2="-1" k3="1"/>
<feColorMatrix type="matrix" values="0 0 0 0 0 0 0 0 0 0 0 0 0 0 0 0 0 0 0.2 0"/>
<feBlend mode="normal" in2="shape" result="effect1_innerShadow"/>
</filter>
<filter id="filter8_i" x="464.862" y="314.419" width="34.2715" height="33.2206" filterUnits="userSpaceOnUse" color-interpolation-filters="sRGB">
<feFlood flood-opacity="0" result="BackgroundImageFix"/>
<feBlend mode="normal" in="SourceGraphic" in2="BackgroundImageFix" result="shape"/>
<feColorMatrix in="SourceAlpha" type="matrix" values="0 0 0 0 0 0 0 0 0 0 0 0 0 0 0 0 0 0 127 0" result="hardAlpha"/>
<feOffset dx="1.61367"/>
<feGaussianBlur stdDeviation="0.806833"/>
<feComposite in2="hardAlpha" operator="arithmetic" k2="-1" k3="1"/>
<feColorMatrix type="matrix" values="0 0 0 0 0 0 0 0 0 0 0 0 0 0 0 0 0 0 0.2 0"/>
<feBlend mode="normal" in2="shape" result="effect1_innerShadow"/>
</filter>
<filter id="filter9_i" x="464.862" y="172.904" width="34.2715" height="33.2022" filterUnits="userSpaceOnUse" color-interpolation-filters="sRGB">
<feFlood flood-opacity="0" result="BackgroundImageFix"/>
<feBlend mode="normal" in="SourceGraphic" in2="BackgroundImageFix" result="shape"/>
<feColorMatrix in="SourceAlpha" type="matrix" values="0 0 0 0 0 0 0 0 0 0 0 0 0 0 0 0 0 0 127 0" result="hardAlpha"/>
<feOffset dx="1.61367"/>
<feGaussianBlur stdDeviation="0.806833"/>
<feComposite in2="hardAlpha" operator="arithmetic" k2="-1" k3="1"/>
<feColorMatrix type="matrix" values="0 0 0 0 0 0 0 0 0 0 0 0 0 0 0 0 0 0 0.2 0"/>
<feBlend mode="normal" in2="shape" result="effect1_innerShadow"/>
</filter>
<filter id="filter10_i" x="192.611" y="314.418" width="34.2714" height="33.2022" filterUnits="userSpaceOnUse" color-interpolation-filters="sRGB">
<feFlood flood-opacity="0" result="BackgroundImageFix"/>
<feBlend mode="normal" in="SourceGraphic" in2="BackgroundImageFix" result="shape"/>
<feColorMatrix in="SourceAlpha" type="matrix" values="0 0 0 0 0 0 0 0 0 0 0 0 0 0 0 0 0 0 127 0" result="hardAlpha"/>
<feOffset dx="1.61367"/>
<feGaussianBlur stdDeviation="0.806833"/>
<feComposite in2="hardAlpha" operator="arithmetic" k2="-1" k3="1"/>
<feColorMatrix type="matrix" values="0 0 0 0 0 0 0 0 0 0 0 0 0 0 0 0 0 0 0.2 0"/>
<feBlend mode="normal" in2="shape" result="effect1_innerShadow"/>
</filter>
</defs>
</svg>
