<svg width="380" height="205" viewBox="0 0 380 205" fill="none" xmlns="http://www.w3.org/2000/svg">
<g filter="url(#filter0_ii_1970_5076)">
<path d="M-8.24382e-06 16.4033C8.15752 14.8802 14.7539 8.43554 17.0771 -7.46467e-07L177.758 -7.77004e-06C180.522 4.06244 184.976 6.69921 190 6.69921C195.024 6.69921 199.477 4.06218 202.241 -8.84025e-06L362.922 -1.58638e-05C365.245 8.43565 371.842 14.8802 380 16.4033L380 187.257C371.416 188.86 364.558 195.912 362.592 205L202.241 205C199.477 200.938 195.024 198.301 190 198.301C184.976 198.301 180.522 200.938 177.758 205L17.4072 205C15.441 195.912 8.58439 188.86 -7.75578e-07 187.257L-8.24382e-06 16.4033Z" fill="url(#paint0_linear_1970_5076)"/>
</g>
<defs>
<filter id="filter0_ii_1970_5076" x="-4" y="-4" width="388" height="213" filterUnits="userSpaceOnUse" color-interpolation-filters="sRGB">
<feFlood flood-opacity="0" result="BackgroundImageFix"/>
<feBlend mode="normal" in="SourceGraphic" in2="BackgroundImageFix" result="shape"/>
<feColorMatrix in="SourceAlpha" type="matrix" values="0 0 0 0 0 0 0 0 0 0 0 0 0 0 0 0 0 0 127 0" result="hardAlpha"/>
<feOffset dx="4" dy="4"/>
<feGaussianBlur stdDeviation="4"/>
<feComposite in2="hardAlpha" operator="arithmetic" k2="-1" k3="1"/>
<feColorMatrix type="matrix" values="0 0 0 0 0 0 0 0 0 0 0 0 0 0 0 0 0 0 0.13 0"/>
<feBlend mode="normal" in2="shape" result="effect1_innerShadow_1970_5076"/>
<feColorMatrix in="SourceAlpha" type="matrix" values="0 0 0 0 0 0 0 0 0 0 0 0 0 0 0 0 0 0 127 0" result="hardAlpha"/>
<feOffset dx="-4" dy="-4"/>
<feGaussianBlur stdDeviation="4"/>
<feComposite in2="hardAlpha" operator="arithmetic" k2="-1" k3="1"/>
<feColorMatrix type="matrix" values="0 0 0 0 0 0 0 0 0 0 0 0 0 0 0 0 0 0 0.13 0"/>
<feBlend mode="normal" in2="effect1_innerShadow_1970_5076" result="effect2_innerShadow_1970_5076"/>
</filter>
<linearGradient id="paint0_linear_1970_5076" x1="-1.74681e-05" y1="194.067" x2="1184.61" y2="-300.33" gradientUnits="userSpaceOnUse">
<stop offset="0.0535323" stop-color="#7876F2"/>
<stop offset="1" stop-color="#FA5C7C"/>
</linearGradient>
</defs>
</svg>
