<svg width="70" height="70" viewBox="0 0 70 70" fill="none" xmlns="http://www.w3.org/2000/svg">
<g clip-path="url(#clip0)">
<path d="M35 20.7812C34.7099 20.7812 34.4317 20.8965 34.2266 21.1016C34.0215 21.3067 33.9062 21.5849 33.9062 21.875V29.5312H37.1875C37.5595 29.5361 37.9285 29.5988 38.2812 29.7172V21.875C38.2812 21.5849 38.166 21.3067 37.9609 21.1016C37.7558 20.8965 37.4776 20.7812 37.1875 20.7812H35Z" fill="rgb(108, 117, 125)"/>
<path d="M28.4375 20.7812C28.1474 20.7812 27.8692 20.8965 27.6641 21.1016C27.459 21.3067 27.3438 21.5849 27.3438 21.875V29.5312H31.7188V21.875C31.7188 21.5849 31.6035 21.3067 31.3984 21.1016C31.1933 20.8965 30.9151 20.7812 30.625 20.7812H28.4375Z" fill="rgb(108, 117, 125)"/>
<path d="M50.3125 20.7812H48.125C47.5209 20.7812 47.0312 21.2709 47.0312 21.875V32.8125C47.0312 33.4166 47.5209 33.9062 48.125 33.9062H50.3125C50.9166 33.9062 51.4062 33.4166 51.4062 32.8125V21.875C51.4062 21.2709 50.9166 20.7812 50.3125 20.7812Z" fill="rgb(108, 117, 125)"/>
<path d="M18.9002 21.5687C19.2179 22.0143 19.503 22.4822 19.7533 22.9688H23.0674C23.9185 21.1075 25.1936 19.4715 26.7906 18.1916C28.3876 16.9117 30.2622 16.0236 32.2641 15.5983C34.266 15.1731 36.3397 15.2225 38.319 15.7427C40.2984 16.2628 42.1285 17.2392 43.6627 18.5938H43.7502C44.5602 18.5959 45.3402 18.9001 45.9377 19.4469C46.5352 18.9001 47.3153 18.5959 48.1252 18.5938H50.3127C50.7328 18.5932 51.149 18.675 51.5377 18.8344L54.5018 13.9016L49.5362 8.93594L44.2096 12.1297C43.7884 12.3776 43.3092 12.5096 42.8205 12.5125C42.4369 12.5124 42.0574 12.4342 41.7049 12.2828C41.683 12.2828 41.6721 12.2719 41.6502 12.2609C41.2507 12.0993 40.8948 11.8457 40.6117 11.5207C40.3285 11.1957 40.126 10.8086 40.0205 10.3906L38.5221 4.375H31.4783L29.9799 10.3906C29.8745 10.8086 29.6719 11.1957 29.3888 11.5207C29.1056 11.8457 28.7498 12.0993 28.3502 12.2609C28.3283 12.2719 28.3174 12.2828 28.2955 12.2828C27.8974 12.4564 27.4637 12.533 27.0302 12.5064C26.5967 12.4798 26.1757 12.3507 25.8018 12.1297L20.4643 8.93594L15.4987 13.9016L18.6924 19.2281C18.8955 19.5796 19.0193 19.9711 19.0552 20.3755C19.0911 20.7798 19.0382 21.187 18.9002 21.5687Z" fill="rgb(108, 117, 125)"/>
<path d="M43.75 20.7812H41.5625C40.9584 20.7812 40.4688 21.2709 40.4688 21.875V32.8125C40.4688 33.4166 40.9584 33.9062 41.5625 33.9062H43.75C44.3541 33.9062 44.8438 33.4166 44.8438 32.8125V21.875C44.8438 21.2709 44.3541 20.7812 43.75 20.7812Z" fill="rgb(108, 117, 125)"/>
<path d="M9.84387 32.8125H5.57825C7.01174 34.2117 8.93449 34.9965 10.9376 35C12.7019 34.998 14.4107 34.3833 15.772 33.261C16.2172 32.6137 16.7469 32.0289 17.347 31.5219C17.6181 31.1075 17.8489 30.6679 18.0361 30.2094C18.1152 30.0077 18.2539 29.8348 18.4336 29.7137C18.6133 29.5926 18.8256 29.5289 19.0423 29.5313H25.1564V25.1563H19.0423C18.8233 25.1565 18.6092 25.0909 18.4278 24.9681C18.2465 24.8452 18.1062 24.6707 18.0251 24.4672C17.4583 23.0523 16.4797 21.8402 15.216 20.988C13.9523 20.1358 12.4618 19.6827 10.9376 19.6875C8.93449 19.6911 7.01174 20.4759 5.57825 21.875H9.84387C10.134 21.875 10.4122 21.9903 10.6173 22.1954C10.8224 22.4005 10.9376 22.6787 10.9376 22.9688V31.7188C10.9376 32.0089 10.8224 32.2871 10.6173 32.4922C10.4122 32.6973 10.134 32.8125 9.84387 32.8125Z" fill="rgb(108, 117, 125)"/>
<path d="M54.2719 34.8806C54.0312 34.465 53.7578 34.0493 53.4734 33.6447C53.2916 34.345 52.8827 34.9654 52.3108 35.4087C51.7388 35.852 51.0361 36.0932 50.3125 36.0947H48.125C47.315 36.0925 46.535 35.7883 45.9375 35.2415C45.34 35.7883 44.5599 36.0925 43.75 36.0947H41.5516C40.9733 36.0918 40.4066 35.9331 39.9109 35.6353C39.3495 37.0603 38.3722 38.2835 37.1062 39.1457C35.8403 40.0078 34.3442 40.4692 32.8125 40.4697H32.6047C34.3305 41.7471 35.5536 43.5895 36.0609 45.6759C36.5421 47.6412 36.5421 49.6935 36.0609 51.6587L33.9391 51.1556C34.333 49.5275 34.333 47.829 33.9391 46.2009C33.2062 43.2478 31.2484 42.0556 28.9844 40.6775L28.6453 40.4697H25.1562V38.2822H32.8125C34.2629 38.2822 35.6539 37.706 36.6795 36.6804C37.7051 35.6548 38.2812 34.2638 38.2812 32.8134C38.2873 32.6682 38.2631 32.5232 38.2103 32.3878C38.1574 32.2524 38.0771 32.1294 37.9743 32.0266C37.8715 31.9238 37.7485 31.8435 37.6131 31.7906C37.4777 31.7378 37.3327 31.7136 37.1875 31.7197H21.9516C20.4207 31.9688 19.0262 32.7485 18.0124 33.9223C16.9986 35.0961 16.43 36.5891 16.4062 38.14L18.5609 46.7697C19.5562 50.2587 22.5094 53.3978 23.7344 54.59C23.9436 54.7988 24.0615 55.0819 24.0625 55.3775V64.5322C24.0625 64.8222 24.1777 65.1004 24.3829 65.3056C24.588 65.5107 24.8662 65.6259 25.1562 65.6259H44.8437C45.1338 65.6259 45.412 65.5107 45.6171 65.3056C45.8223 65.1004 45.9375 64.8222 45.9375 64.5322V55.6947C45.9363 55.5391 45.969 55.3852 46.0332 55.2436C46.0974 55.102 46.1916 54.976 46.3094 54.8743C49.2114 52.539 51.3484 49.3888 52.4453 45.829L54.2719 34.8806Z" fill="rgb(108, 117, 125)"/>
<path d="M53.5938 30.625C54.7561 31.5916 55.7025 32.7914 56.3719 34.1468C56.4382 34.2725 56.4791 34.41 56.4922 34.5515C57.3163 34.8497 58.1861 35.0014 59.0625 35C61.0656 34.9964 62.9884 34.2116 64.4219 32.8125H60.1563C59.8662 32.8125 59.588 32.6972 59.3829 32.4921C59.1777 32.287 59.0625 32.0088 59.0625 31.7187V22.9687C59.0625 22.6786 59.1777 22.4004 59.3829 22.1953C59.588 21.9902 59.8662 21.875 60.1563 21.875H64.4219C63.7038 21.1697 62.8534 20.6134 61.9196 20.2381C60.9857 19.8628 59.9869 19.6759 58.9805 19.6881C57.9741 19.7003 56.9801 19.9114 56.0556 20.3092C55.1311 20.707 54.2945 21.2838 53.5938 22.0062V30.625Z" fill="rgb(108, 117, 125)"/>
<circle cx="55" cy="52" r="15" fill="#FAFBFE"/>
<path d="M48.2497 50.4223L53.5593 56.1178L62.2346 47.5" stroke="#7876F2" stroke-width="4" stroke-linecap="round" stroke-linejoin="round"/>
</g>
<defs>
<clipPath id="clip0">
<rect width="70" height="70" fill="white"/>
</clipPath>
</defs>
</svg>
