<svg width="30" height="30" viewBox="0 0 30 30" fill="none" xmlns="http://www.w3.org/2000/svg">
<path d="M21.2149 20.7141L26.2149 15.7141C26.3059 15.619 26.3773 15.5068 26.4249 15.3841C26.5249 15.1406 26.5249 14.8676 26.4249 14.6241C26.3773 14.5013 26.3059 14.3892 26.2149 14.2941L21.2149 9.29409C21.1216 9.20085 21.0109 9.12689 20.8891 9.07643C20.7673 9.02597 20.6367 9 20.5049 9C20.2386 9 19.9832 9.10579 19.7949 9.29409C19.6066 9.4824 19.5008 9.73779 19.5008 10.0041C19.5008 10.2704 19.6066 10.5258 19.7949 10.7141L23.0949 14.0041L5.50487 14.0041C5.23965 14.0041 4.98529 14.1094 4.79776 14.297C4.61022 14.4845 4.50487 14.7389 4.50487 15.0041C4.50487 15.2693 4.61022 15.5237 4.79776 15.7112C4.98529 15.8987 5.23965 16.0041 5.50487 16.0041L23.0949 16.0041L19.7949 19.2941C19.7011 19.3871 19.6267 19.4977 19.576 19.6195C19.5252 19.7414 19.4991 19.8721 19.4991 20.0041C19.4991 20.1361 19.5252 20.2668 19.576 20.3887C19.6267 20.5105 19.7011 20.6211 19.7949 20.7141C19.8878 20.8078 19.9984 20.8822 20.1203 20.933C20.2421 20.9838 20.3729 21.0099 20.5049 21.0099C20.6369 21.0099 20.7676 20.9838 20.8894 20.933C21.0113 20.8822 21.1219 20.8078 21.2149 20.7141Z" fill="#FAFBFE"/>
</svg>
