<svg width="18" height="20" viewBox="0 0 18 20" fill="none" xmlns="http://www.w3.org/2000/svg">
<g clip-path="url(#clip0_329_16410)">
<g clip-path="url(#clip1_329_16410)">
<path fill-rule="evenodd" clip-rule="evenodd" d="M1.5 11C1.5 6.86 4.86 3.5 9 3.5C13.14 3.5 16.5 6.86 16.5 11C16.5 15.14 13.14 18.5 9 18.5C4.86 18.5 1.5 15.14 1.5 11ZM7.5 12.6275L11.91 8.21752C12.2038 7.92373 12.6804 7.92457 12.9731 8.21939C13.2644 8.51275 13.2636 8.98644 12.9712 9.27877L8.02 14.23C7.73281 14.5172 7.26719 14.5172 6.98 14.23L5.02926 12.2793C4.73696 11.987 4.73696 11.5131 5.02926 11.2208C5.32116 10.9288 5.79429 10.9284 6.08676 11.2197L7.5 12.6275Z" fill="white"/>
</g>
</g>
<defs>
<clipPath id="clip0_329_16410">
<rect width="18" height="20" fill="white"/>
</clipPath>
<clipPath id="clip1_329_16410">
<rect width="18" height="20" fill="white"/>
</clipPath>
</defs>
</svg>
