<svg width="26" height="26" viewBox="0 0 26 26" fill="none" xmlns="http://www.w3.org/2000/svg">
<path d="M10.5978 3.79129C12.1372 3.06957 13.8624 3.06957 15.4018 3.79129L22.6506 7.18969C24.2274 7.92891 24.2274 10.4878 22.6506 11.227L15.4019 14.6254C13.8625 15.347 12.1373 15.347 10.5979 14.6254L3.34907 11.227C1.77231 10.4878 1.77232 7.92886 3.34907 7.18964L10.5978 3.79129Z" stroke="#616A72" stroke-width="1.5"/>
<path d="M2.1665 9.20837V15.1667" stroke="#616A72" stroke-width="1.5" stroke-linecap="round"/>
<path d="M20.5832 12.4584V18.0109C20.5832 19.1029 20.0377 20.1253 19.0824 20.6544C17.4917 21.5353 14.9455 22.75 12.9998 22.75C11.0542 22.75 8.50801 21.5353 6.91728 20.6544C5.96196 20.1253 5.4165 19.1029 5.4165 18.0109V12.4584" stroke="#616A72" stroke-width="1.5" stroke-linecap="round"/>
</svg>
