<svg width="22" height="22" viewBox="0 0 22 22" fill="none" xmlns="http://www.w3.org/2000/svg">
<path d="M20.75 9.25V10.75C20.75 15.464 20.75 17.8211 19.2855 19.2855C17.8211 20.75 15.464 20.75 10.75 20.75C6.03595 20.75 3.67893 20.75 2.21447 19.2855C0.75 17.8211 0.75 15.464 0.75 10.75C0.75 6.03595 0.75 3.67893 2.21447 2.21447C3.67893 0.75 6.03595 0.75 10.75 0.75H12.25" stroke="#616A72" stroke-width="1.5" stroke-linecap="round"/>
<path d="M15.4025 2.20506L16.0514 1.55624C17.1264 0.481253 18.8693 0.481253 19.9443 1.55624C21.0192 2.63124 21.0192 4.37415 19.9443 5.44914L19.2954 6.09795M15.4025 2.20506C15.4025 2.20506 15.4836 3.58379 16.7002 4.80032C17.9167 6.01685 19.2954 6.09795 19.2954 6.09795M15.4025 2.20506L9.43769 8.16993C9.03369 8.57394 8.83169 8.7759 8.65792 8.9987C8.45298 9.2614 8.27728 9.5457 8.13393 9.8465C8.0124 10.1015 7.92206 10.3725 7.74138 10.9146L7.16291 12.65M19.2954 6.09795L13.3306 12.0628C12.9266 12.4668 12.7246 12.6688 12.5018 12.8426C12.2391 13.0475 11.9548 13.2232 11.654 13.3666C11.399 13.4881 11.128 13.5784 10.5859 13.7591L8.85049 14.3376M7.16291 12.65L6.7886 13.7729C6.69969 14.0397 6.76911 14.3337 6.96793 14.5326C7.16675 14.7314 7.46084 14.8008 7.72758 14.7119L8.85049 14.3376M7.16291 12.65L8.85049 14.3376" stroke="#616A72" stroke-width="1.5"/>
</svg>
