<svg width="32" height="32" viewBox="0 0 32 32" fill="none" xmlns="http://www.w3.org/2000/svg">
<g clip-path="url(#clip0_1735_16100)">
<path d="M16.0001 27.6365C22.4267 27.6365 27.6365 22.4267 27.6365 16.0001C27.6365 9.57355 22.4267 4.36377 16.0001 4.36377C9.57355 4.36377 4.36377 9.57355 4.36377 16.0001C4.36377 22.4267 9.57355 27.6365 16.0001 27.6365Z" fill="#7876F2"/>
<g opacity="0.8" filter="url(#filter0_f_1735_16100)">
<path d="M16.0001 21.091C18.8117 21.091 21.091 18.8117 21.091 16.0001C21.091 13.1885 18.8117 10.9092 16.0001 10.9092C13.1885 10.9092 10.9092 13.1885 10.9092 16.0001C10.9092 18.8117 13.1885 21.091 16.0001 21.091Z" fill="white"/>
</g>
<path d="M21.7156 12.9351L18.1865 16.3635L21.7156 19.7919C21.7794 19.6615 21.8181 19.5174 21.8181 19.3635V13.3635C21.8181 13.2095 21.7794 13.0655 21.7156 12.9351Z" fill="white"/>
<path d="M20.7956 12.3638H11.2047C11.0473 12.3638 10.8999 12.4016 10.7666 12.464L15.2771 16.8521C15.6759 17.242 16.3245 17.242 16.7233 16.8521L21.2338 12.464C21.1005 12.4016 20.9531 12.3638 20.7956 12.3638Z" fill="white"/>
<path d="M10.2841 12.9351C10.2203 13.0655 10.1816 13.2095 10.1816 13.3635V19.3635C10.1816 19.5175 10.2203 19.6615 10.2841 19.7919L13.8132 16.3635L10.2841 12.9351Z" fill="white"/>
<path d="M17.7047 16.835L17.2054 17.3233C16.5409 17.973 15.4595 17.973 14.795 17.3233L14.2956 16.835L10.7666 20.2634C10.8999 20.3258 11.0473 20.3636 11.2047 20.3636H20.7956C20.9531 20.3636 21.1005 20.3258 21.2338 20.2634L17.7047 16.835Z" fill="white"/>
</g>
<defs>
<filter id="filter0_f_1735_16100" x="-4.09082" y="-4.09082" width="40.1816" height="40.1816" filterUnits="userSpaceOnUse" color-interpolation-filters="sRGB">
<feFlood flood-opacity="0" result="BackgroundImageFix"/>
<feBlend mode="normal" in="SourceGraphic" in2="BackgroundImageFix" result="shape"/>
<feGaussianBlur stdDeviation="7.5" result="effect1_foregroundBlur_1735_16100"/>
</filter>
<clipPath id="clip0_1735_16100">
<rect width="32" height="32" fill="white"/>
</clipPath>
</defs>
</svg>
