<svg width="38" height="38" viewBox="0 0 38 38" fill="none" xmlns="http://www.w3.org/2000/svg">
<rect width="38" height="38" fill="#E9E7FF"/>
<path fill-rule="evenodd" clip-rule="evenodd" d="M30.3962 30.5151C30.6497 30.5151 30.8679 30.68 30.9157 30.9077L32.2858 37.4253C32.3482 37.7233 32.099 37.9993 31.7673 37.9995H6.60908C6.27717 37.9995 6.02715 37.7234 6.08954 37.4253L7.45966 30.9077C7.50752 30.68 7.72565 30.5151 7.97919 30.5151H30.3962ZM15.4694 32.856C15.2308 32.856 15.0258 33.0214 14.9811 33.2495L14.6071 35.1606C14.5488 35.4587 14.7837 35.7349 15.0954 35.7349H23.3591C23.6708 35.7349 23.9057 35.4587 23.8474 35.1606L23.4733 33.2495C23.4287 33.0214 23.2236 32.856 22.9851 32.856H15.4694Z" fill="url(#paint0_linear_1760_11480)"/>
<path d="M19.3898 5.40039L19.5294 6.66339L21.0693 6.80557L19.32 6.95822L19.1943 6.26869L18.5521 6.93269L17.4352 7.06038L18.1891 8.33729L17.5748 8.97575L17.8345 8.23951L16.7372 6.80557L18.3147 6.66339L19.3898 5.40039Z" fill="url(#paint1_linear_1760_11480)"/>
<path fill-rule="evenodd" clip-rule="evenodd" d="M13.2602 14.875C13.1268 14.4708 13.5846 14.0834 14.017 14.2314C15.2597 14.6567 17.2949 15.2578 18.8735 15.2578C20.4506 15.2578 22.483 14.6576 23.726 14.2324C24.1589 14.0844 24.6177 14.4726 24.4838 14.8769C23.9352 16.5294 22.9734 19.7752 23.0131 22.123C23.0537 24.518 24.1375 27.897 24.6225 29.2949C24.7324 29.6117 24.4742 29.9385 24.1108 29.9385H13.6362C13.2727 29.9383 13.0153 29.6117 13.1254 29.2949C13.6126 27.8948 14.7012 24.5085 14.7338 22.123C14.7658 19.782 13.8061 16.529 13.2602 14.875Z" fill="url(#paint2_linear_1760_11480)"/>
<path d="M18.8732 0C23.2189 0 26.7423 3.22258 26.7423 7.19727C26.742 11.1717 23.2187 14.3936 18.8732 14.3936C14.5278 14.3934 11.0053 11.1716 11.005 7.19727C11.005 3.22271 14.5277 0.000202227 18.8732 0ZM18.8732 4.60547C17.3089 4.60555 16.0412 5.76552 16.0411 7.19629C16.0411 8.62712 17.3088 9.78703 18.8732 9.78711C20.4376 9.78711 21.7062 8.62717 21.7062 7.19629C21.7061 5.76548 20.4376 4.60547 18.8732 4.60547ZM19.9415 0.891602C19.6529 0.850735 19.3979 1.05208 19.3751 1.31836L19.3439 1.67773C19.3211 1.94396 19.5397 2.17449 19.8273 2.2207C20.3658 2.30708 20.8889 2.46679 21.3781 2.69434C21.8669 2.92183 22.3148 3.21444 22.7081 3.56152C22.9183 3.74699 23.2509 3.77221 23.4728 3.59863L23.7726 3.36426C23.9945 3.19064 24.0216 2.88358 23.8156 2.69434C23.2954 2.21674 22.6952 1.81635 22.0363 1.50977C21.3773 1.2032 20.6699 0.994824 19.9415 0.891602Z" fill="url(#paint3_linear_1760_11480)"/>
<defs>
<linearGradient id="paint0_linear_1760_11480" x1="19.1877" y1="30.5151" x2="19.1877" y2="37.9995" gradientUnits="userSpaceOnUse">
<stop offset="0.0104167" stop-color="white"/>
<stop offset="0.15625" stop-color="white" stop-opacity="0.89"/>
<stop offset="0.296875" stop-color="white"/>
<stop offset="0.427083" stop-color="white" stop-opacity="0.83"/>
<stop offset="0.625" stop-color="white" stop-opacity="0.99"/>
<stop offset="0.734375" stop-color="white"/>
<stop offset="0.859375" stop-color="white" stop-opacity="0.93"/>
<stop offset="1" stop-color="white" stop-opacity="0.62"/>
</linearGradient>
<linearGradient id="paint1_linear_1760_11480" x1="16.9997" y1="6.48927" x2="33.4073" y2="6.91981" gradientUnits="userSpaceOnUse">
<stop stop-color="#EEF2F7"/>
<stop offset="1" stop-color="#EEF2F7" stop-opacity="0"/>
</linearGradient>
<linearGradient id="paint2_linear_1760_11480" x1="18.8739" y1="14.1992" x2="18.8739" y2="29.9385" gradientUnits="userSpaceOnUse">
<stop offset="0.0104167" stop-color="white"/>
<stop offset="0.15625" stop-color="white" stop-opacity="0.89"/>
<stop offset="0.296875" stop-color="white"/>
<stop offset="0.427083" stop-color="white" stop-opacity="0.83"/>
<stop offset="0.625" stop-color="white" stop-opacity="0.99"/>
<stop offset="0.734375" stop-color="white"/>
<stop offset="0.859375" stop-color="white" stop-opacity="0.93"/>
<stop offset="1" stop-color="white" stop-opacity="0.62"/>
</linearGradient>
<linearGradient id="paint3_linear_1760_11480" x1="18.8737" y1="0" x2="18.8737" y2="14.3936" gradientUnits="userSpaceOnUse">
<stop offset="0.0104167" stop-color="white"/>
<stop offset="0.15625" stop-color="white" stop-opacity="0.89"/>
<stop offset="0.296875" stop-color="white"/>
<stop offset="0.427083" stop-color="white" stop-opacity="0.83"/>
<stop offset="0.625" stop-color="white" stop-opacity="0.99"/>
<stop offset="0.734375" stop-color="white"/>
<stop offset="0.859375" stop-color="white" stop-opacity="0.93"/>
<stop offset="1" stop-color="white" stop-opacity="0.62"/>
</linearGradient>
</defs>
</svg>
