<svg width="22" height="22" viewBox="0 0 22 22" fill="none" xmlns="http://www.w3.org/2000/svg">
<path d="M8.75 12.75H10.75M10.75 12.75H12.75M10.75 12.75V14.75M10.75 12.75V10.75" stroke="#616A72" stroke-width="1.5" stroke-linecap="round"/>
<path d="M0.75 5.69975C0.75 4.81722 0.75 4.37595 0.81935 4.00839C1.12464 2.39031 2.39031 1.12464 4.00839 0.81935C4.37595 0.75 4.81722 0.75 5.69975 0.75C6.08642 0.75 6.27976 0.75 6.46557 0.76738C7.26665 0.84229 8.02652 1.15704 8.64594 1.67051C8.7896 1.78961 8.9263 1.92633 9.1997 2.19975L9.75 2.75C10.5658 3.56578 10.9737 3.97367 11.4621 4.24543C11.7304 4.39471 12.0151 4.5126 12.3104 4.59678C12.8479 4.75 13.4247 4.75 14.5784 4.75H14.9521C17.5845 4.75 18.9006 4.75 19.7562 5.51946C19.8349 5.59024 19.9098 5.66514 19.9805 5.74383C20.75 6.59935 20.75 7.91554 20.75 10.5479V12.75C20.75 16.5212 20.75 18.4069 19.5784 19.5784C18.4069 20.75 16.5212 20.75 12.75 20.75H8.75C4.97876 20.75 3.09315 20.75 1.92157 19.5784C0.75 18.4069 0.75 16.5212 0.75 12.75V5.69975Z" stroke="#616A72" stroke-width="1.5"/>
</svg>
