<svg width="150" height="43" viewBox="0 0 150 43" fill="none" xmlns="http://www.w3.org/2000/svg">
<g clip-path="url(#clip0_1397_7027)">
<g clip-path="url(#clip1_1397_7027)">
<mask id="mask0_1397_7027" style="mask-type:luminance" maskUnits="userSpaceOnUse" x="0" y="3" width="150" height="38">
<path d="M149.992 3.16846H0.00878906V40.136H149.992V3.16846Z" fill="white"/>
</mask>
<g mask="url(#mask0_1397_7027)">
<path d="M14.3587 34.594C14.136 34.594 13.9526 34.5218 13.8085 34.3777C13.6644 34.2337 13.5923 34.0502 13.5923 33.8275V20.0135C13.5923 19.7908 13.6644 19.6074 13.8085 19.4633C13.9526 19.3192 14.136 19.2471 14.3587 19.2471H18.2887C19.2581 19.2471 20.1162 19.4633 20.8629 19.8956C21.6096 20.3147 22.1925 20.8977 22.6117 21.6445C23.0309 22.3912 23.2406 23.2558 23.2406 24.2382C23.2406 25.1946 23.0309 26.0461 22.6117 26.7928C22.1925 27.5264 21.6096 28.1094 20.8629 28.5416C20.1162 28.9608 19.2581 29.1705 18.2887 29.1705H15.1251V33.8275C15.1251 34.0502 15.053 34.2337 14.9088 34.3777C14.7648 34.5218 14.5814 34.594 14.3587 34.594ZM15.1251 27.6967H18.2887C18.9568 27.6967 19.5528 27.5526 20.0769 27.2644C20.6009 26.9631 21.007 26.5504 21.2952 26.0264C21.5965 25.5025 21.7471 24.9064 21.7471 24.2382C21.7471 23.5439 21.5965 22.9348 21.2952 22.4108C21.007 21.8868 20.6009 21.4742 20.0769 21.1729C19.5528 20.8715 18.9568 20.7209 18.2887 20.7209H15.1251V27.6967ZM29.9172 34.6922C28.8561 34.6922 27.9129 34.4629 27.0875 34.0044C26.2754 33.5328 25.6335 32.8843 25.1619 32.0591C24.7033 31.2337 24.474 30.2905 24.474 29.2295C24.474 28.1552 24.6903 27.212 25.1225 26.3998C25.5679 25.5745 26.1771 24.926 26.95 24.4544C27.7229 23.9828 28.6137 23.747 29.6224 23.747C30.618 23.747 31.4826 23.9763 32.2163 24.4348C32.963 24.8802 33.5393 25.5025 33.9455 26.3015C34.3516 27.1006 34.5546 28.0111 34.5546 29.0329C34.5546 29.2425 34.4891 29.4128 34.3581 29.5438C34.2271 29.6617 34.0568 29.7207 33.8472 29.7207H25.9086C25.9871 30.4281 26.2033 31.0569 26.557 31.6071C26.9107 32.1442 27.3757 32.5699 27.9521 32.8843C28.5286 33.1856 29.1836 33.3363 29.9172 33.3363C30.3888 33.3363 30.8604 33.2577 31.332 33.1005C31.8167 32.9302 32.2031 32.7206 32.4913 32.4717C32.6355 32.3538 32.7992 32.2948 32.9826 32.2948C33.166 32.2818 33.3232 32.3276 33.4542 32.4324C33.6245 32.5896 33.7096 32.7599 33.7096 32.9433C33.7228 33.1267 33.6507 33.2839 33.4935 33.4149C33.0612 33.7817 32.511 34.0896 31.8429 34.3385C31.1748 34.5742 30.5328 34.6922 29.9172 34.6922ZM29.6224 25.1029C28.6137 25.1029 27.7818 25.4173 27.1268 26.0461C26.4718 26.6618 26.0789 27.4674 25.9478 28.463H33.1398C33.035 27.4674 32.6682 26.6618 32.0394 26.0461C31.4236 25.4173 30.618 25.1029 29.6224 25.1029ZM37.8609 34.594C37.3631 34.594 37.1142 34.345 37.1142 33.8472V24.592C37.1142 24.0941 37.3631 23.8452 37.8609 23.8452C38.3587 23.8452 38.6076 24.0941 38.6076 24.592V25.4369C39.0006 24.9129 39.4853 24.5003 40.0617 24.199C40.6381 23.8846 41.2735 23.7274 41.9678 23.7274C42.5704 23.7274 43.0354 23.8125 43.3629 23.9828C43.6905 24.1531 43.8149 24.402 43.7363 24.7296C43.6708 25.0309 43.5136 25.188 43.2647 25.2012C43.0289 25.2012 42.7473 25.188 42.4197 25.1618C41.6862 25.0963 41.0311 25.1749 40.4547 25.3976C39.8914 25.6072 39.4395 25.9347 39.0989 26.3801C38.7714 26.8255 38.6076 27.3561 38.6076 27.9718V33.8472C38.6076 34.345 38.3587 34.594 37.8609 34.594ZM47.4503 34.594C47.2538 34.594 47.0835 34.5284 46.9394 34.3974C46.7954 34.2533 46.7233 34.0634 46.7233 33.8275V25.5548H45.4657C45.2561 25.5548 45.0858 25.4959 44.9548 25.378C44.8369 25.247 44.7779 25.0898 44.7779 24.9064C44.7779 24.7098 44.8369 24.5527 44.9548 24.4348C45.0858 24.3038 45.2561 24.2382 45.4657 24.2382H46.7233V23.865C46.7233 22.4894 47.077 21.3759 47.7844 20.5244C48.4918 19.6729 49.5136 19.2471 50.8498 19.2471C51.0726 19.2471 51.2559 19.3126 51.4 19.4437C51.5442 19.5746 51.6162 19.7384 51.6162 19.9349C51.6162 20.1314 51.5442 20.2951 51.4 20.4261C51.2559 20.5572 51.0726 20.6226 50.8498 20.6226C49.959 20.6226 49.2975 20.9239 48.8651 21.5266C48.4459 22.1161 48.2364 22.8693 48.2364 23.7863V24.2382H50.5944C50.8039 24.2382 50.9677 24.3038 51.0856 24.4348C51.2167 24.5527 51.2821 24.7098 51.2821 24.9064C51.2821 25.0898 51.2167 25.247 51.0856 25.378C50.9677 25.4959 50.8039 25.5548 50.5944 25.5548H48.2364V33.8275C48.2364 34.0634 48.1643 34.2533 48.0202 34.3974C47.8892 34.5284 47.6992 34.594 47.4503 34.594ZM57.8193 34.6922C56.7713 34.6922 55.8347 34.4564 55.0094 33.9848C54.184 33.5131 53.5356 32.8647 53.064 32.0394C52.5924 31.2141 52.3566 30.2774 52.3566 29.2295C52.3566 28.1683 52.5924 27.2251 53.064 26.3998C53.5356 25.5745 54.184 24.926 55.0094 24.4544C55.8347 23.9828 56.7713 23.747 57.8193 23.747C58.8674 23.747 59.7974 23.9828 60.6097 24.4544C61.435 24.926 62.0834 25.5745 62.555 26.3998C63.0266 27.2251 63.2689 28.1683 63.2821 29.2295C63.2821 30.2774 63.0398 31.2141 62.555 32.0394C62.0834 32.8647 61.435 33.5131 60.6097 33.9848C59.7974 34.4564 58.8674 34.6922 57.8193 34.6922ZM57.8193 33.3167C58.5791 33.3167 59.2604 33.1398 59.863 32.7861C60.4655 32.4324 60.9371 31.9477 61.2778 31.332C61.6184 30.7163 61.7887 30.0154 61.7887 29.2295C61.7887 28.4434 61.6184 27.7425 61.2778 27.1268C60.9371 26.498 60.4655 26.0068 59.863 25.6531C59.2604 25.2994 58.5791 25.1225 57.8193 25.1225C57.0595 25.1225 56.3783 25.2994 55.7757 25.6531C55.1731 26.0068 54.695 26.498 54.3413 27.1268C54.0007 27.7425 53.8304 28.4434 53.8304 29.2295C53.8304 30.0154 54.0007 30.7163 54.3413 31.332C54.695 31.9477 55.1731 32.4324 55.7757 32.7861C56.3783 33.1398 57.0595 33.3167 57.8193 33.3167ZM66.9716 34.594C66.4738 34.594 66.2249 34.345 66.2249 33.8472V24.592C66.2249 24.0941 66.4738 23.8452 66.9716 23.8452C67.4694 23.8452 67.7183 24.0941 67.7183 24.592V25.4369C68.1113 24.9129 68.596 24.5003 69.1724 24.199C69.7488 23.8846 70.3841 23.7274 71.0784 23.7274C71.681 23.7274 72.1461 23.8125 72.4736 23.9828C72.8011 24.1531 72.9256 24.402 72.8469 24.7296C72.7815 25.0309 72.6243 25.188 72.3754 25.2012C72.1396 25.2012 71.8579 25.188 71.5304 25.1618C70.7968 25.0963 70.1418 25.1749 69.5654 25.3976C69.0021 25.6072 68.5501 25.9347 68.2095 26.3801C67.882 26.8255 67.7183 27.3561 67.7183 27.9718V33.8472C67.7183 34.345 67.4694 34.594 66.9716 34.594ZM75.9911 34.594C75.7554 34.594 75.5653 34.5284 75.4213 34.3974C75.2903 34.2533 75.2248 34.0699 75.2248 33.8472V24.6116C75.2248 24.3889 75.2903 24.2055 75.4213 24.0615C75.5653 23.9173 75.7554 23.8452 75.9911 23.8452C76.2138 23.8452 76.3907 23.9173 76.5217 24.0615C76.6658 24.2055 76.7378 24.3889 76.7378 24.6116V25.0439C77.1047 24.6247 77.5369 24.3038 78.0348 24.0811C78.5326 23.8452 79.0828 23.7274 79.6854 23.7274C80.419 23.7274 81.0674 23.8911 81.6307 24.2186C82.2071 24.5461 82.6657 24.9981 83.0063 25.5745C83.3731 24.9981 83.8643 24.5461 84.4804 24.2186C85.0955 23.8911 85.7839 23.7274 86.5431 23.7274C87.3166 23.7274 87.9974 23.9108 88.5872 24.2776C89.1897 24.6444 89.6548 25.1618 89.9817 25.8299C90.323 26.498 90.4932 27.2841 90.4932 28.1879V33.8472C90.4932 34.0699 90.4207 34.2533 90.2766 34.3974C90.146 34.5284 89.9691 34.594 89.7467 34.594C89.5234 34.594 89.3405 34.5284 89.1964 34.3974C89.0523 34.2533 88.9799 34.0699 88.9799 33.8472V28.1879C88.9799 27.2579 88.7372 26.5242 88.2527 25.9871C87.7682 25.4369 87.1455 25.1618 86.3864 25.1618C85.5741 25.1618 84.9059 25.4369 84.3818 25.9871C83.8709 26.5242 83.622 27.2447 83.6351 28.1487V28.1879V33.8472C83.6351 34.0699 83.563 34.2533 83.4189 34.3974C83.288 34.5284 83.1111 34.594 82.8884 34.594C82.6657 34.594 82.4823 34.5284 82.3382 34.3974C82.1941 34.2533 82.122 34.0699 82.122 33.8472V28.1879C82.122 27.2579 81.8796 26.5242 81.395 25.9871C80.9102 25.4369 80.288 25.1618 79.5282 25.1618C78.716 25.1618 78.0479 25.4303 77.5239 25.9675C76.9999 26.4915 76.7378 27.1792 76.7378 28.0308V33.8472C76.7378 34.0699 76.6658 34.2533 76.5217 34.3974C76.3907 34.5284 76.2138 34.594 75.9911 34.594ZM98.9082 34.7904C98.0699 34.7904 97.2711 34.6594 96.511 34.3974C95.751 34.1354 95.0896 33.7686 94.5267 33.297C93.963 32.8254 93.5501 32.2818 93.2889 31.666C93.1575 31.3909 93.1575 31.1355 93.2889 30.8997C93.433 30.6639 93.6681 30.5132 93.9959 30.4477C94.2318 30.3954 94.461 30.4346 94.6834 30.5656C94.9194 30.6835 95.0963 30.867 95.2143 31.1159C95.3718 31.4433 95.6272 31.7446 95.9802 32.0197C96.3476 32.2948 96.7866 32.5175 97.2972 32.6878C97.8078 32.8581 98.3454 32.9433 98.9082 32.9433C99.5377 32.9433 100.114 32.8451 100.638 32.6486C101.175 32.4521 101.607 32.1704 101.935 31.8036C102.262 31.4237 102.426 30.9586 102.426 30.4084C102.426 29.7141 102.151 29.0919 101.6 28.5416C101.064 27.9914 100.173 27.6508 98.9285 27.5198C97.3039 27.3627 96.0265 26.8845 95.0963 26.0854C94.1661 25.2863 93.701 24.2972 93.701 23.1182C93.701 22.2536 93.9436 21.52 94.4281 20.9174C94.9126 20.3147 95.5682 19.8563 96.3931 19.5419C97.2315 19.2275 98.1617 19.0703 99.1838 19.0703C100.376 19.0703 101.352 19.3126 102.112 19.7973C102.871 20.2821 103.5 20.9239 103.998 21.7231C104.181 22.0112 104.254 22.2863 104.214 22.5484C104.188 22.7972 104.063 22.9938 103.841 23.1379C103.591 23.295 103.323 23.3278 103.035 23.2361C102.747 23.1445 102.531 22.9741 102.386 22.7252C102.059 22.1619 101.633 21.7231 101.109 21.4086C100.598 21.0942 99.937 20.9305 99.1248 20.9174C98.1549 20.9043 97.3427 21.0877 96.688 21.4676C96.0333 21.8344 95.7055 22.4042 95.7055 23.1771C95.7055 23.5701 95.8041 23.9501 96.0004 24.3168C96.2102 24.6706 96.5835 24.9785 97.1202 25.2404C97.6705 25.5025 98.4566 25.6858 99.4787 25.7906C101.037 25.9479 102.249 26.426 103.114 27.2251C103.992 28.0111 104.43 29.0526 104.43 30.3494C104.43 31.0962 104.273 31.7446 103.959 32.2948C103.657 32.8451 103.244 33.3101 102.721 33.69C102.21 34.0568 101.621 34.3319 100.952 34.5153C100.297 34.6987 99.616 34.7904 98.9082 34.7904ZM111.278 34.594C110.623 34.594 110.033 34.4302 109.509 34.1026C108.985 33.7621 108.573 33.3035 108.271 32.7272C107.97 32.1507 107.82 31.5023 107.82 30.7818V25.9282H106.915C106.64 25.9282 106.417 25.8496 106.247 25.6924C106.077 25.5352 105.992 25.3387 105.992 25.1029C105.992 24.8409 106.077 24.6313 106.247 24.4741C106.417 24.3168 106.64 24.2382 106.915 24.2382H107.82V21.4086C107.82 21.1204 107.911 20.8847 108.094 20.7012C108.278 20.5178 108.514 20.4261 108.802 20.4261C109.09 20.4261 109.326 20.5178 109.509 20.7012C109.693 20.8847 109.785 21.1204 109.785 21.4086V24.2382H111.455C111.73 24.2382 111.953 24.3168 112.123 24.4741C112.293 24.6313 112.378 24.8409 112.378 25.1029C112.378 25.3387 112.293 25.5352 112.123 25.6924C111.953 25.8496 111.73 25.9282 111.455 25.9282H109.785V30.7818C109.785 31.3058 109.929 31.7446 110.217 32.0983C110.505 32.4521 110.859 32.6289 111.278 32.6289H111.946C112.182 32.6289 112.378 32.7206 112.536 32.904C112.706 33.0874 112.791 33.3232 112.791 33.6114C112.791 33.8996 112.68 34.1354 112.456 34.3188C112.247 34.5022 111.972 34.594 111.631 34.594H111.278ZM119.735 34.6725C118.778 34.6725 117.92 34.4367 117.161 33.9651C116.401 33.4804 115.798 32.8319 115.352 32.0197C114.92 31.1944 114.704 30.2643 114.704 29.2295C114.704 28.1945 114.94 27.2644 115.411 26.4391C115.896 25.6138 116.545 24.9653 117.357 24.4937C118.182 24.009 119.106 23.7666 120.127 23.7666C121.15 23.7666 122.066 24.009 122.879 24.4937C123.691 24.9653 124.333 25.6138 124.805 26.4391C125.289 27.2644 125.531 28.1945 125.531 29.2295V33.6114C125.531 33.8996 125.433 34.142 125.237 34.3385C125.053 34.5218 124.817 34.6136 124.529 34.6136C124.241 34.6136 123.998 34.5218 123.802 34.3385C123.619 34.142 123.527 33.8996 123.527 33.6114V32.8843C123.069 33.4345 122.512 33.8734 121.856 34.2009C121.215 34.5153 120.507 34.6725 119.735 34.6725ZM120.127 32.904C120.796 32.904 121.391 32.7468 121.915 32.4324C122.44 32.1049 122.852 31.666 123.154 31.1159C123.455 30.5525 123.606 29.9238 123.606 29.2295C123.606 28.522 123.455 27.8932 123.154 27.343C122.852 26.7797 122.44 26.3409 121.915 26.0264C121.391 25.699 120.796 25.5352 120.127 25.5352C119.473 25.5352 118.876 25.699 118.339 26.0264C117.815 26.3409 117.397 26.7797 117.081 27.343C116.781 27.8932 116.63 28.522 116.63 29.2295C116.63 29.9238 116.781 30.5525 117.081 31.1159C117.397 31.666 117.815 32.1049 118.339 32.4324C118.876 32.7468 119.473 32.904 120.127 32.904ZM129.497 34.594C128.842 34.594 128.515 34.2664 128.515 33.6114V24.8278C128.515 24.1728 128.842 23.8452 129.497 23.8452C130.152 23.8452 130.48 24.1728 130.48 24.8278V25.2012C130.872 24.7426 131.351 24.3824 131.914 24.1204C132.49 23.8584 133.113 23.7274 133.781 23.7274C134.566 23.7274 135.149 23.8584 135.529 24.1204C135.923 24.3693 136.073 24.6706 135.982 25.0243C135.916 25.2994 135.785 25.4828 135.588 25.5745C135.392 25.6531 135.163 25.6662 134.901 25.6138C134.062 25.4435 133.309 25.4303 132.641 25.5745C131.973 25.7186 131.442 25.9871 131.049 26.3801C130.669 26.7731 130.48 27.2709 130.48 27.8735V33.6114C130.48 34.2664 130.152 34.594 129.497 34.594ZM141.981 34.6725C141.064 34.6725 140.212 34.535 139.426 34.2599C138.654 33.9717 138.051 33.6114 137.619 33.1791C137.423 32.9695 137.338 32.7337 137.364 32.4717C137.402 32.1966 137.534 31.9739 137.756 31.8036C138.018 31.594 138.274 31.5089 138.523 31.5481C138.785 31.5743 139.008 31.6857 139.191 31.8822C139.414 32.1311 139.768 32.3669 140.252 32.5896C140.75 32.7992 141.3 32.904 141.903 32.904C142.663 32.904 143.239 32.7796 143.632 32.5307C144.038 32.2818 144.248 31.9608 144.26 31.5678C144.274 31.1748 144.083 30.8342 143.691 30.546C143.311 30.2578 142.61 30.022 141.588 29.8386C140.265 29.5766 139.302 29.1835 138.7 28.6595C138.11 28.1356 137.815 27.4936 137.815 26.7338C137.815 26.0657 138.012 25.5155 138.405 25.0832C138.798 24.6378 139.302 24.3104 139.918 24.1007C140.534 23.878 141.176 23.7666 141.844 23.7666C142.708 23.7666 143.474 23.9042 144.142 24.1793C144.811 24.4544 145.341 24.8343 145.734 25.319C145.918 25.5287 146.003 25.7514 145.99 25.9871C145.977 26.2098 145.865 26.3998 145.656 26.557C145.446 26.7011 145.197 26.7469 144.909 26.6946C144.621 26.6422 144.378 26.5242 144.182 26.3409C143.854 26.0264 143.501 25.8103 143.121 25.6924C142.741 25.5745 142.302 25.5155 141.804 25.5155C141.228 25.5155 140.737 25.6138 140.33 25.8103C139.938 26.0068 139.741 26.295 139.741 26.6749C139.741 26.9107 139.8 27.1268 139.918 27.3233C140.049 27.5068 140.298 27.677 140.665 27.8343C141.031 27.9784 141.568 28.1224 142.276 28.2665C143.756 28.5548 144.778 28.9674 145.341 29.5045C145.918 30.0285 146.206 30.677 146.206 31.4499C146.206 32.0525 146.042 32.5961 145.715 33.0808C145.4 33.5656 144.929 33.952 144.3 34.2402C143.684 34.5284 142.911 34.6725 141.981 34.6725Z" fill="white"/>
<path d="M20.0156 3.81897C20.1624 3.60164 20.5008 3.68924 20.5238 3.95052L21.3454 13.2984C21.4396 14.3712 22.326 15.2015 23.4027 15.2254L50.9862 15.8389H22.4283C21.3175 15.8389 20.3963 14.9785 20.3208 13.8702L19.8533 7.01769C19.835 6.7493 19.4846 6.66023 19.3403 6.88732L15.2311 13.3571C14.2314 14.9311 12.5893 15.9849 10.7421 16.238L4.31545 17.1188C3.92023 17.173 3.70838 17.6128 3.91239 17.9556L8.83739 26.2307C9.77587 27.8077 9.82854 29.7587 8.97641 31.3839L5.74017 37.5563L8.15307 30.8003C8.60887 29.5241 8.42482 28.1068 7.65823 26.9893L0.540757 16.6142C0.30132 16.2652 0.523246 15.7871 0.944389 15.7448L9.8057 14.8538C11.6778 14.6656 13.3694 13.6553 14.4227 12.0963L20.0156 3.81897Z" fill="white"/>
</g>
</g>
</g>
<defs>
<clipPath id="clip0_1397_7027">
<rect width="150" height="42.13" fill="white"/>
</clipPath>
<clipPath id="clip1_1397_7027">
<rect width="149.983" height="42.13" fill="white" transform="translate(0.00878906)"/>
</clipPath>
</defs>
</svg>
