<svg width="22" height="22" viewBox="0 0 22 22" fill="none" xmlns="http://www.w3.org/2000/svg">
<path d="M17.4097 7.0361L17.778 6.66787C18.1204 6.32542 18.2916 6.1542 18.3945 5.97608C18.6736 5.49271 18.6736 4.89718 18.3945 4.41381C18.2916 4.23569 18.1204 4.06446 17.778 3.72202C17.4355 3.37957 17.2643 3.20835 17.0862 3.10551C16.6028 2.82644 16.0073 2.82644 15.5239 3.10551C15.3458 3.20835 15.1746 3.37957 14.8321 3.72202L14.4639 4.09025M10.0451 14.4007L4.52166 19.9242C4.17921 20.2666 4.00799 20.4379 3.82987 20.5407C3.3465 20.8198 2.75097 20.8198 2.2676 20.5407C2.08948 20.4379 1.91825 20.2666 1.57581 19.9242C1.23337 19.5817 1.06214 19.4105 0.959302 19.2324C0.680232 18.749 0.680232 18.1535 0.959302 17.6701C1.06214 17.492 1.23337 17.3208 1.57581 16.9783L7.09928 11.4549M6.36281 10.7184L10.7816 15.1372C12.5174 16.873 13.3854 17.741 14.4639 17.741C15.5424 17.741 16.4104 16.873 18.1462 15.1372C19.8821 13.4013 20.75 12.5334 20.75 11.4549C20.75 10.3763 19.8821 9.5084 18.1462 7.77256L13.7274 3.35379C11.9916 1.61793 11.1237 0.75 10.0451 0.75C8.9666 0.75 8.09867 1.61793 6.36281 3.35379C4.62696 5.08965 3.75903 5.95757 3.75903 7.0361C3.75903 8.11462 4.62696 8.9826 6.36281 10.7184Z" stroke="#616A72" stroke-width="1.5"/>
</svg>
