<svg width="32" height="32" viewBox="0 0 32 32" fill="none" xmlns="http://www.w3.org/2000/svg">
<g clip-path="url(#clip0_1735_16084)">
<path d="M16.0001 27.6365C22.4267 27.6365 27.6365 22.4267 27.6365 16.0001C27.6365 9.57355 22.4267 4.36377 16.0001 4.36377C9.57355 4.36377 4.36377 9.57355 4.36377 16.0001C4.36377 22.4267 9.57355 27.6365 16.0001 27.6365Z" fill="#FA5C7C"/>
<g opacity="0.8" filter="url(#filter0_f_1735_16084)">
<path d="M16.0001 21.091C18.8117 21.091 21.091 18.8117 21.091 16.0001C21.091 13.1885 18.8117 10.9092 16.0001 10.9092C13.1885 10.9092 10.9092 13.1885 10.9092 16.0001C10.9092 18.8117 13.1885 21.091 16.0001 21.091Z" fill="white"/>
</g>
<path d="M20.1621 10.1816H11.8376C10.8977 10.1816 10.1816 10.8977 10.1816 11.8376V20.1621C10.1816 21.1019 10.8977 21.818 11.8376 21.818H20.1621C21.1019 21.818 21.818 21.1019 21.818 20.1621V11.8376C21.818 10.8977 21.1019 10.1816 20.1621 10.1816ZM15.9998 19.4907C17.9243 19.4907 19.4907 17.9691 19.4907 16.1341C19.4907 15.8208 19.446 15.4627 19.3565 15.1942H20.3411V19.9383C20.3411 20.1621 20.1621 20.3859 19.8935 20.3859H12.1061C11.8824 20.3859 11.6586 20.2068 11.6586 19.9383V15.1495H12.688C12.5984 15.4627 12.5536 15.776 12.5536 16.0894C12.5089 17.9691 14.0753 19.4907 15.9998 19.4907ZM15.9998 18.148C14.7467 18.148 13.7621 17.1635 13.7621 15.9551C13.7621 14.7467 14.7467 13.7621 15.9998 13.7621C17.253 13.7621 18.2376 14.7467 18.2376 15.9551C18.2376 17.2082 17.253 18.148 15.9998 18.148ZM20.2963 13.3592C20.2963 13.6278 20.0726 13.8516 19.804 13.8516H18.5509C18.2824 13.8516 18.0586 13.6278 18.0586 13.3592V12.1509C18.0586 11.8824 18.2824 11.6586 18.5509 11.6586H19.804C20.0726 11.6586 20.2963 11.8824 20.2963 12.1509V13.3592Z" fill="white"/>
</g>
<defs>
<filter id="filter0_f_1735_16084" x="-4.09082" y="-4.09082" width="40.1816" height="40.1816" filterUnits="userSpaceOnUse" color-interpolation-filters="sRGB">
<feFlood flood-opacity="0" result="BackgroundImageFix"/>
<feBlend mode="normal" in="SourceGraphic" in2="BackgroundImageFix" result="shape"/>
<feGaussianBlur stdDeviation="7.5" result="effect1_foregroundBlur_1735_16084"/>
</filter>
<clipPath id="clip0_1735_16084">
<rect width="32" height="32" fill="white"/>
</clipPath>
</defs>
</svg>
