<svg width="32" height="32" viewBox="0 0 32 32" fill="none" xmlns="http://www.w3.org/2000/svg">
<path d="M15 3C11.8174 3 8.76516 4.26428 6.51472 6.51472C4.26428 8.76516 3 11.8174 3 15C3 18.1826 4.26428 21.2348 6.51472 23.4853C8.76516 25.7357 11.8174 27 15 27C18.1826 27 21.2348 25.7357 23.4853 23.4853C25.7357 21.2348 27 18.1826 27 15C27 11.8174 25.7357 8.76516 23.4853 6.51472C21.2348 4.26428 18.1826 3 15 3Z" fill="#0288D1"/>
<path d="M10 11.4286H12.2857V20H10V11.4286ZM11.136 10.2857H11.1234C10.4411 10.2857 10 9.77714 10 9.14229C10 8.49371 10.4549 8 11.1491 8C11.8446 8 12.2726 8.49371 12.2857 9.14229C12.2857 9.77714 11.8446 10.2857 11.136 10.2857ZM22 14.5714C22 12.8354 20.5931 11.4286 18.8571 11.4286C17.7931 11.4286 16.8543 11.9589 16.2857 12.768V11.4286H14V20H16.2857V15.4286C16.2857 14.4817 17.0531 13.7143 18 13.7143C18.9469 13.7143 19.7143 14.4817 19.7143 15.4286V20H22C22 20 22 14.812 22 14.5714Z" fill="white"/>
</svg>
