<svg width="26" height="26" viewBox="0 0 26 26" fill="none" xmlns="http://www.w3.org/2000/svg">
<path d="M9.75195 7.58329C9.76507 5.22701 9.86956 3.95094 10.702 3.11853C11.6539 2.16663 13.186 2.16663 16.2501 2.16663H17.3334C20.3975 2.16663 21.9296 2.16663 22.8815 3.11853C23.8334 4.07043 23.8334 5.60249 23.8334 8.66663V17.3333C23.8334 20.3974 23.8334 21.9294 22.8815 22.8814C21.9296 23.8333 20.3975 23.8333 17.3334 23.8333H16.2501C13.186 23.8333 11.6539 23.8333 10.702 22.8814C9.86956 22.0489 9.76507 20.7729 9.75195 18.4166" stroke="#616A72" stroke-width="1.5" stroke-linecap="round"/>
<path d="M16.2498 13H2.1665M2.1665 13L5.95817 9.75M2.1665 13L5.95817 16.25" stroke="#616A72" stroke-width="1.5" stroke-linecap="round" stroke-linejoin="round"/>
</svg>
