<svg width="19" height="19" viewBox="0 0 19 19" fill="none" xmlns="http://www.w3.org/2000/svg">
<path d="M7.41667 17.2917C11.0986 17.2917 14.0833 14.3069 14.0833 10.625C14.0833 6.94311 11.0986 3.95834 7.41667 3.95834C3.73477 3.95834 0.75 6.94311 0.75 10.625C0.75 14.3069 3.73477 17.2917 7.41667 17.2917Z" stroke="white" stroke-width="1.5"/>
<path d="M17.4172 0.625H18.0422C18.0422 0.279825 17.7623 0 17.4172 0V0.625ZM16.7922 4.79167C16.7922 5.13684 17.072 5.41667 17.4172 5.41667C17.7623 5.41667 18.0422 5.13684 18.0422 4.79167H16.7922ZM13.2505 0C12.9053 0 12.6255 0.279825 12.6255 0.625C12.6255 0.970175 12.9053 1.25 13.2505 1.25V0ZM12.4424 6.48361L17.8591 1.06694L16.9753 0.183058L11.5586 5.59973L12.4424 6.48361ZM16.7922 0.625V4.79167H18.0422V0.625H16.7922ZM13.2505 1.25H17.4172V0H13.2505V1.25Z" fill="white"/>
</svg>
