<svg width="24" height="19" viewBox="0 0 24 19" fill="none" xmlns="http://www.w3.org/2000/svg">
<path d="M5.0835 5.08337H9.41683" stroke="#616A72" stroke-width="1.5" stroke-linecap="round" stroke-linejoin="round"/>
<path d="M21.1529 6.16663H18.3335C16.4005 6.16663 14.8335 7.62165 14.8335 9.41663C14.8335 11.2116 16.4005 12.6666 18.3335 12.6666H21.1529C21.2433 12.6666 21.2883 12.6666 21.3265 12.6644C21.9107 12.6287 22.376 12.1967 22.4143 11.6541C22.4168 11.6187 22.4168 11.5768 22.4168 11.4931V7.3402C22.4168 7.25646 22.4168 7.21449 22.4143 7.17911C22.376 6.63662 21.9107 6.2045 21.3265 6.16894C21.2883 6.16663 21.2433 6.16663 21.1529 6.16663Z" stroke="#616A72" stroke-width="1.5"/>
<path d="M21.2954 6.16667C21.2112 4.13834 20.9397 2.89473 20.0641 2.0192C18.795 0.75 16.7521 0.75 12.6667 0.75H9.41667C5.33116 0.75 3.28841 0.75 2.0192 2.0192C0.75 3.28841 0.75 5.33116 0.75 9.41667C0.75 13.5021 0.75 15.545 2.0192 16.8141C3.28841 18.0833 5.33116 18.0833 9.41667 18.0833H12.6667C16.7521 18.0833 18.795 18.0833 20.0641 16.8141C20.9397 15.9387 21.2112 14.695 21.2954 12.6667" stroke="#616A72" stroke-width="1.5"/>
<path d="M18.0737 9.41663H18.0842" stroke="#616A72" stroke-width="2" stroke-linecap="round" stroke-linejoin="round"/>
</svg>
