<svg width="26" height="26" viewBox="0 0 26 26" fill="none" xmlns="http://www.w3.org/2000/svg">
<path d="M13 13C14.7949 13 16.25 11.5449 16.25 9.75C16.25 7.95507 14.7949 6.5 13 6.5C11.2051 6.5 9.75 7.95507 9.75 9.75C9.75 11.5449 11.2051 13 13 13Z" stroke="#616A72" stroke-width="1.5"/>
<path d="M12.9998 23.8334C18.9829 23.8334 23.8332 18.9831 23.8332 13C23.8332 7.01694 18.9829 2.16669 12.9998 2.16669C7.01675 2.16669 2.1665 7.01694 2.1665 13C2.1665 18.9831 7.01675 23.8334 12.9998 23.8334Z" stroke="#616A72" stroke-width="1.5"/>
<path d="M19.4664 21.6667C19.294 18.5342 18.335 16.25 12.9998 16.25C7.66469 16.25 6.70562 18.5342 6.5332 21.6667" stroke="#616A72" stroke-width="1.5" stroke-linecap="round"/>
</svg>
