<svg width="22" height="24" viewBox="0 0 22 24" fill="none" xmlns="http://www.w3.org/2000/svg">
<path d="M10.9639 14.8334C12.7588 14.8334 14.2139 13.3783 14.2139 11.5834C14.2139 9.78845 12.7588 8.33337 10.9639 8.33337C9.16894 8.33337 7.71387 9.78845 7.71387 11.5834C7.71387 13.3783 9.16894 14.8334 10.9639 14.8334Z" stroke="#616A72" stroke-width="1.5"/>
<path d="M12.8764 0.914927C12.4782 0.75 11.9735 0.75 10.9639 0.75C9.95435 0.75 9.44962 0.75 9.05139 0.914927C8.52052 1.13483 8.09873 1.55663 7.87882 2.08752C7.77844 2.32987 7.73915 2.61171 7.72377 3.02282C7.70119 3.62699 7.39135 4.18621 6.86776 4.48851C6.34418 4.79079 5.70496 4.7795 5.17044 4.49699C4.80673 4.30474 4.543 4.19784 4.28292 4.1636C3.7132 4.08859 3.13702 4.24298 2.68113 4.5928C2.33921 4.85516 2.08682 5.29231 1.58205 6.16659C1.07729 7.04088 0.824902 7.47802 0.768644 7.90532C0.693645 8.47503 0.848031 9.05121 1.19785 9.50712C1.35751 9.71523 1.58191 9.89008 1.93019 10.1089C2.44219 10.4307 2.77162 10.9787 2.77159 11.5833C2.77155 12.1879 2.44213 12.7359 1.93018 13.0575C1.58186 13.2765 1.35743 13.4514 1.19774 13.6595C0.847923 14.1154 0.693537 14.6915 0.768547 15.2612C0.824793 15.6885 1.07718 16.1257 1.58195 17C2.08673 17.8742 2.33911 18.3115 2.68102 18.5738C3.13691 18.9236 3.71309 19.0779 4.28282 19.003C4.54287 18.9687 4.80658 18.8618 5.17028 18.6696C5.70483 18.3871 6.34409 18.3758 6.86771 18.6781C7.39133 18.9804 7.70119 19.5397 7.72377 20.1439C7.73916 20.555 7.77844 20.8368 7.87882 21.0792C8.09873 21.61 8.52052 22.0319 9.05139 22.2518C9.44962 22.4167 9.95435 22.4167 10.9639 22.4167C11.9735 22.4167 12.4782 22.4167 12.8764 22.2518C13.4073 22.0319 13.8291 21.61 14.0489 21.0792C14.1493 20.8368 14.1887 20.555 14.204 20.1438C14.2266 19.5397 14.5364 18.9804 15.06 18.6781C15.5836 18.3757 16.2228 18.3871 16.7575 18.6696C17.1211 18.8618 17.3848 18.9686 17.6448 19.0029C18.2145 19.0779 18.7908 18.9236 19.2466 18.5738C19.5885 18.3114 19.841 17.8742 20.3457 16.9999C20.8505 16.1256 21.1029 15.6885 21.1592 15.2612C21.2341 14.6915 21.0797 14.1153 20.7299 13.6594C20.5703 13.4513 20.3458 13.2764 19.9975 13.0575C19.4856 12.7359 19.1562 12.1878 19.1562 11.5832C19.1562 10.9786 19.4856 10.4308 19.9975 10.1091C20.3459 9.89019 20.5704 9.71534 20.73 9.50712C21.0799 9.05129 21.2342 8.47511 21.1593 7.90538C21.103 7.4781 20.8506 7.04095 20.3458 6.16667C19.8411 5.29238 19.5886 4.85524 19.2467 4.59288C18.7909 4.24306 18.2147 4.08867 17.6449 4.16368C17.3849 4.19791 17.1212 4.30481 16.7575 4.49703C16.2229 4.77956 15.5837 4.79085 15.0601 4.48854C14.5364 4.18624 14.2266 3.62696 14.204 3.02277C14.1887 2.61169 14.1493 2.32986 14.0489 2.08752C13.8291 1.55663 13.4073 1.13483 12.8764 0.914927Z" stroke="#616A72" stroke-width="1.5"/>
</svg>
