<svg width="33" height="31" viewBox="0 0 33 31" fill="none" xmlns="http://www.w3.org/2000/svg">
<path d="M20.7373 0.204638C21.0304 -0.171837 21.6329 0.00164568 21.6809 0.47634L22.4097 7.68539C22.5958 9.5255 24.0158 10.9999 25.8477 11.2549L32.1553 12.1328L26.1067 12.894C23.231 13.2559 20.5825 11.2829 20.106 8.42398L19.8982 7.17748L17.9223 9.41116C15.7018 11.9212 12.6421 13.5354 9.31665 13.9511L5.04825 14.4846L8.67912 21.2085C10.3218 24.2504 9.89599 27.9936 7.61207 30.589C7.29989 30.9437 6.72544 30.6172 6.87051 30.1675L7.19435 29.1636C7.96565 26.7727 7.57239 24.1585 6.13179 22.1003L0.192469 13.6147C-0.27146 12.9519 0.15018 12.0348 0.95533 11.9554L7.33115 11.3271C10.6139 11.0036 13.62 9.34669 15.6464 6.74381L20.7373 0.204638Z" fill="white"/>
</svg>
