<svg width="32" height="32" viewBox="0 0 32 32" fill="none" xmlns="http://www.w3.org/2000/svg">
<rect x="8" y="9.87012" width="15" height="13" fill="white"/>
<path d="M27.27 15.635C27.27 18.7208 26.0442 21.6802 23.8622 23.8622C21.6802 26.0442 18.7208 27.27 15.635 27.27C12.5492 27.27 9.5898 26.0442 7.40781 23.8622C5.22583 21.6802 4 18.7208 4 15.635C4 12.5492 5.22583 9.5898 7.40781 7.40781C9.5898 5.22583 12.5492 4 15.635 4C18.7208 4 21.6802 5.22583 23.8622 7.40781C26.0442 9.5898 27.27 12.5492 27.27 15.635ZM16.0524 12.5895C14.9209 13.0608 12.6579 14.0352 9.26629 15.5128C8.71654 15.731 8.42712 15.9462 8.40094 16.1557C8.35731 16.5091 8.80089 16.6487 9.40446 16.8392L9.65897 16.9192C10.2524 17.1126 11.0523 17.3381 11.4668 17.3468C11.8449 17.3555 12.2652 17.2014 12.7292 16.8814C15.8982 14.742 17.5344 13.6614 17.6362 13.6381C17.7089 13.6207 17.8107 13.6003 17.8776 13.6614C17.946 13.721 17.9387 13.8359 17.9315 13.8665C17.8878 14.0541 16.1469 15.6714 15.2467 16.5091C14.966 16.7709 14.7667 16.9556 14.726 16.9978C14.6363 17.0894 14.5452 17.1796 14.4526 17.2683C13.8999 17.8006 13.4869 18.1991 14.4744 18.8506C14.95 19.1648 15.331 19.4222 15.7106 19.6811C16.1237 19.9632 16.5367 20.2439 17.0719 20.5959C17.2072 20.6831 17.3381 20.7777 17.4646 20.8678C17.946 21.2111 18.3809 21.5194 18.9146 21.47C19.2259 21.4409 19.5473 21.15 19.7102 20.2774C20.0956 18.2165 20.8533 13.753 21.0278 11.9133C21.0385 11.7603 21.0321 11.6067 21.0089 11.4551C20.9952 11.3328 20.936 11.2202 20.8431 11.1395C20.7108 11.0482 20.553 11.0009 20.3923 11.0043C19.9559 11.0115 19.2826 11.2457 16.0524 12.5895Z" fill="#229ED9"/>
</svg>
