<svg width="32" height="32" viewBox="0 0 32 32" fill="none" xmlns="http://www.w3.org/2000/svg">
<g clip-path="url(#clip0_1735_16089)">
<path d="M16 28.1905C22.7327 28.1905 28.1905 22.7327 28.1905 16C28.1905 9.26743 22.7327 3.80957 16 3.80957C9.26743 3.80957 3.80957 9.26743 3.80957 16C3.80957 22.7327 9.26743 28.1905 16 28.1905Z" fill="#242323"/>
<g opacity="0.8" filter="url(#filter0_f_1735_16089)">
<path d="M16.0001 20.5716C18.5249 20.5716 20.5716 18.5249 20.5716 16.0001C20.5716 13.4754 18.5249 11.4287 16.0001 11.4287C13.4754 11.4287 11.4287 13.4754 11.4287 16.0001C11.4287 18.5249 13.4754 20.5716 16.0001 20.5716Z" fill="white"/>
</g>
<path d="M21.3274 12.9571C20.6335 12.9571 19.9932 12.7263 19.4791 12.3369C18.8893 11.8905 18.4656 11.2357 18.316 10.4809C18.279 10.2944 18.259 10.102 18.2571 9.90479H16.2748V15.3436L16.2724 18.3228C16.2724 19.1193 15.7559 19.7945 15.0398 20.0321C14.832 20.101 14.6076 20.1337 14.3739 20.1208C14.0756 20.1043 13.7961 20.014 13.5531 19.868C13.0361 19.5575 12.6856 18.9943 12.6761 18.35C12.6612 17.343 13.4719 16.5219 14.4741 16.5219C14.672 16.5219 14.8619 16.5543 15.0398 16.6132V15.1267V14.5923C14.8522 14.5644 14.6613 14.5498 14.4682 14.5498C13.3712 14.5498 12.3453 15.0076 11.6119 15.8325C11.0576 16.4559 10.7251 17.2511 10.6738 18.0851C10.6066 19.1805 11.0058 20.2219 11.78 20.9902C11.8938 21.103 12.0132 21.2077 12.1382 21.3043C12.802 21.8172 13.6135 22.0953 14.4682 22.0953C14.6613 22.0953 14.8522 22.0809 15.0398 22.0531C15.8383 21.9343 16.575 21.5673 17.1564 20.9902C17.8708 20.2812 18.2654 19.3401 18.2697 18.3383L18.2595 13.8895C18.6003 14.1535 18.9729 14.3719 19.3728 14.5414C19.9949 14.805 20.6544 14.9385 21.3332 14.9382V13.493V12.9567L21.3274 12.9571Z" fill="white"/>
</g>
<defs>
<filter id="filter0_f_1735_16089" x="-3.57129" y="-3.57129" width="39.1431" height="39.1431" filterUnits="userSpaceOnUse" color-interpolation-filters="sRGB">
<feFlood flood-opacity="0" result="BackgroundImageFix"/>
<feBlend mode="normal" in="SourceGraphic" in2="BackgroundImageFix" result="shape"/>
<feGaussianBlur stdDeviation="7.5" result="effect1_foregroundBlur_1735_16089"/>
</filter>
<clipPath id="clip0_1735_16089">
<rect width="32" height="32" fill="white"/>
</clipPath>
</defs>
</svg>
