<svg width="26" height="26" viewBox="0 0 26 26" fill="none" xmlns="http://www.w3.org/2000/svg">
<path d="M18.625 10.1877L19.3657 9.81738C21.5547 8.72283 22.6494 8.17555 23.4497 8.67018C24.25 9.1648 24.25 10.3886 24.25 12.8361V13.1644C24.25 15.6119 24.25 16.8356 23.4497 17.3302C22.6494 17.8249 21.5547 17.2776 19.3657 16.1831L18.625 15.8127V10.1877Z" stroke="#616A72" stroke-width="1.5"/>
<path d="M14.7558 7.86926C15.4147 8.52827 15.4147 9.59673 14.7558 10.2557C14.0967 10.9147 13.0282 10.9147 12.3692 10.2557C11.7103 9.59673 11.7103 8.52827 12.3692 7.86926C13.0282 7.21025 14.0967 7.21025 14.7558 7.86926Z" stroke="#616A72" stroke-width="1.5"/>
<path d="M1.75 12.4375C1.75 8.73908 1.75 6.88988 2.77145 5.64523C2.95845 5.41738 3.16738 5.20845 3.39523 5.02145C4.63988 4 6.48908 4 10.1875 4C13.8859 4 15.7351 4 16.9798 5.02145C17.2076 5.20845 17.4165 5.41738 17.6035 5.64523C18.625 6.88988 18.625 8.73908 18.625 12.4375V13.5625C18.625 17.2609 18.625 19.1101 17.6035 20.3548C17.4165 20.5826 17.2076 20.7915 16.9798 20.9785C15.7351 22 13.8859 22 10.1875 22C6.48908 22 4.63988 22 3.39523 20.9785C3.16738 20.7915 2.95845 20.5826 2.77145 20.3548C1.75 19.1101 1.75 17.2609 1.75 13.5625V12.4375Z" stroke="#616A72" stroke-width="1.5"/>
</svg>
