<svg width="18" height="14" viewBox="0 0 18 14" fill="none" xmlns="http://www.w3.org/2000/svg">
<path d="M18 3.32118C18 2.56641 17.3875 1.95448 16.6327 1.95448C15.8774 1.95448 15.2649 2.56641 15.2649 3.32118C15.2649 3.69032 15.4116 4.02486 15.6495 4.27039C14.7195 6.19629 12.9419 6.86865 11.5642 6.26003C10.3371 5.71729 9.88443 4.16602 9.73114 2.96413C10.2316 2.70102 10.5727 2.17695 10.5727 1.57215C10.5727 0.703688 9.86903 0 9 0C8.13154 0 7.42732 0.703688 7.42732 1.57215C7.42732 2.17695 7.76844 2.70098 8.26889 2.96413C8.11564 4.16605 7.66301 5.71732 6.43581 6.26003C5.05811 6.86869 3.28054 6.19629 2.35055 4.27039C2.58841 4.02486 2.73509 3.69032 2.73509 3.32118C2.73509 2.56641 2.12259 1.95448 1.36782 1.95448C0.612492 1.95448 0 2.56641 0 3.32118C0 4.0166 0.519645 4.58954 1.19092 4.67634L2.7669 10.4447H15.2331L16.8091 4.67634C17.4809 4.58954 18 4.0166 18 3.32118Z" fill="#FFA500"/>
<path d="M15.9967 12.9046C15.9967 13.4665 15.5413 13.9219 14.9788 13.9219H3.02126C2.45929 13.9219 2.00391 13.4665 2.00391 12.9046V12.82C2.00391 12.2575 2.45929 11.8021 3.02126 11.8021H14.9788C15.5413 11.8021 15.9967 12.2575 15.9967 12.82V12.9046Z" fill="#FFA500"/>
</svg>
