<svg width="32" height="32" viewBox="0 0 32 32" fill="none" xmlns="http://www.w3.org/2000/svg">
<g clip-path="url(#clip0_1735_16073)">
<path d="M16.0001 27.6365C22.4267 27.6365 27.6365 22.4267 27.6365 16.0001C27.6365 9.57355 22.4267 4.36377 16.0001 4.36377C9.57355 4.36377 4.36377 9.57355 4.36377 16.0001C4.36377 22.4267 9.57355 27.6365 16.0001 27.6365Z" fill="#F40000"/>
<g opacity="0.8" filter="url(#filter0_f_1735_16073)">
<path d="M16.0001 21.091C18.8117 21.091 21.091 18.8117 21.091 16.0001C21.091 13.1885 18.8117 10.9092 16.0001 10.9092C13.1885 10.9092 10.9092 13.1885 10.9092 16.0001C10.9092 18.8117 13.1885 21.091 16.0001 21.091Z" fill="white"/>
</g>
<path d="M21.5813 13.0084C21.4475 12.474 21.0551 12.0523 20.5568 11.9085C19.6464 11.6406 16.0038 11.6362 16.0038 11.6362C16.0038 11.6362 12.3619 11.6319 11.4509 11.8879C10.9624 12.0305 10.559 12.4615 10.4241 12.9953C10.184 13.9706 10.1816 15.9936 10.1816 15.9936C10.1816 15.9936 10.1793 18.0266 10.4177 18.992C10.5514 19.5258 10.9439 19.9474 11.4427 20.0913C12.3625 20.3591 15.9951 20.3635 15.9951 20.3635C15.9951 20.3635 19.6376 20.3679 20.5481 20.1125C21.0458 19.9693 21.44 19.5482 21.5755 19.0144C21.8162 18.0397 21.8179 16.0173 21.8179 16.0173C21.8179 16.0173 21.8296 13.9837 21.5813 13.0084ZM14.8387 17.8678L14.8416 14.1307L17.869 16.0023L14.8387 17.8678Z" fill="white"/>
</g>
<defs>
<filter id="filter0_f_1735_16073" x="-4.09082" y="-4.09082" width="40.1816" height="40.1816" filterUnits="userSpaceOnUse" color-interpolation-filters="sRGB">
<feFlood flood-opacity="0" result="BackgroundImageFix"/>
<feBlend mode="normal" in="SourceGraphic" in2="BackgroundImageFix" result="shape"/>
<feGaussianBlur stdDeviation="7.5" result="effect1_foregroundBlur_1735_16073"/>
</filter>
<clipPath id="clip0_1735_16073">
<rect width="32" height="32" fill="white"/>
</clipPath>
</defs>
</svg>
