<svg width="201" height="45" viewBox="0 0 201 45" fill="none" xmlns="http://www.w3.org/2000/svg">
<g clip-path="url(#clip0_461_4910)">
<path d="M29.017 22.8234C31.1784 22.8234 32.8432 23.3491 34.0115 24.4006C35.1995 25.4521 35.7933 26.893 35.7933 28.7234C35.7933 30.8848 35.1509 32.54 33.8654 33.6887C32.5804 34.8378 30.75 35.4121 28.3744 35.4121H23.0586L22.562 41.7212C22.5231 42.2857 22.3186 42.7435 21.9487 43.094C21.5982 43.425 21.1308 43.5903 20.5467 43.5903C19.982 43.5903 19.5438 43.425 19.2323 43.094C18.9208 42.7435 18.7844 42.2759 18.8234 41.6918L20.167 24.5759C20.2059 24.0307 20.3909 23.6023 20.7219 23.2907C21.0529 22.9792 21.5008 22.8234 22.0655 22.8234H29.017ZM28.0532 32.5205C30.8377 32.5205 32.2299 31.3132 32.2299 28.8987C32.2299 26.7957 31.0129 25.7442 28.5789 25.7442H23.818L23.2922 32.5205H28.0532Z" fill="url(#paint0_linear_461_4910)"/>
<path d="M50.2976 35.6459C50.2976 36.0548 50.1805 36.376 49.9471 36.6098C49.7328 36.8237 49.4504 36.931 49.0999 36.931H40.425C40.4834 38.2161 40.8437 39.1898 41.5056 39.8517C42.1872 40.5137 43.1413 40.8447 44.368 40.8447C45.0496 40.8447 45.6629 40.7671 46.2085 40.6112C46.7729 40.4358 47.3279 40.1827 47.8732 39.8517C48.1262 39.7154 48.3698 39.6473 48.6033 39.6473C48.9346 39.6473 49.1876 39.7738 49.3627 40.0268C49.5574 40.2607 49.6549 40.5528 49.6549 40.9034C49.6549 41.4678 49.4116 41.9351 48.9248 42.3052C48.3988 42.6946 47.698 43.0161 46.8218 43.2691C45.9649 43.5222 45.0691 43.6487 44.1346 43.6487C42.674 43.6487 41.3987 43.3666 40.3083 42.8019C39.2178 42.2175 38.3707 41.3997 37.7671 40.3484C37.183 39.2967 36.8909 38.07 36.8909 36.6682C36.8909 35.1492 37.1928 33.796 37.7964 32.6081C38.4 31.4008 39.2472 30.4662 40.3376 29.8041C41.428 29.1226 42.674 28.7818 44.0762 28.7818C46.0624 28.7818 47.5908 29.3757 48.662 30.5635C49.7524 31.7514 50.2976 33.4454 50.2976 35.6459ZM44.2223 31.3522C42.1582 31.3522 40.9314 32.5595 40.5421 34.9741H47.2014C47.221 33.7862 46.9676 32.8904 46.442 32.2868C45.9163 31.6637 45.1764 31.3522 44.2223 31.3522Z" fill="url(#paint1_linear_461_4910)"/>
<path d="M61.8711 28.8403C62.2995 28.8013 62.6403 28.8987 62.8933 29.1323C63.166 29.3466 63.3023 29.6678 63.3023 30.0962C63.3023 30.6804 63.166 31.1185 62.8933 31.4106C62.6207 31.7027 62.1437 31.8877 61.4621 31.9656L60.6737 32.0532C59.4078 32.1895 58.483 32.5497 57.899 33.134C57.3147 33.6985 56.9739 34.5554 56.8767 35.7042L56.3801 41.8379C56.341 42.422 56.1365 42.8602 55.7667 43.1524C55.3966 43.4442 54.9587 43.5903 54.4523 43.5903C53.9266 43.5903 53.4981 43.4442 53.1672 43.1524C52.8362 42.8602 52.6901 42.422 52.7289 41.8379L53.6638 30.5051C53.7026 29.9599 53.907 29.551 54.2771 29.2784C54.6665 28.9863 55.1048 28.8403 55.5913 28.8403C56.0977 28.8403 56.487 28.9766 56.7596 29.2492C57.0518 29.5218 57.1783 29.921 57.1395 30.4467L57.0812 31.2353C57.5873 30.5149 58.23 29.9599 59.0087 29.5705C59.7877 29.1616 60.6345 28.9279 61.5499 28.8695L61.8711 28.8403Z" fill="url(#paint2_linear_461_4910)"/>
<path d="M73.7805 25.5398C72.8651 25.5982 72.1836 25.8805 71.7359 26.3868C71.2879 26.8736 71.025 27.5843 70.9471 28.519L70.8887 29.1323H73.3716C74.3841 29.1323 74.8905 29.5607 74.8905 30.4175C74.8905 31.3911 74.3257 31.8779 73.1961 31.8779H70.6843L69.8958 41.8379C69.8567 42.4027 69.6522 42.8309 69.2824 43.123C68.9319 43.4152 68.4936 43.5613 67.968 43.5613C67.4423 43.5613 67.0138 43.4152 66.6829 43.123C66.3519 42.8309 66.2058 42.4027 66.2446 41.8379L67.0334 31.8779H65.6022C65.0958 31.8779 64.7065 31.7708 64.4338 31.5566C64.1808 31.323 64.054 31.0017 64.054 30.5928C64.054 29.6192 64.6285 29.1323 65.7773 29.1323H67.2379L67.2669 28.9279C67.4228 27.0391 68.0263 25.5884 69.078 24.5759C70.1488 23.5438 71.5996 22.9694 73.4299 22.8526L74.131 22.7942C74.7542 22.7552 75.2312 22.8234 75.5622 22.9986C75.9128 23.1739 76.0879 23.5049 76.0879 23.9917C76.0879 24.8874 75.5814 25.384 74.5689 25.4813L73.7805 25.5398Z" fill="url(#paint3_linear_461_4910)"/>
<path d="M82.4119 43.6487C80.9513 43.6487 79.676 43.3666 78.5856 42.8019C77.5147 42.2175 76.6871 41.3997 76.1028 40.3484C75.5187 39.2772 75.2266 38.041 75.2266 36.6388C75.2266 35.0423 75.5285 33.6499 76.1321 32.4621C76.7553 31.2743 77.6217 30.3688 78.7317 29.7457C79.8609 29.1031 81.1656 28.7818 82.6454 28.7818C84.1059 28.7818 85.3715 29.0739 86.4426 29.6581C87.5331 30.2228 88.3701 31.0406 88.9545 32.1116C89.5385 33.163 89.8307 34.3898 89.8307 35.792C89.8307 37.3885 89.5189 38.7809 88.8961 39.9685C88.2922 41.1564 87.4258 42.0714 86.2966 42.7141C85.1866 43.3373 83.8917 43.6487 82.4119 43.6487ZM82.4119 40.8157C83.6579 40.8157 84.5928 40.3484 85.2159 39.4135C85.8583 38.4593 86.1795 37.2134 86.1795 35.6749C86.1795 34.3314 85.8779 33.3189 85.2743 32.6374C84.6899 31.9363 83.8235 31.5858 82.6747 31.5858C81.4284 31.5858 80.4841 32.0629 79.8413 33.017C79.199 33.9518 78.8778 35.188 78.8778 36.7265C78.8778 39.4526 80.0556 40.8157 82.4119 40.8157Z" fill="url(#paint4_linear_461_4910)"/>
<path d="M101.491 28.8403C101.919 28.8013 102.26 28.8987 102.513 29.1323C102.786 29.3466 102.922 29.6678 102.922 30.0962C102.922 30.6804 102.786 31.1185 102.513 31.4106C102.24 31.7027 101.763 31.8877 101.082 31.9656L100.293 32.0532C99.0274 32.1895 98.1023 32.5497 97.5183 33.134C96.9339 33.6985 96.5932 34.5554 96.496 35.7042L95.9994 41.8379C95.9606 42.422 95.7561 42.8602 95.386 43.1524C95.0159 43.4442 94.5779 43.5903 94.0715 43.5903C93.5459 43.5903 93.1174 43.4442 92.7864 43.1524C92.4554 42.8602 92.3094 42.422 92.3485 41.8379L93.283 30.5051C93.3219 29.9599 93.5263 29.551 93.8964 29.2784C94.2858 28.9863 94.724 28.8403 95.2109 28.8403C95.717 28.8403 96.1063 28.9766 96.3789 29.2492C96.6711 29.5218 96.7976 29.921 96.7588 30.4467L96.7004 31.2353C97.2065 30.5149 97.8492 29.9599 98.6283 29.5705C99.407 29.1616 100.254 28.9279 101.169 28.8695L101.491 28.8403Z" fill="url(#paint5_linear_461_4910)"/>
<path d="M121.376 28.7818C122.875 28.7818 124.005 29.2103 124.764 30.067C125.543 30.9043 125.932 32.1505 125.932 33.8058C125.932 34.2147 125.922 34.5261 125.903 34.7403L125.348 41.8379C125.309 42.422 125.105 42.8602 124.735 43.1524C124.365 43.4442 123.917 43.5903 123.391 43.5903C122.885 43.5903 122.466 43.4442 122.135 43.1524C121.804 42.8602 121.658 42.422 121.697 41.8379L122.252 34.8571C122.271 34.7208 122.281 34.5261 122.281 34.273C122.281 32.54 121.532 31.6734 120.032 31.6734C118.066 31.6734 116.985 32.9488 116.79 35.4998L116.264 41.8379C116.226 42.422 116.021 42.8602 115.651 43.1524C115.3 43.4442 114.862 43.5903 114.336 43.5903C113.811 43.5903 113.382 43.4442 113.051 43.1524C112.72 42.8602 112.574 42.422 112.613 41.8379L113.197 34.8864C113.275 33.796 113.129 32.9879 112.759 32.4621C112.409 31.9363 111.815 31.6734 110.978 31.6734C109.03 31.6734 107.94 32.9488 107.706 35.4998L107.181 41.8379C107.142 42.422 106.937 42.8602 106.567 43.1524C106.197 43.4442 105.759 43.5903 105.253 43.5903C104.727 43.5903 104.299 43.4442 103.968 43.1524C103.637 42.8602 103.491 42.422 103.53 41.8379L104.464 30.5051C104.503 29.9794 104.717 29.5705 105.107 29.2784C105.496 28.9863 105.935 28.8403 106.421 28.8403C106.927 28.8403 107.327 28.9766 107.619 29.2492C107.93 29.5218 108.057 29.921 107.998 30.4467L107.969 30.9141C108.982 29.4926 110.442 28.7818 112.35 28.7818C113.382 28.7818 114.249 28.996 114.95 29.4244C115.651 29.8528 116.167 30.4759 116.498 31.2938C117.043 30.4759 117.735 29.8528 118.572 29.4244C119.409 28.996 120.344 28.7818 121.376 28.7818Z" fill="url(#paint6_linear_461_4910)"/>
<path d="M136.624 43.678C135.066 43.678 133.664 43.5029 132.418 43.1524C131.172 42.8018 130.12 42.3248 129.263 41.7212C128.699 41.3315 128.416 40.8156 128.416 40.1729C128.416 39.764 128.533 39.4135 128.767 39.1216C129.02 38.8099 129.341 38.6543 129.731 38.6543C130.003 38.6543 130.325 38.7613 130.695 38.9755C131.454 39.5208 132.34 39.9492 133.353 40.2607C134.385 40.5528 135.514 40.6989 136.741 40.6989C138.162 40.6989 139.243 40.4651 139.983 39.9978C140.742 39.511 141.122 38.8295 141.122 37.9533C141.122 37.3885 140.917 36.9212 140.509 36.5511C140.119 36.1617 139.623 35.8503 139.019 35.6165C138.415 35.3635 137.597 35.0909 136.565 34.7987C135.144 34.3898 133.976 33.9906 133.06 33.6013C132.165 33.1924 131.395 32.5984 130.753 31.8195C130.11 31.0406 129.789 30.0183 129.789 28.7526C129.789 27.5064 130.12 26.416 130.782 25.4813C131.464 24.5466 132.427 23.8262 133.674 23.3199C134.92 22.8136 136.37 22.5605 138.026 22.5605C139.447 22.5605 140.771 22.7552 141.998 23.1447C143.225 23.5341 144.228 24.0599 145.007 24.7219C145.435 25.0724 145.649 25.5008 145.649 26.0071C145.649 26.416 145.513 26.7762 145.24 27.0878C144.987 27.3799 144.656 27.5259 144.247 27.5259C143.897 27.5259 143.527 27.3993 143.137 27.1462C142.495 26.6789 141.716 26.2991 140.801 26.0071C139.885 25.6955 138.931 25.5397 137.938 25.5397C136.536 25.5397 135.446 25.8026 134.667 26.3284C133.908 26.8346 133.528 27.5454 133.528 28.4605C133.528 29.0642 133.732 29.5705 134.141 29.9794C134.57 30.3883 135.085 30.7096 135.689 30.9432C136.293 31.1769 137.15 31.4593 138.26 31.7903C139.681 32.1992 140.83 32.5984 141.706 32.9879C142.582 33.3577 143.332 33.9225 143.955 34.682C144.578 35.4218 144.89 36.3858 144.89 37.5734C144.89 39.4816 144.159 40.981 142.699 42.0714C141.239 43.1426 139.214 43.678 136.624 43.678Z" fill="url(#paint7_linear_461_4910)"/>
<path d="M152.65 37.9823C152.631 38.0993 152.621 38.2745 152.621 38.5083C152.621 39.287 152.796 39.8811 153.147 40.29C153.517 40.6989 154.033 40.9034 154.695 40.9034C154.87 40.9034 155.074 40.8936 155.308 40.874C155.561 40.8352 155.766 40.8157 155.921 40.8157C156.194 40.8157 156.408 40.9226 156.564 41.1368C156.72 41.3511 156.798 41.6433 156.798 42.013C156.798 42.6166 156.584 43.0353 156.155 43.2691C155.727 43.5029 154.977 43.6197 153.906 43.6197C152.329 43.6197 151.112 43.201 150.255 42.3636C149.398 41.5262 148.97 40.3386 148.97 38.8001C148.97 38.4499 148.98 38.1867 148.999 38.0116L149.466 31.8779H148.035C147.548 31.8779 147.169 31.7708 146.896 31.5566C146.624 31.323 146.487 30.9919 146.487 30.5635C146.487 29.6094 147.062 29.1323 148.21 29.1323H149.7L149.905 26.4452C149.944 25.9194 150.138 25.5105 150.489 25.2185C150.839 24.9069 151.297 24.7511 151.862 24.7511C152.426 24.7511 152.854 24.9069 153.147 25.2185C153.458 25.5105 153.595 25.9292 153.556 26.4744L153.351 29.1323H155.805C156.291 29.1323 156.662 29.2492 156.915 29.4829C157.187 29.697 157.324 30.0086 157.324 30.4175C157.324 31.3911 156.759 31.8779 155.629 31.8779H153.118L152.65 37.9823Z" fill="url(#paint8_linear_461_4910)"/>
<path d="M165.36 28.7818C167.287 28.7818 168.728 29.22 169.683 30.0962C170.637 30.9725 171.114 32.2966 171.114 34.0686C171.114 34.4384 171.104 34.7208 171.085 34.9154L170.53 41.8963C170.491 42.4415 170.306 42.8602 169.975 43.1524C169.663 43.4442 169.235 43.5903 168.69 43.5903C168.183 43.5903 167.774 43.4348 167.463 43.123C167.171 42.7921 167.044 42.3734 167.083 41.867L167.112 41.3123C166.723 42.0522 166.178 42.6264 165.477 43.0353C164.776 43.4442 163.977 43.6487 163.082 43.6487C162.147 43.6487 161.3 43.4736 160.54 43.123C159.8 42.7529 159.216 42.2566 158.788 41.6335C158.36 40.9908 158.145 40.2704 158.145 39.4722C158.145 38.3817 158.418 37.515 158.963 36.8726C159.528 36.2103 160.424 35.7333 161.65 35.4414C162.877 35.1297 164.513 34.9741 166.557 34.9741H167.609L167.638 34.4191C167.716 33.4454 167.531 32.7251 167.083 32.2576C166.635 31.7903 165.924 31.5566 164.951 31.5566C163.802 31.5566 162.488 31.9363 161.008 32.6958C160.755 32.8125 160.511 32.8709 160.278 32.8709C159.927 32.8709 159.635 32.7541 159.401 32.5205C159.168 32.2673 159.051 31.9656 159.051 31.615C159.051 31.3619 159.129 31.1088 159.285 30.8556C159.44 30.583 159.664 30.3591 159.956 30.1838C160.657 29.7555 161.485 29.4147 162.439 29.1616C163.393 28.9084 164.367 28.7818 165.36 28.7818ZM164.016 41.0201C164.931 41.0201 165.701 40.6989 166.324 40.0562C166.966 39.3942 167.327 38.5569 167.405 37.5443L167.463 36.9016H166.645C165.399 36.9016 164.416 36.9698 163.695 37.1061C162.994 37.2424 162.488 37.4762 162.176 37.8072C161.865 38.1186 161.709 38.5471 161.709 39.0923C161.709 39.6766 161.913 40.1439 162.322 40.4945C162.751 40.8447 163.315 41.0201 164.016 41.0201Z" fill="url(#paint9_linear_461_4910)"/>
<path d="M183.353 28.8403C183.782 28.8013 184.122 28.8987 184.375 29.1323C184.648 29.3466 184.784 29.6678 184.784 30.0962C184.784 30.6804 184.648 31.1185 184.375 31.4106C184.103 31.7027 183.626 31.8877 182.944 31.9656L182.156 32.0532C180.89 32.1895 179.965 32.5497 179.381 33.134C178.797 33.6985 178.456 34.5554 178.359 35.7042L177.862 41.8379C177.823 42.422 177.619 42.8602 177.249 43.1524C176.879 43.4442 176.441 43.5903 175.934 43.5903C175.409 43.5903 174.98 43.4442 174.649 43.1524C174.318 42.8602 174.172 42.422 174.211 41.8379L175.146 30.5051C175.185 29.9599 175.389 29.551 175.759 29.2784C176.149 28.9863 176.587 28.8403 177.073 28.8403C177.58 28.8403 177.969 28.9766 178.242 29.2492C178.534 29.5218 178.66 29.921 178.622 30.4467L178.563 31.2353C179.069 30.5149 179.712 29.9599 180.491 29.5705C181.27 29.1616 182.117 28.9279 183.032 28.8695L183.353 28.8403Z" fill="url(#paint10_linear_461_4910)"/>
<path d="M190.419 43.6487C189.524 43.6487 188.628 43.5417 187.733 43.3275C186.856 43.1133 186.077 42.8116 185.396 42.422C184.753 42.091 184.432 41.5943 184.432 40.9324C184.432 40.5626 184.549 40.2411 184.782 39.9685C185.016 39.6959 185.308 39.5596 185.659 39.5596C185.892 39.5596 186.145 39.6375 186.418 39.7934C187.762 40.5721 189.193 40.9617 190.712 40.9617C192.484 40.9617 193.37 40.4553 193.37 39.4428C193.37 38.956 193.126 38.5862 192.639 38.3328C192.153 38.0602 191.393 37.7778 190.361 37.486C189.329 37.1938 188.482 36.9114 187.82 36.6388C187.178 36.3466 186.623 35.9283 186.155 35.383C185.688 34.8183 185.464 34.0882 185.484 33.1924C185.522 31.8487 186.107 30.7778 187.236 29.9794C188.365 29.181 189.865 28.7818 191.734 28.7818C192.513 28.7818 193.311 28.8987 194.129 29.1324C194.966 29.3466 195.648 29.6386 196.174 30.0086C196.699 30.3396 196.962 30.7972 196.962 31.3814C196.962 31.7513 196.845 32.0726 196.612 32.3453C196.398 32.5984 196.125 32.7251 195.794 32.7251C195.56 32.7251 195.307 32.6472 195.035 32.4913C193.827 31.7903 192.639 31.4398 191.471 31.4398C190.614 31.4398 189.952 31.5761 189.485 31.8487C189.037 32.1213 188.813 32.5205 188.813 33.0463C188.813 33.5332 189.056 33.9127 189.543 34.1853C190.03 34.4384 190.79 34.711 191.822 35.0032C192.854 35.2953 193.691 35.5875 194.334 35.8793C194.976 36.152 195.531 36.5609 195.999 37.1061C196.466 37.6513 196.699 38.3622 196.699 39.2384C196.699 40.621 196.145 41.7016 195.035 42.4803C193.925 43.2593 192.386 43.6487 190.419 43.6487Z" fill="url(#paint11_linear_461_4910)"/>
<path d="M29.0782 1.66099C29.4807 1.144 30.308 1.38224 30.3739 2.0341L31.285 11.0457C31.5672 13.837 33.9023 15.9702 36.7077 15.9997L200.217 17.7173L35.7499 19.5463C32.0939 19.587 28.9539 16.9568 28.3528 13.3504L27.9671 11.0362L25.389 13.9506C22.3397 17.3975 18.138 19.6141 13.5714 20.1849L7.94536 20.8882L12.8407 29.9537C15.0555 34.0552 14.4814 39.1021 11.402 42.601C10.9812 43.0793 10.2066 42.6391 10.4023 42.0329L10.8083 40.7742C11.8675 37.4909 11.3274 33.901 9.34917 31.0745L1.42437 19.7523C0.787285 18.8421 1.3663 17.5827 2.47196 17.4738L10.8949 16.6437C15.403 16.1994 19.531 13.9241 22.3137 10.3497L29.0782 1.66099Z" fill="url(#paint12_linear_461_4910)"/>
</g>
<defs>
<linearGradient id="paint0_linear_461_4910" x1="102.774" y1="24.247" x2="102.774" y2="66.8997" gradientUnits="userSpaceOnUse">
<stop stop-color="white"/>
<stop offset="1" stop-color="white" stop-opacity="0"/>
</linearGradient>
<linearGradient id="paint1_linear_461_4910" x1="102.774" y1="24.247" x2="102.774" y2="66.8997" gradientUnits="userSpaceOnUse">
<stop stop-color="white"/>
<stop offset="1" stop-color="white" stop-opacity="0"/>
</linearGradient>
<linearGradient id="paint2_linear_461_4910" x1="102.774" y1="24.247" x2="102.774" y2="66.8997" gradientUnits="userSpaceOnUse">
<stop stop-color="white"/>
<stop offset="1" stop-color="white" stop-opacity="0"/>
</linearGradient>
<linearGradient id="paint3_linear_461_4910" x1="102.774" y1="24.247" x2="102.774" y2="66.8997" gradientUnits="userSpaceOnUse">
<stop stop-color="white"/>
<stop offset="1" stop-color="white" stop-opacity="0"/>
</linearGradient>
<linearGradient id="paint4_linear_461_4910" x1="102.774" y1="24.247" x2="102.774" y2="66.8997" gradientUnits="userSpaceOnUse">
<stop stop-color="white"/>
<stop offset="1" stop-color="white" stop-opacity="0"/>
</linearGradient>
<linearGradient id="paint5_linear_461_4910" x1="102.774" y1="24.247" x2="102.774" y2="66.8997" gradientUnits="userSpaceOnUse">
<stop stop-color="white"/>
<stop offset="1" stop-color="white" stop-opacity="0"/>
</linearGradient>
<linearGradient id="paint6_linear_461_4910" x1="102.774" y1="24.247" x2="102.774" y2="66.8997" gradientUnits="userSpaceOnUse">
<stop stop-color="white"/>
<stop offset="1" stop-color="white" stop-opacity="0"/>
</linearGradient>
<linearGradient id="paint7_linear_461_4910" x1="102.774" y1="24.247" x2="102.774" y2="66.8997" gradientUnits="userSpaceOnUse">
<stop stop-color="white"/>
<stop offset="1" stop-color="white" stop-opacity="0"/>
</linearGradient>
<linearGradient id="paint8_linear_461_4910" x1="102.774" y1="24.247" x2="102.774" y2="66.8997" gradientUnits="userSpaceOnUse">
<stop stop-color="white"/>
<stop offset="1" stop-color="white" stop-opacity="0"/>
</linearGradient>
<linearGradient id="paint9_linear_461_4910" x1="102.774" y1="24.247" x2="102.774" y2="66.8997" gradientUnits="userSpaceOnUse">
<stop stop-color="white"/>
<stop offset="1" stop-color="white" stop-opacity="0"/>
</linearGradient>
<linearGradient id="paint10_linear_461_4910" x1="102.774" y1="24.247" x2="102.774" y2="66.8997" gradientUnits="userSpaceOnUse">
<stop stop-color="white"/>
<stop offset="1" stop-color="white" stop-opacity="0"/>
</linearGradient>
<linearGradient id="paint11_linear_461_4910" x1="102.774" y1="24.247" x2="102.774" y2="66.8997" gradientUnits="userSpaceOnUse">
<stop stop-color="white"/>
<stop offset="1" stop-color="white" stop-opacity="0"/>
</linearGradient>
<linearGradient id="paint12_linear_461_4910" x1="-2.81198" y1="16.2907" x2="188.969" y2="18.5403" gradientUnits="userSpaceOnUse">
<stop stop-color="white"/>
<stop offset="1" stop-color="white" stop-opacity="0"/>
</linearGradient>
<clipPath id="clip0_461_4910">
<rect width="200.217" height="45" fill="white"/>
</clipPath>
</defs>
</svg>
